<?xml version="1.0" encoding="utf-8" standalone="no"?>
<!DOCTYPE svg PUBLIC "-//W3C//DTD SVG 1.1//EN"
  "http://www.w3.org/Graphics/SVG/1.1/DTD/svg11.dtd">
<svg xmlns:xlink="http://www.w3.org/1999/xlink" width="368.32397pt" height="352.8pt" viewBox="0 0 368.32397 352.8" xmlns="http://www.w3.org/2000/svg" version="1.1">
 <metadata>
  <rdf:RDF xmlns:dc="http://purl.org/dc/elements/1.1/" xmlns:cc="http://creativecommons.org/ns#" xmlns:rdf="http://www.w3.org/1999/02/22-rdf-syntax-ns#">
   <cc:Work>
    <dc:type rdf:resource="http://purl.org/dc/dcmitype/StillImage"/>
    <dc:date>2026-02-05T20:33:38.897260</dc:date>
    <dc:format>image/svg+xml</dc:format>
    <dc:creator>
     <cc:Agent>
      <dc:title>Matplotlib v3.10.8, https://matplotlib.org/</dc:title>
     </cc:Agent>
    </dc:creator>
   </cc:Work>
  </rdf:RDF>
 </metadata>
 <defs>
  <style type="text/css">*{stroke-linejoin: round; stroke-linecap: butt}</style>
 </defs>
 <g id="figure_1">
  <g id="patch_1">
   <path d="M 0 352.8 
L 368.32397 352.8 
L 368.32397 0 
L 0 0 
z
" style="fill: #ffffff"/>
  </g>
  <g id="axes_1">
   <g id="patch_2">
    <path d="M 7.2 345.6 
L 361.12397 345.6 
L 361.12397 7.2 
L 7.2 7.2 
z
" style="fill: #ffffff"/>
   </g>
   <g id="patch_3">
    <path d="M -446.550572 338.585508 
L 77.113401 213.279453 
L 84.600362 206.579603 
L 120.961753 167.664538 
L -229.137336 -241.427374 
z
" clip-path="url(#pef43199451)" style="fill: #a3a3a3; opacity: 0.2; stroke: #a3a3a3; stroke-linejoin: miter"/>
   </g>
   <g id="patch_4">
    <path d="M 84.600362 206.579603 
L 120.961753 167.664538 
L 149.700882 159.977072 
L 205.06583 184.398559 
L 175.37644 260.687198 
z
" clip-path="url(#pef43199451)" style="fill: #a3a3a3; opacity: 0.2; stroke: #a3a3a3; stroke-linejoin: miter"/>
   </g>
   <g id="patch_5">
    <path d="M 120.961753 167.664538 
L 149.700882 159.977072 
L 150.970926 150.533844 
L 34.887929 -375.251571 
L -229.137336 -241.427374 
z
" clip-path="url(#pef43199451)" style="fill: #a3a3a3; opacity: 0.2; stroke: #a3a3a3; stroke-linejoin: miter"/>
   </g>
   <g id="patch_6">
    <path d="M 179.199692 439.27484 
L 137.281375 976.088047 
L 848.319871 221.388501 
L 311.729064 176.713348 
L 303.104616 180.749526 
z
" clip-path="url(#pef43199451)" style="fill: #a3a3a3; opacity: 0.2; stroke: #a3a3a3; stroke-linejoin: miter"/>
   </g>
   <g id="patch_7">
    <path d="M 175.37644 260.687198 
L 205.06583 184.398559 
L 303.104616 180.749526 
L 179.199692 439.27484 
L 159.903356 338.76147 
z
" clip-path="url(#pef43199451)" style="fill: #a3a3a3; opacity: 0.2; stroke: #a3a3a3; stroke-linejoin: miter"/>
   </g>
   <g id="patch_8">
    <path d="M 231.471983 17.709419 
L 311.729064 176.713348 
L 848.319871 221.388501 
L 121.845555 -509.460014 
z
" clip-path="url(#pef43199451)" style="fill: #a3a3a3; opacity: 0.2; stroke: #a3a3a3; stroke-linejoin: miter"/>
   </g>
   <g id="patch_9">
    <path d="M 205.06583 184.398559 
L 303.104616 180.749526 
L 311.729064 176.713348 
L 231.471983 17.709419 
L 150.970926 150.533844 
L 149.700882 159.977072 
z
" clip-path="url(#pef43199451)" style="fill: #a3a3a3; opacity: 0.2; stroke: #a3a3a3; stroke-linejoin: miter"/>
   </g>
   <g id="patch_10">
    <path d="M 150.970926 150.533844 
L 231.471983 17.709419 
L 121.845555 -509.460014 
L 34.887929 -375.251571 
z
" clip-path="url(#pef43199451)" style="fill: #a3a3a3; opacity: 0.2; stroke: #a3a3a3; stroke-linejoin: miter"/>
   </g>
   <g id="patch_11">
    <path d="M 84.600362 206.579603 
L 175.37644 260.687198 
L 159.903356 338.76147 
L 77.113401 213.279453 
z
" clip-path="url(#pef43199451)" style="fill: #a3a3a3; opacity: 0.2; stroke: #a3a3a3; stroke-linejoin: miter"/>
   </g>
   <g id="patch_12">
    <path d="M 137.281375 976.088047 
L 179.199692 439.27484 
L 159.903356 338.76147 
L 77.113401 213.279453 
L -446.550572 338.585508 
z
" clip-path="url(#pef43199451)" style="fill: #a3a3a3; opacity: 0.2; stroke: #a3a3a3; stroke-linejoin: miter"/>
   </g>
   <g id="line2d_1">
    <path d="M 297.426713 302.980222 
L 211.382826 261.74147 
" clip-path="url(#pef43199451)" style="fill: none; stroke: #c4c4c4; stroke-linecap: square"/>
   </g>
   <g id="line2d_2">
    <path d="M 211.382826 261.74147 
L 83.562504 286.280135 
" clip-path="url(#pef43199451)" style="fill: none; stroke: #c4c4c4; stroke-linecap: square"/>
   </g>
   <g id="line2d_3">
    <path d="M 211.382826 261.74147 
L 205.61586 106.800055 
" clip-path="url(#pef43199451)" style="fill: none; stroke: #c4c4c4; stroke-linecap: square"/>
   </g>
   <g id="line2d_4">
    <path d="M 318.504193 49.819778 
L 164.456369 81.854474 
" clip-path="url(#pef43199451)" style="fill: none; stroke: #c4c4c4; stroke-linecap: square"/>
   </g>
   <g id="line2d_5">
    <path d="M 49.819778 145.266597 
L 109.822465 93.916557 
" clip-path="url(#pef43199451)" style="fill: none; stroke: #c4c4c4; stroke-linecap: square"/>
   </g>
   <g id="line2d_6">
    <path d="M 141.689515 247.92936 
L 83.562504 286.280135 
" clip-path="url(#pef43199451)" style="fill: none; stroke: #c4c4c4; stroke-linecap: square"/>
   </g>
   <g id="line2d_7">
    <path d="M 148.129484 237.125051 
L 205.61586 106.800055 
" clip-path="url(#pef43199451)" style="fill: none; stroke: #c4c4c4; stroke-linecap: square"/>
   </g>
   <g id="line2d_8">
    <path d="M 49.819778 145.266597 
L 141.689515 247.92936 
" clip-path="url(#pef43199451)" style="fill: none; stroke: #c4c4c4; stroke-linecap: square"/>
   </g>
   <g id="line2d_9">
    <path d="M 297.426713 302.980222 
L 83.562504 286.280135 
" clip-path="url(#pef43199451)" style="fill: none; stroke: #c4c4c4; stroke-linecap: square"/>
   </g>
   <g id="line2d_10">
    <path d="M 318.504193 49.819778 
L 205.61586 106.800055 
" clip-path="url(#pef43199451)" style="fill: none; stroke: #c4c4c4; stroke-linecap: square"/>
   </g>
   <g id="line2d_11">
    <path d="M 211.382826 261.74147 
L 141.689515 247.92936 
" clip-path="url(#pef43199451)" style="fill: none; stroke: #c4c4c4; stroke-linecap: square"/>
   </g>
   <g id="line2d_12">
    <path d="M 297.426713 302.980222 
L 205.61586 106.800055 
" clip-path="url(#pef43199451)" style="fill: none; stroke: #c4c4c4; stroke-linecap: square"/>
   </g>
   <g id="line2d_13">
    <path d="M 49.819778 145.266597 
L 148.129484 237.125051 
" clip-path="url(#pef43199451)" style="fill: none; stroke: #c4c4c4; stroke-linecap: square"/>
   </g>
   <g id="line2d_14">
    <path d="M 148.129484 237.125051 
L 109.822465 93.916557 
" clip-path="url(#pef43199451)" style="fill: none; stroke: #c4c4c4; stroke-linecap: square"/>
   </g>
   <g id="line2d_15">
    <path d="M 109.822465 93.916557 
L 164.456369 81.854474 
" clip-path="url(#pef43199451)" style="fill: none; stroke: #c4c4c4; stroke-linecap: square"/>
   </g>
   <g id="line2d_16">
    <path d="M 148.129484 237.125051 
L 141.689515 247.92936 
" clip-path="url(#pef43199451)" style="fill: none; stroke: #c4c4c4; stroke-linecap: square"/>
   </g>
   <g id="line2d_17">
    <path d="M 205.61586 106.800055 
L 164.456369 81.854474 
" clip-path="url(#pef43199451)" style="fill: none; stroke: #c4c4c4; stroke-linecap: square"/>
   </g>
   <g id="line2d_18">
    <path d="M 297.426713 302.980222 
L 318.504193 49.819778 
" clip-path="url(#pef43199451)" style="fill: none; stroke: #c4c4c4; stroke-linecap: square"/>
   </g>
   <g id="line2d_19">
    <path d="M 49.819778 145.266597 
L 83.562504 286.280135 
" clip-path="url(#pef43199451)" style="fill: none; stroke: #c4c4c4; stroke-linecap: square"/>
   </g>
   <g id="line2d_20">
    <path d="M 148.129484 237.125051 
L 211.382826 261.74147 
" clip-path="url(#pef43199451)" style="fill: none; stroke: #c4c4c4; stroke-linecap: square"/>
   </g>
   <g id="line2d_21">
    <path d="M 109.822465 93.916557 
L 205.61586 106.800055 
" clip-path="url(#pef43199451)" style="fill: none; stroke: #c4c4c4; stroke-linecap: square"/>
   </g>
   <g id="matplotlib.axis_1"/>
   <g id="matplotlib.axis_2"/>
   <g id="line2d_22">
    <defs>
     <path id="mc3550fc699" d="M 0 4 
C 1.060812 4 2.078319 3.578535 2.828427 2.828427 
C 3.578535 2.078319 4 1.060812 4 0 
C 4 -1.060812 3.578535 -2.078319 2.828427 -2.828427 
C 2.078319 -3.578535 1.060812 -4 0 -4 
C -1.060812 -4 -2.078319 -3.578535 -2.828427 -2.828427 
C -3.578535 -2.078319 -4 -1.060812 -4 0 
C -4 1.060812 -3.578535 2.078319 -2.828427 2.828427 
C -2.078319 3.578535 -1.060812 4 0 4 
z
" style="stroke: #404040"/>
    </defs>
    <g clip-path="url(#pef43199451)">
     <use xlink:href="#mc3550fc699" x="49.819778" y="145.266597" style="fill: #404040; stroke: #404040"/>
     <use xlink:href="#mc3550fc699" x="148.129484" y="237.125051" style="fill: #404040; stroke: #404040"/>
     <use xlink:href="#mc3550fc699" x="109.822465" y="93.916557" style="fill: #404040; stroke: #404040"/>
     <use xlink:href="#mc3550fc699" x="297.426713" y="302.980222" style="fill: #404040; stroke: #404040"/>
     <use xlink:href="#mc3550fc699" x="211.382826" y="261.74147" style="fill: #404040; stroke: #404040"/>
     <use xlink:href="#mc3550fc699" x="318.504193" y="49.819778" style="fill: #404040; stroke: #404040"/>
     <use xlink:href="#mc3550fc699" x="205.61586" y="106.800055" style="fill: #404040; stroke: #404040"/>
     <use xlink:href="#mc3550fc699" x="164.456369" y="81.854474" style="fill: #404040; stroke: #404040"/>
     <use xlink:href="#mc3550fc699" x="141.689515" y="247.92936" style="fill: #404040; stroke: #404040"/>
     <use xlink:href="#mc3550fc699" x="83.562504" y="286.280135" style="fill: #404040; stroke: #404040"/>
    </g>
   </g>
   <g id="patch_13">
    <path d="M 7.2 345.6 
L 7.2 7.2 
" style="fill: none; stroke: #000000; stroke-width: 0.8; stroke-linejoin: miter; stroke-linecap: square"/>
   </g>
   <g id="patch_14">
    <path d="M 361.12397 345.6 
L 361.12397 7.2 
" style="fill: none; stroke: #000000; stroke-width: 0.8; stroke-linejoin: miter; stroke-linecap: square"/>
   </g>
   <g id="patch_15">
    <path d="M 7.2 345.6 
L 361.12397 345.6 
" style="fill: none; stroke: #000000; stroke-width: 0.8; stroke-linejoin: miter; stroke-linecap: square"/>
   </g>
   <g id="patch_16">
    <path d="M 7.2 7.2 
L 361.12397 7.2 
" style="fill: none; stroke: #000000; stroke-width: 0.8; stroke-linejoin: miter; stroke-linecap: square"/>
   </g>
   <g id="patch_17">
    <path d="M 57.340622 138.830291 
Q 79.822509 119.590389 100.605516 101.804382 
" style="fill: none; stroke: #2a7f8e; stroke-width: 2; stroke-linecap: round"/>
    <path d="M 94.09634 103.426302 
L 100.605516 101.804382 
L 97.997546 107.984875 
" style="fill: none; stroke: #2a7f8e; stroke-width: 2; stroke-linecap: round"/>
   </g>
   <g id="patch_18">
    <path d="M 121.380349 95.471006 
Q 157.717363 100.358064 191.838262 104.947071 
" style="fill: none; stroke: #2a7f8e; stroke-width: 2; stroke-linecap: round"/>
    <path d="M 186.291679 101.174086 
L 191.838262 104.947071 
L 185.491924 107.120546 
" style="fill: none; stroke: #2a7f8e; stroke-width: 2; stroke-linecap: round"/>
   </g>
   <g id="text_1">
    <!-- start -->
    <g style="fill: #c9913a" transform="translate(39.819778 160.266597) scale(0.11 -0.11)">
     <defs>
      <path id="DejaVuSans-Bold-73" d="M 3272 3391 
L 3272 2541 
Q 2913 2691 2578 2766 
Q 2244 2841 1947 2841 
Q 1628 2841 1473 2761 
Q 1319 2681 1319 2516 
Q 1319 2381 1436 2309 
Q 1553 2238 1856 2203 
L 2053 2175 
Q 2913 2066 3209 1816 
Q 3506 1566 3506 1031 
Q 3506 472 3093 190 
Q 2681 -91 1863 -91 
Q 1516 -91 1145 -36 
Q 775 19 384 128 
L 384 978 
Q 719 816 1070 734 
Q 1422 653 1784 653 
Q 2113 653 2278 743 
Q 2444 834 2444 1013 
Q 2444 1163 2330 1236 
Q 2216 1309 1875 1350 
L 1678 1375 
Q 931 1469 631 1722 
Q 331 1975 331 2491 
Q 331 3047 712 3315 
Q 1094 3584 1881 3584 
Q 2191 3584 2531 3537 
Q 2872 3491 3272 3391 
z
" transform="scale(0.015625)"/>
      <path id="DejaVuSans-Bold-74" d="M 1759 4494 
L 1759 3500 
L 2913 3500 
L 2913 2700 
L 1759 2700 
L 1759 1216 
Q 1759 972 1856 886 
Q 1953 800 2241 800 
L 2816 800 
L 2816 0 
L 1856 0 
Q 1194 0 917 276 
Q 641 553 641 1216 
L 641 2700 
L 84 2700 
L 84 3500 
L 641 3500 
L 641 4494 
L 1759 4494 
z
" transform="scale(0.015625)"/>
      <path id="DejaVuSans-Bold-61" d="M 2106 1575 
Q 1756 1575 1579 1456 
Q 1403 1338 1403 1106 
Q 1403 894 1545 773 
Q 1688 653 1941 653 
Q 2256 653 2472 879 
Q 2688 1106 2688 1447 
L 2688 1575 
L 2106 1575 
z
M 3816 1997 
L 3816 0 
L 2688 0 
L 2688 519 
Q 2463 200 2181 54 
Q 1900 -91 1497 -91 
Q 953 -91 614 226 
Q 275 544 275 1050 
Q 275 1666 698 1953 
Q 1122 2241 2028 2241 
L 2688 2241 
L 2688 2328 
Q 2688 2594 2478 2717 
Q 2269 2841 1825 2841 
Q 1466 2841 1156 2769 
Q 847 2697 581 2553 
L 581 3406 
Q 941 3494 1303 3539 
Q 1666 3584 2028 3584 
Q 2975 3584 3395 3211 
Q 3816 2838 3816 1997 
z
" transform="scale(0.015625)"/>
      <path id="DejaVuSans-Bold-72" d="M 3138 2547 
Q 2991 2616 2845 2648 
Q 2700 2681 2553 2681 
Q 2122 2681 1889 2404 
Q 1656 2128 1656 1613 
L 1656 0 
L 538 0 
L 538 3500 
L 1656 3500 
L 1656 2925 
Q 1872 3269 2151 3426 
Q 2431 3584 2822 3584 
Q 2878 3584 2943 3579 
Q 3009 3575 3134 3559 
L 3138 2547 
z
" transform="scale(0.015625)"/>
     </defs>
     <use xlink:href="#DejaVuSans-Bold-73"/>
     <use xlink:href="#DejaVuSans-Bold-74" transform="translate(59.521484 0)"/>
     <use xlink:href="#DejaVuSans-Bold-61" transform="translate(107.324219 0)"/>
     <use xlink:href="#DejaVuSans-Bold-72" transform="translate(174.804688 0)"/>
     <use xlink:href="#DejaVuSans-Bold-74" transform="translate(224.121094 0)"/>
    </g>
   </g>
   <g id="text_2">
    <!-- $p$ -->
    <g style="fill: #5a8a6e" transform="translate(190.61586 98.800055) scale(0.14 -0.14)">
     <defs>
      <path id="DejaVuSans-Oblique-70" d="M 3175 2156 
Q 3175 2616 2975 2859 
Q 2775 3103 2400 3103 
Q 2144 3103 1911 2972 
Q 1678 2841 1497 2591 
Q 1319 2344 1212 1994 
Q 1106 1644 1106 1300 
Q 1106 863 1306 627 
Q 1506 391 1875 391 
Q 2147 391 2380 519 
Q 2613 647 2778 891 
Q 2956 1147 3065 1494 
Q 3175 1841 3175 2156 
z
M 1394 2969 
Q 1625 3272 1939 3428 
Q 2253 3584 2638 3584 
Q 3175 3584 3472 3232 
Q 3769 2881 3769 2247 
Q 3769 1728 3584 1258 
Q 3400 788 3053 416 
Q 2822 169 2531 39 
Q 2241 -91 1919 -91 
Q 1547 -91 1294 64 
Q 1041 219 916 525 
L 556 -1331 
L -19 -1331 
L 922 3500 
L 1497 3500 
L 1394 2969 
z
" transform="scale(0.015625)"/>
     </defs>
     <use xlink:href="#DejaVuSans-Oblique-70"/>
    </g>
   </g>
   <g id="text_3">
    <!-- $q$ -->
    <g style="fill: #a8495a" transform="translate(231.219258 78.421697) scale(0.14 -0.14)">
     <defs>
      <path id="DejaVuSans-Oblique-71" d="M 2669 525 
Q 2438 222 2123 65 
Q 1809 -91 1428 -91 
Q 897 -91 595 267 
Q 294 625 294 1253 
Q 294 1759 480 2231 
Q 666 2703 1013 3078 
Q 1238 3322 1530 3453 
Q 1822 3584 2144 3584 
Q 2531 3584 2781 3431 
Q 3031 3278 3144 2969 
L 3244 3494 
L 3822 3494 
L 2888 -1319 
L 2309 -1319 
L 2669 525 
z
M 891 1338 
Q 891 875 1084 633 
Q 1278 391 1644 391 
Q 2188 391 2572 911 
Q 2956 1431 2956 2175 
Q 2956 2625 2757 2864 
Q 2559 3103 2188 3103 
Q 1916 3103 1684 2976 
Q 1453 2850 1281 2606 
Q 1100 2350 995 2006 
Q 891 1663 891 1338 
z
" transform="scale(0.015625)"/>
     </defs>
     <use xlink:href="#DejaVuSans-Oblique-71"/>
    </g>
   </g>
   <g id="line2d_23">
    <defs>
     <path id="me2cfc1d8d8" d="M 0 4 
C 1.060812 4 2.078319 3.578535 2.828427 2.828427 
C 3.578535 2.078319 4 1.060812 4 0 
C 4 -1.060812 3.578535 -2.078319 2.828427 -2.828427 
C 2.078319 -3.578535 1.060812 -4 0 -4 
C -1.060812 -4 -2.078319 -3.578535 -2.828427 -2.828427 
C -3.578535 -2.078319 -4 -1.060812 -4 0 
C -4 1.060812 -3.578535 2.078319 -2.828427 2.828427 
C -2.078319 3.578535 -1.060812 4 0 4 
z
" style="stroke: #c9913a"/>
    </defs>
    <g clip-path="url(#pef43199451)">
     <use xlink:href="#me2cfc1d8d8" x="49.819778" y="145.266597" style="fill: #c9913a; stroke: #c9913a"/>
    </g>
   </g>
   <g id="line2d_24">
    <defs>
     <path id="md067e1c175" d="M 0 4 
C 1.060812 4 2.078319 3.578535 2.828427 2.828427 
C 3.578535 2.078319 4 1.060812 4 0 
C 4 -1.060812 3.578535 -2.078319 2.828427 -2.828427 
C 2.078319 -3.578535 1.060812 -4 0 -4 
C -1.060812 -4 -2.078319 -3.578535 -2.828427 -2.828427 
C -3.578535 -2.078319 -4 -1.060812 -4 0 
C -4 1.060812 -3.578535 2.078319 -2.828427 2.828427 
C -2.078319 3.578535 -1.060812 4 0 4 
z
" style="stroke: #5a8a6e"/>
    </defs>
    <g clip-path="url(#pef43199451)">
     <use xlink:href="#md067e1c175" x="205.61586" y="106.800055" style="fill: #5a8a6e; stroke: #5a8a6e"/>
    </g>
   </g>
   <g id="line2d_25">
    <defs>
     <path id="m2509fc3d5a" d="M 0 4 
C 1.060812 4 2.078319 3.578535 2.828427 2.828427 
C 3.578535 2.078319 4 1.060812 4 0 
C 4 -1.060812 3.578535 -2.078319 2.828427 -2.828427 
C 2.078319 -3.578535 1.060812 -4 0 -4 
C -1.060812 -4 -2.078319 -3.578535 -2.828427 -2.828427 
C -3.578535 -2.078319 -4 -1.060812 -4 0 
C -4 1.060812 -3.578535 2.078319 -2.828427 2.828427 
C -2.078319 3.578535 -1.060812 4 0 4 
z
" style="stroke: #a8495a"/>
    </defs>
    <g clip-path="url(#pef43199451)">
     <use xlink:href="#m2509fc3d5a" x="223.219258" y="86.421697" style="fill: #a8495a; stroke: #a8495a"/>
    </g>
   </g>
  </g>
 </g>
 <defs>
  <clipPath id="pef43199451">
   <rect x="7.2" y="7.2" width="353.92397" height="338.4"/>
  </clipPath>
 </defs>
</svg>
