<?xml version="1.0" encoding="utf-8" standalone="no"?>
<!DOCTYPE svg PUBLIC "-//W3C//DTD SVG 1.1//EN"
  "http://www.w3.org/Graphics/SVG/1.1/DTD/svg11.dtd">
<svg xmlns:xlink="http://www.w3.org/1999/xlink" width="368.32397pt" height="352.8pt" viewBox="0 0 368.32397 352.8" xmlns="http://www.w3.org/2000/svg" version="1.1">
 <metadata>
  <rdf:RDF xmlns:dc="http://purl.org/dc/elements/1.1/" xmlns:cc="http://creativecommons.org/ns#" xmlns:rdf="http://www.w3.org/1999/02/22-rdf-syntax-ns#">
   <cc:Work>
    <dc:type rdf:resource="http://purl.org/dc/dcmitype/StillImage"/>
    <dc:date>2026-02-06T20:13:40.418639</dc:date>
    <dc:format>image/svg+xml</dc:format>
    <dc:creator>
     <cc:Agent>
      <dc:title>Matplotlib v3.10.8, https://matplotlib.org/</dc:title>
     </cc:Agent>
    </dc:creator>
   </cc:Work>
  </rdf:RDF>
 </metadata>
 <defs>
  <style type="text/css">*{stroke-linejoin: round; stroke-linecap: butt}</style>
 </defs>
 <g id="figure_1">
  <g id="patch_1">
   <path d="M 0 352.8 
L 368.32397 352.8 
L 368.32397 0 
L 0 0 
z
" style="fill: #ffffff"/>
  </g>
  <g id="axes_1">
   <g id="patch_2">
    <path d="M 7.2 345.6 
L 361.12397 345.6 
L 361.12397 7.2 
L 7.2 7.2 
z
" style="fill: #ffffff"/>
   </g>
   <g id="patch_3">
    <path d="M -446.550572 338.585508 
L 77.113401 213.279453 
L 84.600362 206.579603 
L 120.961753 167.664538 
L -229.137336 -241.427374 
z
" clip-path="url(#p2b6e3ac4ac)" style="fill: #a3a3a3; opacity: 0.1; stroke: #a3a3a3; stroke-linejoin: miter"/>
   </g>
   <g id="patch_4">
    <path d="M 84.600362 206.579603 
L 120.961753 167.664538 
L 149.700882 159.977072 
L 205.06583 184.398559 
L 175.37644 260.687198 
z
" clip-path="url(#p2b6e3ac4ac)" style="fill: #a3a3a3; opacity: 0.1; stroke: #a3a3a3; stroke-linejoin: miter"/>
   </g>
   <g id="patch_5">
    <path d="M 120.961753 167.664538 
L 149.700882 159.977072 
L 150.970926 150.533844 
L 34.887929 -375.251571 
L -229.137336 -241.427374 
z
" clip-path="url(#p2b6e3ac4ac)" style="fill: #a3a3a3; opacity: 0.1; stroke: #a3a3a3; stroke-linejoin: miter"/>
   </g>
   <g id="patch_6">
    <path d="M 179.199692 439.27484 
L 137.281375 976.088047 
L 848.319871 221.388501 
L 311.729064 176.713348 
L 303.104616 180.749526 
z
" clip-path="url(#p2b6e3ac4ac)" style="fill: #a3a3a3; opacity: 0.1; stroke: #a3a3a3; stroke-linejoin: miter"/>
   </g>
   <g id="patch_7">
    <path d="M 175.37644 260.687198 
L 205.06583 184.398559 
L 303.104616 180.749526 
L 179.199692 439.27484 
L 159.903356 338.76147 
z
" clip-path="url(#p2b6e3ac4ac)" style="fill: #a3a3a3; opacity: 0.1; stroke: #a3a3a3; stroke-linejoin: miter"/>
   </g>
   <g id="patch_8">
    <path d="M 231.471983 17.709419 
L 311.729064 176.713348 
L 848.319871 221.388501 
L 121.845555 -509.460014 
z
" clip-path="url(#p2b6e3ac4ac)" style="fill: #a3a3a3; opacity: 0.1; stroke: #a3a3a3; stroke-linejoin: miter"/>
   </g>
   <g id="patch_9">
    <path d="M 205.06583 184.398559 
L 303.104616 180.749526 
L 311.729064 176.713348 
L 231.471983 17.709419 
L 150.970926 150.533844 
L 149.700882 159.977072 
z
" clip-path="url(#p2b6e3ac4ac)" style="fill: #a3a3a3; opacity: 0.1; stroke: #a3a3a3; stroke-linejoin: miter"/>
   </g>
   <g id="patch_10">
    <path d="M 150.970926 150.533844 
L 231.471983 17.709419 
L 121.845555 -509.460014 
L 34.887929 -375.251571 
z
" clip-path="url(#p2b6e3ac4ac)" style="fill: #a3a3a3; opacity: 0.1; stroke: #a3a3a3; stroke-linejoin: miter"/>
   </g>
   <g id="patch_11">
    <path d="M 84.600362 206.579603 
L 175.37644 260.687198 
L 159.903356 338.76147 
L 77.113401 213.279453 
z
" clip-path="url(#p2b6e3ac4ac)" style="fill: #a3a3a3; opacity: 0.1; stroke: #a3a3a3; stroke-linejoin: miter"/>
   </g>
   <g id="patch_12">
    <path d="M 137.281375 976.088047 
L 179.199692 439.27484 
L 159.903356 338.76147 
L 77.113401 213.279453 
L -446.550572 338.585508 
z
" clip-path="url(#p2b6e3ac4ac)" style="fill: #a3a3a3; opacity: 0.1; stroke: #a3a3a3; stroke-linejoin: miter"/>
   </g>
   <g id="line2d_1">
    <path d="M 297.426713 302.980222 
L 211.382826 261.74147 
" clip-path="url(#p2b6e3ac4ac)" style="fill: none; stroke: #c4c4c4; stroke-linecap: square"/>
   </g>
   <g id="line2d_2">
    <path d="M 211.382826 261.74147 
L 83.562504 286.280135 
" clip-path="url(#p2b6e3ac4ac)" style="fill: none; stroke: #c4c4c4; stroke-linecap: square"/>
   </g>
   <g id="line2d_3">
    <path d="M 211.382826 261.74147 
L 205.61586 106.800055 
" clip-path="url(#p2b6e3ac4ac)" style="fill: none; stroke: #c4c4c4; stroke-linecap: square"/>
   </g>
   <g id="line2d_4">
    <path d="M 318.504193 49.819778 
L 164.456369 81.854474 
" clip-path="url(#p2b6e3ac4ac)" style="fill: none; stroke: #c4c4c4; stroke-linecap: square"/>
   </g>
   <g id="line2d_5">
    <path d="M 49.819778 145.266597 
L 109.822465 93.916557 
" clip-path="url(#p2b6e3ac4ac)" style="fill: none; stroke: #c4c4c4; stroke-linecap: square"/>
   </g>
   <g id="line2d_6">
    <path d="M 141.689515 247.92936 
L 83.562504 286.280135 
" clip-path="url(#p2b6e3ac4ac)" style="fill: none; stroke: #c4c4c4; stroke-linecap: square"/>
   </g>
   <g id="line2d_7">
    <path d="M 148.129484 237.125051 
L 205.61586 106.800055 
" clip-path="url(#p2b6e3ac4ac)" style="fill: none; stroke: #c4c4c4; stroke-linecap: square"/>
   </g>
   <g id="line2d_8">
    <path d="M 49.819778 145.266597 
L 141.689515 247.92936 
" clip-path="url(#p2b6e3ac4ac)" style="fill: none; stroke: #c4c4c4; stroke-linecap: square"/>
   </g>
   <g id="line2d_9">
    <path d="M 297.426713 302.980222 
L 83.562504 286.280135 
" clip-path="url(#p2b6e3ac4ac)" style="fill: none; stroke: #c4c4c4; stroke-linecap: square"/>
   </g>
   <g id="line2d_10">
    <path d="M 318.504193 49.819778 
L 205.61586 106.800055 
" clip-path="url(#p2b6e3ac4ac)" style="fill: none; stroke: #c4c4c4; stroke-linecap: square"/>
   </g>
   <g id="line2d_11">
    <path d="M 211.382826 261.74147 
L 141.689515 247.92936 
" clip-path="url(#p2b6e3ac4ac)" style="fill: none; stroke: #c4c4c4; stroke-linecap: square"/>
   </g>
   <g id="line2d_12">
    <path d="M 297.426713 302.980222 
L 205.61586 106.800055 
" clip-path="url(#p2b6e3ac4ac)" style="fill: none; stroke: #c4c4c4; stroke-linecap: square"/>
   </g>
   <g id="line2d_13">
    <path d="M 49.819778 145.266597 
L 148.129484 237.125051 
" clip-path="url(#p2b6e3ac4ac)" style="fill: none; stroke: #c4c4c4; stroke-linecap: square"/>
   </g>
   <g id="line2d_14">
    <path d="M 148.129484 237.125051 
L 109.822465 93.916557 
" clip-path="url(#p2b6e3ac4ac)" style="fill: none; stroke: #c4c4c4; stroke-linecap: square"/>
   </g>
   <g id="line2d_15">
    <path d="M 109.822465 93.916557 
L 164.456369 81.854474 
" clip-path="url(#p2b6e3ac4ac)" style="fill: none; stroke: #c4c4c4; stroke-linecap: square"/>
   </g>
   <g id="line2d_16">
    <path d="M 148.129484 237.125051 
L 141.689515 247.92936 
" clip-path="url(#p2b6e3ac4ac)" style="fill: none; stroke: #c4c4c4; stroke-linecap: square"/>
   </g>
   <g id="line2d_17">
    <path d="M 205.61586 106.800055 
L 164.456369 81.854474 
" clip-path="url(#p2b6e3ac4ac)" style="fill: none; stroke: #c4c4c4; stroke-linecap: square"/>
   </g>
   <g id="line2d_18">
    <path d="M 297.426713 302.980222 
L 318.504193 49.819778 
" clip-path="url(#p2b6e3ac4ac)" style="fill: none; stroke: #c4c4c4; stroke-linecap: square"/>
   </g>
   <g id="line2d_19">
    <path d="M 49.819778 145.266597 
L 83.562504 286.280135 
" clip-path="url(#p2b6e3ac4ac)" style="fill: none; stroke: #c4c4c4; stroke-linecap: square"/>
   </g>
   <g id="line2d_20">
    <path d="M 148.129484 237.125051 
L 211.382826 261.74147 
" clip-path="url(#p2b6e3ac4ac)" style="fill: none; stroke: #c4c4c4; stroke-linecap: square"/>
   </g>
   <g id="line2d_21">
    <path d="M 109.822465 93.916557 
L 205.61586 106.800055 
" clip-path="url(#p2b6e3ac4ac)" style="fill: none; stroke: #c4c4c4; stroke-linecap: square"/>
   </g>
   <g id="line2d_22">
    <path d="M 141.689515 247.92936 
L 297.426713 302.980222 
" clip-path="url(#p2b6e3ac4ac)" style="fill: none; stroke-dasharray: 5.55,2.4; stroke-dashoffset: 0; stroke: #b5942a; stroke-opacity: 0.7; stroke-width: 1.5"/>
   </g>
   <g id="line2d_23">
    <path d="M 318.504193 49.819778 
L 211.382826 261.74147 
" clip-path="url(#p2b6e3ac4ac)" style="fill: none; stroke-dasharray: 5.55,2.4; stroke-dashoffset: 0; stroke: #b5942a; stroke-opacity: 0.7; stroke-width: 1.5"/>
   </g>
   <g id="line2d_24">
    <path d="M 141.689515 247.92936 
L 205.61586 106.800055 
" clip-path="url(#p2b6e3ac4ac)" style="fill: none; stroke-dasharray: 5.55,2.4; stroke-dashoffset: 0; stroke: #b5942a; stroke-opacity: 0.7; stroke-width: 1.5"/>
   </g>
   <g id="line2d_25">
    <path d="M 49.819778 145.266597 
L 205.61586 106.800055 
" clip-path="url(#p2b6e3ac4ac)" style="fill: none; stroke-dasharray: 5.55,2.4; stroke-dashoffset: 0; stroke: #b5942a; stroke-opacity: 0.7; stroke-width: 1.5"/>
   </g>
   <g id="line2d_26">
    <path d="M 148.129484 237.125051 
L 83.562504 286.280135 
" clip-path="url(#p2b6e3ac4ac)" style="fill: none; stroke-dasharray: 5.55,2.4; stroke-dashoffset: 0; stroke: #b5942a; stroke-opacity: 0.7; stroke-width: 1.5"/>
   </g>
   <g id="line2d_27">
    <path d="M 148.129484 237.125051 
L 318.504193 49.819778 
" clip-path="url(#p2b6e3ac4ac)" style="fill: none; stroke-dasharray: 5.55,2.4; stroke-dashoffset: 0; stroke: #b5942a; stroke-opacity: 0.7; stroke-width: 1.5"/>
   </g>
   <g id="matplotlib.axis_1"/>
   <g id="matplotlib.axis_2"/>
   <g id="line2d_28">
    <defs>
     <path id="mce6c3a2281" d="M 0 4 
C 1.060812 4 2.078319 3.578535 2.828427 2.828427 
C 3.578535 2.078319 4 1.060812 4 0 
C 4 -1.060812 3.578535 -2.078319 2.828427 -2.828427 
C 2.078319 -3.578535 1.060812 -4 0 -4 
C -1.060812 -4 -2.078319 -3.578535 -2.828427 -2.828427 
C -3.578535 -2.078319 -4 -1.060812 -4 0 
C -4 1.060812 -3.578535 2.078319 -2.828427 2.828427 
C -2.078319 3.578535 -1.060812 4 0 4 
z
" style="stroke: #404040"/>
    </defs>
    <g clip-path="url(#p2b6e3ac4ac)">
     <use xlink:href="#mce6c3a2281" x="49.819778" y="145.266597" style="fill: #404040; stroke: #404040"/>
     <use xlink:href="#mce6c3a2281" x="148.129484" y="237.125051" style="fill: #404040; stroke: #404040"/>
     <use xlink:href="#mce6c3a2281" x="109.822465" y="93.916557" style="fill: #404040; stroke: #404040"/>
     <use xlink:href="#mce6c3a2281" x="297.426713" y="302.980222" style="fill: #404040; stroke: #404040"/>
     <use xlink:href="#mce6c3a2281" x="211.382826" y="261.74147" style="fill: #404040; stroke: #404040"/>
     <use xlink:href="#mce6c3a2281" x="318.504193" y="49.819778" style="fill: #404040; stroke: #404040"/>
     <use xlink:href="#mce6c3a2281" x="205.61586" y="106.800055" style="fill: #404040; stroke: #404040"/>
     <use xlink:href="#mce6c3a2281" x="164.456369" y="81.854474" style="fill: #404040; stroke: #404040"/>
     <use xlink:href="#mce6c3a2281" x="141.689515" y="247.92936" style="fill: #404040; stroke: #404040"/>
     <use xlink:href="#mce6c3a2281" x="83.562504" y="286.280135" style="fill: #404040; stroke: #404040"/>
    </g>
   </g>
   <g id="patch_13">
    <path d="M 7.2 345.6 
L 7.2 7.2 
" style="fill: none; stroke: #000000; stroke-width: 0.8; stroke-linejoin: miter; stroke-linecap: square"/>
   </g>
   <g id="patch_14">
    <path d="M 361.12397 345.6 
L 361.12397 7.2 
" style="fill: none; stroke: #000000; stroke-width: 0.8; stroke-linejoin: miter; stroke-linecap: square"/>
   </g>
   <g id="patch_15">
    <path d="M 7.2 345.6 
L 361.12397 345.6 
" style="fill: none; stroke: #000000; stroke-width: 0.8; stroke-linejoin: miter; stroke-linecap: square"/>
   </g>
   <g id="patch_16">
    <path d="M 7.2 7.2 
L 361.12397 7.2 
" style="fill: none; stroke: #000000; stroke-width: 0.8; stroke-linejoin: miter; stroke-linecap: square"/>
   </g>
   <g id="patch_17">
    <path d="M 67.343033 140.94005 
Q 127.717996 126.033282 185.379363 111.79651 
" style="fill: none; stroke: #d4b545; stroke-width: 2.5; stroke-linecap: round"/>
    <path d="M 178.835174 110.322201 
L 185.379363 111.79651 
L 180.273403 116.147276 
" style="fill: none; stroke: #d4b545; stroke-width: 2.5; stroke-linecap: round"/>
   </g>
   <g id="patch_18">
    <path d="M 218.687866 100.201973 
Q 262.058719 78.310576 302.93433 57.678651 
" style="fill: none; stroke: #2a7f8e; stroke-width: 2.5; stroke-linecap: round"/>
    <path d="M 296.226174 57.704088 
L 302.93433 57.678651 
L 298.929787 63.060438 
" style="fill: none; stroke: #2a7f8e; stroke-width: 2.5; stroke-linecap: round"/>
   </g>
   <g id="text_1">
    <!-- start -->
    <g style="fill: #c9913a" transform="translate(39.819778 160.266597) scale(0.11 -0.11)">
     <defs>
      <path id="DejaVuSans-Bold-73" d="M 3272 3391 
L 3272 2541 
Q 2913 2691 2578 2766 
Q 2244 2841 1947 2841 
Q 1628 2841 1473 2761 
Q 1319 2681 1319 2516 
Q 1319 2381 1436 2309 
Q 1553 2238 1856 2203 
L 2053 2175 
Q 2913 2066 3209 1816 
Q 3506 1566 3506 1031 
Q 3506 472 3093 190 
Q 2681 -91 1863 -91 
Q 1516 -91 1145 -36 
Q 775 19 384 128 
L 384 978 
Q 719 816 1070 734 
Q 1422 653 1784 653 
Q 2113 653 2278 743 
Q 2444 834 2444 1013 
Q 2444 1163 2330 1236 
Q 2216 1309 1875 1350 
L 1678 1375 
Q 931 1469 631 1722 
Q 331 1975 331 2491 
Q 331 3047 712 3315 
Q 1094 3584 1881 3584 
Q 2191 3584 2531 3537 
Q 2872 3491 3272 3391 
z
" transform="scale(0.015625)"/>
      <path id="DejaVuSans-Bold-74" d="M 1759 4494 
L 1759 3500 
L 2913 3500 
L 2913 2700 
L 1759 2700 
L 1759 1216 
Q 1759 972 1856 886 
Q 1953 800 2241 800 
L 2816 800 
L 2816 0 
L 1856 0 
Q 1194 0 917 276 
Q 641 553 641 1216 
L 641 2700 
L 84 2700 
L 84 3500 
L 641 3500 
L 641 4494 
L 1759 4494 
z
" transform="scale(0.015625)"/>
      <path id="DejaVuSans-Bold-61" d="M 2106 1575 
Q 1756 1575 1579 1456 
Q 1403 1338 1403 1106 
Q 1403 894 1545 773 
Q 1688 653 1941 653 
Q 2256 653 2472 879 
Q 2688 1106 2688 1447 
L 2688 1575 
L 2106 1575 
z
M 3816 1997 
L 3816 0 
L 2688 0 
L 2688 519 
Q 2463 200 2181 54 
Q 1900 -91 1497 -91 
Q 953 -91 614 226 
Q 275 544 275 1050 
Q 275 1666 698 1953 
Q 1122 2241 2028 2241 
L 2688 2241 
L 2688 2328 
Q 2688 2594 2478 2717 
Q 2269 2841 1825 2841 
Q 1466 2841 1156 2769 
Q 847 2697 581 2553 
L 581 3406 
Q 941 3494 1303 3539 
Q 1666 3584 2028 3584 
Q 2975 3584 3395 3211 
Q 3816 2838 3816 1997 
z
" transform="scale(0.015625)"/>
      <path id="DejaVuSans-Bold-72" d="M 3138 2547 
Q 2991 2616 2845 2648 
Q 2700 2681 2553 2681 
Q 2122 2681 1889 2404 
Q 1656 2128 1656 1613 
L 1656 0 
L 538 0 
L 538 3500 
L 1656 3500 
L 1656 2925 
Q 1872 3269 2151 3426 
Q 2431 3584 2822 3584 
Q 2878 3584 2943 3579 
Q 3009 3575 3134 3559 
L 3138 2547 
z
" transform="scale(0.015625)"/>
     </defs>
     <use xlink:href="#DejaVuSans-Bold-73"/>
     <use xlink:href="#DejaVuSans-Bold-74" transform="translate(59.521484 0)"/>
     <use xlink:href="#DejaVuSans-Bold-61" transform="translate(107.324219 0)"/>
     <use xlink:href="#DejaVuSans-Bold-72" transform="translate(174.804688 0)"/>
     <use xlink:href="#DejaVuSans-Bold-74" transform="translate(224.121094 0)"/>
    </g>
   </g>
   <g id="text_2">
    <!-- $p$ -->
    <g style="fill: #5a8a6e" transform="translate(303.504193 41.819778) scale(0.14 -0.14)">
     <defs>
      <path id="DejaVuSans-Oblique-70" d="M 3175 2156 
Q 3175 2616 2975 2859 
Q 2775 3103 2400 3103 
Q 2144 3103 1911 2972 
Q 1678 2841 1497 2591 
Q 1319 2344 1212 1994 
Q 1106 1644 1106 1300 
Q 1106 863 1306 627 
Q 1506 391 1875 391 
Q 2147 391 2380 519 
Q 2613 647 2778 891 
Q 2956 1147 3065 1494 
Q 3175 1841 3175 2156 
z
M 1394 2969 
Q 1625 3272 1939 3428 
Q 2253 3584 2638 3584 
Q 3175 3584 3472 3232 
Q 3769 2881 3769 2247 
Q 3769 1728 3584 1258 
Q 3400 788 3053 416 
Q 2822 169 2531 39 
Q 2241 -91 1919 -91 
Q 1547 -91 1294 64 
Q 1041 219 916 525 
L 556 -1331 
L -19 -1331 
L 922 3500 
L 1497 3500 
L 1394 2969 
z
" transform="scale(0.015625)"/>
     </defs>
     <use xlink:href="#DejaVuSans-Oblique-70"/>
    </g>
   </g>
   <g id="text_3">
    <!-- $q$ -->
    <g style="fill: #a8495a" transform="translate(337.768702 57.111808) scale(0.14 -0.14)">
     <defs>
      <path id="DejaVuSans-Oblique-71" d="M 2669 525 
Q 2438 222 2123 65 
Q 1809 -91 1428 -91 
Q 897 -91 595 267 
Q 294 625 294 1253 
Q 294 1759 480 2231 
Q 666 2703 1013 3078 
Q 1238 3322 1530 3453 
Q 1822 3584 2144 3584 
Q 2531 3584 2781 3431 
Q 3031 3278 3144 2969 
L 3244 3494 
L 3822 3494 
L 2888 -1319 
L 2309 -1319 
L 2669 525 
z
M 891 1338 
Q 891 875 1084 633 
Q 1278 391 1644 391 
Q 2188 391 2572 911 
Q 2956 1431 2956 2175 
Q 2956 2625 2757 2864 
Q 2559 3103 2188 3103 
Q 1916 3103 1684 2976 
Q 1453 2850 1281 2606 
Q 1100 2350 995 2006 
Q 891 1663 891 1338 
z
" transform="scale(0.015625)"/>
     </defs>
     <use xlink:href="#DejaVuSans-Oblique-71"/>
    </g>
   </g>
   <g id="line2d_29">
    <defs>
     <path id="m5464078973" d="M 0 5 
C 1.326016 5 2.597899 4.473168 3.535534 3.535534 
C 4.473168 2.597899 5 1.326016 5 0 
C 5 -1.326016 4.473168 -2.597899 3.535534 -3.535534 
C 2.597899 -4.473168 1.326016 -5 0 -5 
C -1.326016 -5 -2.597899 -4.473168 -3.535534 -3.535534 
C -4.473168 -2.597899 -5 -1.326016 -5 0 
C -5 1.326016 -4.473168 2.597899 -3.535534 3.535534 
C -2.597899 4.473168 -1.326016 5 0 5 
z
" style="stroke: #c9913a"/>
    </defs>
    <g clip-path="url(#p2b6e3ac4ac)">
     <use xlink:href="#m5464078973" x="49.819778" y="145.266597" style="fill: #c9913a; stroke: #c9913a"/>
    </g>
   </g>
   <g id="line2d_30">
    <defs>
     <path id="md6a5726242" d="M 0 5 
C 1.326016 5 2.597899 4.473168 3.535534 3.535534 
C 4.473168 2.597899 5 1.326016 5 0 
C 5 -1.326016 4.473168 -2.597899 3.535534 -3.535534 
C 2.597899 -4.473168 1.326016 -5 0 -5 
C -1.326016 -5 -2.597899 -4.473168 -3.535534 -3.535534 
C -4.473168 -2.597899 -5 -1.326016 -5 0 
C -5 1.326016 -4.473168 2.597899 -3.535534 3.535534 
C -2.597899 4.473168 -1.326016 5 0 5 
z
" style="stroke: #5a8a6e"/>
    </defs>
    <g clip-path="url(#p2b6e3ac4ac)">
     <use xlink:href="#md6a5726242" x="318.504193" y="49.819778" style="fill: #5a8a6e; stroke: #5a8a6e"/>
    </g>
   </g>
   <g id="line2d_31">
    <defs>
     <path id="mccff3d47b3" d="M 0 5 
C 1.326016 5 2.597899 4.473168 3.535534 3.535534 
C 4.473168 2.597899 5 1.326016 5 0 
C 5 -1.326016 4.473168 -2.597899 3.535534 -3.535534 
C 2.597899 -4.473168 1.326016 -5 0 -5 
C -1.326016 -5 -2.597899 -4.473168 -3.535534 -3.535534 
C -4.473168 -2.597899 -5 -1.326016 -5 0 
C -5 1.326016 -4.473168 2.597899 -3.535534 3.535534 
C -2.597899 4.473168 -1.326016 5 0 5 
z
" style="stroke: #a8495a"/>
    </defs>
    <g clip-path="url(#p2b6e3ac4ac)">
     <use xlink:href="#mccff3d47b3" x="329.768702" y="65.111808" style="fill: #a8495a; stroke: #a8495a"/>
    </g>
   </g>
   <g id="legend_1">
    <g id="patch_19">
     <path d="M 239.164595 340.6 
L 354.12397 340.6 
Q 356.12397 340.6 356.12397 338.6 
L 356.12397 310.24375 
Q 356.12397 308.24375 354.12397 308.24375 
L 239.164595 308.24375 
Q 237.164595 308.24375 237.164595 310.24375 
L 237.164595 338.6 
Q 237.164595 340.6 239.164595 340.6 
z
" style="fill: #ffffff; opacity: 0.9; stroke: #cccccc; stroke-linejoin: miter"/>
    </g>
    <g id="line2d_32">
     <path d="M 241.164595 316.342187 
L 251.164595 316.342187 
L 261.164595 316.342187 
" style="fill: none; stroke: #c4c4c4; stroke-linecap: square"/>
    </g>
    <g id="text_4">
     <!-- Local edges -->
     <g transform="translate(269.164595 319.842187) scale(0.1 -0.1)">
      <defs>
       <path id="DejaVuSans-4c" d="M 628 4666 
L 1259 4666 
L 1259 531 
L 3531 531 
L 3531 0 
L 628 0 
L 628 4666 
z
" transform="scale(0.015625)"/>
       <path id="DejaVuSans-6f" d="M 1959 3097 
Q 1497 3097 1228 2736 
Q 959 2375 959 1747 
Q 959 1119 1226 758 
Q 1494 397 1959 397 
Q 2419 397 2687 759 
Q 2956 1122 2956 1747 
Q 2956 2369 2687 2733 
Q 2419 3097 1959 3097 
z
M 1959 3584 
Q 2709 3584 3137 3096 
Q 3566 2609 3566 1747 
Q 3566 888 3137 398 
Q 2709 -91 1959 -91 
Q 1206 -91 779 398 
Q 353 888 353 1747 
Q 353 2609 779 3096 
Q 1206 3584 1959 3584 
z
" transform="scale(0.015625)"/>
       <path id="DejaVuSans-63" d="M 3122 3366 
L 3122 2828 
Q 2878 2963 2633 3030 
Q 2388 3097 2138 3097 
Q 1578 3097 1268 2742 
Q 959 2388 959 1747 
Q 959 1106 1268 751 
Q 1578 397 2138 397 
Q 2388 397 2633 464 
Q 2878 531 3122 666 
L 3122 134 
Q 2881 22 2623 -34 
Q 2366 -91 2075 -91 
Q 1284 -91 818 406 
Q 353 903 353 1747 
Q 353 2603 823 3093 
Q 1294 3584 2113 3584 
Q 2378 3584 2631 3529 
Q 2884 3475 3122 3366 
z
" transform="scale(0.015625)"/>
       <path id="DejaVuSans-61" d="M 2194 1759 
Q 1497 1759 1228 1600 
Q 959 1441 959 1056 
Q 959 750 1161 570 
Q 1363 391 1709 391 
Q 2188 391 2477 730 
Q 2766 1069 2766 1631 
L 2766 1759 
L 2194 1759 
z
M 3341 1997 
L 3341 0 
L 2766 0 
L 2766 531 
Q 2569 213 2275 61 
Q 1981 -91 1556 -91 
Q 1019 -91 701 211 
Q 384 513 384 1019 
Q 384 1609 779 1909 
Q 1175 2209 1959 2209 
L 2766 2209 
L 2766 2266 
Q 2766 2663 2505 2880 
Q 2244 3097 1772 3097 
Q 1472 3097 1187 3025 
Q 903 2953 641 2809 
L 641 3341 
Q 956 3463 1253 3523 
Q 1550 3584 1831 3584 
Q 2591 3584 2966 3190 
Q 3341 2797 3341 1997 
z
" transform="scale(0.015625)"/>
       <path id="DejaVuSans-6c" d="M 603 4863 
L 1178 4863 
L 1178 0 
L 603 0 
L 603 4863 
z
" transform="scale(0.015625)"/>
       <path id="DejaVuSans-20" transform="scale(0.015625)"/>
       <path id="DejaVuSans-65" d="M 3597 1894 
L 3597 1613 
L 953 1613 
Q 991 1019 1311 708 
Q 1631 397 2203 397 
Q 2534 397 2845 478 
Q 3156 559 3463 722 
L 3463 178 
Q 3153 47 2828 -22 
Q 2503 -91 2169 -91 
Q 1331 -91 842 396 
Q 353 884 353 1716 
Q 353 2575 817 3079 
Q 1281 3584 2069 3584 
Q 2775 3584 3186 3129 
Q 3597 2675 3597 1894 
z
M 3022 2063 
Q 3016 2534 2758 2815 
Q 2500 3097 2075 3097 
Q 1594 3097 1305 2825 
Q 1016 2553 972 2059 
L 3022 2063 
z
" transform="scale(0.015625)"/>
       <path id="DejaVuSans-64" d="M 2906 2969 
L 2906 4863 
L 3481 4863 
L 3481 0 
L 2906 0 
L 2906 525 
Q 2725 213 2448 61 
Q 2172 -91 1784 -91 
Q 1150 -91 751 415 
Q 353 922 353 1747 
Q 353 2572 751 3078 
Q 1150 3584 1784 3584 
Q 2172 3584 2448 3432 
Q 2725 3281 2906 2969 
z
M 947 1747 
Q 947 1113 1208 752 
Q 1469 391 1925 391 
Q 2381 391 2643 752 
Q 2906 1113 2906 1747 
Q 2906 2381 2643 2742 
Q 2381 3103 1925 3103 
Q 1469 3103 1208 2742 
Q 947 2381 947 1747 
z
" transform="scale(0.015625)"/>
       <path id="DejaVuSans-67" d="M 2906 1791 
Q 2906 2416 2648 2759 
Q 2391 3103 1925 3103 
Q 1463 3103 1205 2759 
Q 947 2416 947 1791 
Q 947 1169 1205 825 
Q 1463 481 1925 481 
Q 2391 481 2648 825 
Q 2906 1169 2906 1791 
z
M 3481 434 
Q 3481 -459 3084 -895 
Q 2688 -1331 1869 -1331 
Q 1566 -1331 1297 -1286 
Q 1028 -1241 775 -1147 
L 775 -588 
Q 1028 -725 1275 -790 
Q 1522 -856 1778 -856 
Q 2344 -856 2625 -561 
Q 2906 -266 2906 331 
L 2906 616 
Q 2728 306 2450 153 
Q 2172 0 1784 0 
Q 1141 0 747 490 
Q 353 981 353 1791 
Q 353 2603 747 3093 
Q 1141 3584 1784 3584 
Q 2172 3584 2450 3431 
Q 2728 3278 2906 2969 
L 2906 3500 
L 3481 3500 
L 3481 434 
z
" transform="scale(0.015625)"/>
       <path id="DejaVuSans-73" d="M 2834 3397 
L 2834 2853 
Q 2591 2978 2328 3040 
Q 2066 3103 1784 3103 
Q 1356 3103 1142 2972 
Q 928 2841 928 2578 
Q 928 2378 1081 2264 
Q 1234 2150 1697 2047 
L 1894 2003 
Q 2506 1872 2764 1633 
Q 3022 1394 3022 966 
Q 3022 478 2636 193 
Q 2250 -91 1575 -91 
Q 1294 -91 989 -36 
Q 684 19 347 128 
L 347 722 
Q 666 556 975 473 
Q 1284 391 1588 391 
Q 1994 391 2212 530 
Q 2431 669 2431 922 
Q 2431 1156 2273 1281 
Q 2116 1406 1581 1522 
L 1381 1569 
Q 847 1681 609 1914 
Q 372 2147 372 2553 
Q 372 3047 722 3315 
Q 1072 3584 1716 3584 
Q 2034 3584 2315 3537 
Q 2597 3491 2834 3397 
z
" transform="scale(0.015625)"/>
      </defs>
      <use xlink:href="#DejaVuSans-4c"/>
      <use xlink:href="#DejaVuSans-6f" transform="translate(53.962891 0)"/>
      <use xlink:href="#DejaVuSans-63" transform="translate(115.144531 0)"/>
      <use xlink:href="#DejaVuSans-61" transform="translate(170.125 0)"/>
      <use xlink:href="#DejaVuSans-6c" transform="translate(231.404297 0)"/>
      <use xlink:href="#DejaVuSans-20" transform="translate(259.1875 0)"/>
      <use xlink:href="#DejaVuSans-65" transform="translate(290.974609 0)"/>
      <use xlink:href="#DejaVuSans-64" transform="translate(352.498047 0)"/>
      <use xlink:href="#DejaVuSans-67" transform="translate(415.974609 0)"/>
      <use xlink:href="#DejaVuSans-65" transform="translate(479.451172 0)"/>
      <use xlink:href="#DejaVuSans-73" transform="translate(540.974609 0)"/>
     </g>
    </g>
    <g id="line2d_33">
     <path d="M 241.164595 331.020312 
L 251.164595 331.020312 
L 261.164595 331.020312 
" style="fill: none; stroke-dasharray: 5.55,2.4; stroke-dashoffset: 0; stroke: #b5942a; stroke-width: 1.5"/>
    </g>
    <g id="text_5">
     <!-- Long-range links -->
     <g transform="translate(269.164595 334.520312) scale(0.1 -0.1)">
      <defs>
       <path id="DejaVuSans-6e" d="M 3513 2113 
L 3513 0 
L 2938 0 
L 2938 2094 
Q 2938 2591 2744 2837 
Q 2550 3084 2163 3084 
Q 1697 3084 1428 2787 
Q 1159 2491 1159 1978 
L 1159 0 
L 581 0 
L 581 3500 
L 1159 3500 
L 1159 2956 
Q 1366 3272 1645 3428 
Q 1925 3584 2291 3584 
Q 2894 3584 3203 3211 
Q 3513 2838 3513 2113 
z
" transform="scale(0.015625)"/>
       <path id="DejaVuSans-2d" d="M 313 2009 
L 1997 2009 
L 1997 1497 
L 313 1497 
L 313 2009 
z
" transform="scale(0.015625)"/>
       <path id="DejaVuSans-72" d="M 2631 2963 
Q 2534 3019 2420 3045 
Q 2306 3072 2169 3072 
Q 1681 3072 1420 2755 
Q 1159 2438 1159 1844 
L 1159 0 
L 581 0 
L 581 3500 
L 1159 3500 
L 1159 2956 
Q 1341 3275 1631 3429 
Q 1922 3584 2338 3584 
Q 2397 3584 2469 3576 
Q 2541 3569 2628 3553 
L 2631 2963 
z
" transform="scale(0.015625)"/>
       <path id="DejaVuSans-69" d="M 603 3500 
L 1178 3500 
L 1178 0 
L 603 0 
L 603 3500 
z
M 603 4863 
L 1178 4863 
L 1178 4134 
L 603 4134 
L 603 4863 
z
" transform="scale(0.015625)"/>
       <path id="DejaVuSans-6b" d="M 581 4863 
L 1159 4863 
L 1159 1991 
L 2875 3500 
L 3609 3500 
L 1753 1863 
L 3688 0 
L 2938 0 
L 1159 1709 
L 1159 0 
L 581 0 
L 581 4863 
z
" transform="scale(0.015625)"/>
      </defs>
      <use xlink:href="#DejaVuSans-4c"/>
      <use xlink:href="#DejaVuSans-6f" transform="translate(53.962891 0)"/>
      <use xlink:href="#DejaVuSans-6e" transform="translate(115.144531 0)"/>
      <use xlink:href="#DejaVuSans-67" transform="translate(178.523438 0)"/>
      <use xlink:href="#DejaVuSans-2d" transform="translate(242 0)"/>
      <use xlink:href="#DejaVuSans-72" transform="translate(278.083984 0)"/>
      <use xlink:href="#DejaVuSans-61" transform="translate(319.197266 0)"/>
      <use xlink:href="#DejaVuSans-6e" transform="translate(380.476562 0)"/>
      <use xlink:href="#DejaVuSans-67" transform="translate(443.855469 0)"/>
      <use xlink:href="#DejaVuSans-65" transform="translate(507.332031 0)"/>
      <use xlink:href="#DejaVuSans-20" transform="translate(568.855469 0)"/>
      <use xlink:href="#DejaVuSans-6c" transform="translate(600.642578 0)"/>
      <use xlink:href="#DejaVuSans-69" transform="translate(628.425781 0)"/>
      <use xlink:href="#DejaVuSans-6e" transform="translate(656.208984 0)"/>
      <use xlink:href="#DejaVuSans-6b" transform="translate(719.587891 0)"/>
      <use xlink:href="#DejaVuSans-73" transform="translate(777.498047 0)"/>
     </g>
    </g>
   </g>
  </g>
 </g>
 <defs>
  <clipPath id="p2b6e3ac4ac">
   <rect x="7.2" y="7.2" width="353.92397" height="338.4"/>
  </clipPath>
 </defs>
</svg>
