<?xml version="1.0" encoding="utf-8" standalone="no"?>
<!DOCTYPE svg PUBLIC "-//W3C//DTD SVG 1.1//EN"
  "http://www.w3.org/Graphics/SVG/1.1/DTD/svg11.dtd">
<svg xmlns:xlink="http://www.w3.org/1999/xlink" width="443.626943pt" height="424.8pt" viewBox="0 0 443.626943 424.8" xmlns="http://www.w3.org/2000/svg" version="1.1">
 <metadata>
  <rdf:RDF xmlns:dc="http://purl.org/dc/elements/1.1/" xmlns:cc="http://creativecommons.org/ns#" xmlns:rdf="http://www.w3.org/1999/02/22-rdf-syntax-ns#">
   <cc:Work>
    <dc:type rdf:resource="http://purl.org/dc/dcmitype/StillImage"/>
    <dc:date>2026-02-05T09:16:47.393268</dc:date>
    <dc:format>image/svg+xml</dc:format>
    <dc:creator>
     <cc:Agent>
      <dc:title>Matplotlib v3.10.8, https://matplotlib.org/</dc:title>
     </cc:Agent>
    </dc:creator>
   </cc:Work>
  </rdf:RDF>
 </metadata>
 <defs>
  <style type="text/css">*{stroke-linejoin: round; stroke-linecap: butt}</style>
 </defs>
 <g id="figure_1">
  <g id="patch_1">
   <path d="M 0 424.8 
L 443.626943 424.8 
L 443.626943 0 
L 0 0 
z
" style="fill: #ffffff"/>
  </g>
  <g id="axes_1">
   <g id="patch_2">
    <path d="M 7.2 417.6 
L 436.426943 417.6 
L 436.426943 7.2 
L 7.2 7.2 
z
" style="fill: #ffffff"/>
   </g>
   <g id="patch_3">
    <path d="M -300.661083 678.944021 
L 145.166381 201.805929 
L -279.421875 -294.326815 
z
" clip-path="url(#p2f68d5e64f)" style="fill: #1f77b4; opacity: 0.4"/>
   </g>
   <g id="patch_4">
    <path d="M -520.755724 2115.594552 
L -257.212074 1518.12687 
L 247.164943 222.10038 
L 180.020219 192.482832 
L 145.166381 201.805929 
L -300.661083 678.944021 
z
" clip-path="url(#p2f68d5e64f)" style="fill: #ff7f0e; opacity: 0.4"/>
   </g>
   <g id="patch_5">
    <path d="M 145.166381 201.805929 
L 180.020219 192.482832 
L 181.560485 181.030406 
L 40.778977 -456.624245 
L -279.421875 -294.326815 
z
" clip-path="url(#p2f68d5e64f)" style="fill: #2ca02c; opacity: 0.4"/>
   </g>
   <g id="patch_6">
    <path d="M -257.212074 1518.12687 
L -520.755724 2115.594552 
L 1027.281546 266.960523 
L 376.522482 212.780018 
L 366.063045 217.674957 
z
" clip-path="url(#p2f68d5e64f)" style="fill: #d62728; opacity: 0.4"/>
   </g>
   <g id="patch_7">
    <path d="M 247.164943 222.10038 
L 366.063045 217.674957 
L -257.212074 1518.12687 
z
" clip-path="url(#p2f68d5e64f)" style="fill: #9467bd; opacity: 0.4"/>
   </g>
   <g id="patch_8">
    <path d="M 279.189427 19.945465 
L 376.522482 212.780018 
L 1027.281546 266.960523 
L 146.238227 -619.387676 
z
" clip-path="url(#p2f68d5e64f)" style="fill: #8c564b; opacity: 0.4"/>
   </g>
   <g id="patch_9">
    <path d="M 247.164943 222.10038 
L 180.020219 192.482832 
L 181.560485 181.030406 
L 279.189427 19.945465 
L 376.522482 212.780018 
L 366.063045 217.674957 
z
" clip-path="url(#p2f68d5e64f)" style="fill: #e377c2; opacity: 0.4"/>
   </g>
   <g id="patch_10">
    <path d="M 181.560485 181.030406 
L 279.189427 19.945465 
L 146.238227 -619.387676 
L 40.778977 -456.624245 
z
" clip-path="url(#p2f68d5e64f)" style="fill: #7f7f7f; opacity: 0.4"/>
   </g>
   <g id="matplotlib.axis_1"/>
   <g id="matplotlib.axis_2"/>
   <g id="line2d_1">
    <defs>
     <path id="me9c887d5c1" d="M 0 3 
C 0.795609 3 1.55874 2.683901 2.12132 2.12132 
C 2.683901 1.55874 3 0.795609 3 0 
C 3 -0.795609 2.683901 -1.55874 2.12132 -2.12132 
C 1.55874 -2.683901 0.795609 -3 0 -3 
C -0.795609 -3 -1.55874 -2.683901 -2.12132 -2.12132 
C -2.683901 -1.55874 -3 -0.795609 -3 0 
C -3 0.795609 -2.683901 1.55874 -2.12132 2.12132 
C -1.55874 2.683901 -0.795609 3 0 3 
z
" style="stroke: #000000"/>
    </defs>
    <g clip-path="url(#p2f68d5e64f)">
     <use xlink:href="#me9c887d5c1" x="58.887815" y="174.642469" style="stroke: #000000"/>
     <use xlink:href="#me9c887d5c1" x="178.114481" y="286.045274" style="stroke: #000000"/>
     <use xlink:href="#me9c887d5c1" x="131.657031" y="112.366888" style="stroke: #000000"/>
     <use xlink:href="#me9c887d5c1" x="359.177078" y="365.912185" style="stroke: #000000"/>
     <use xlink:href="#me9c887d5c1" x="254.825981" y="315.89923" style="stroke: #000000"/>
     <use xlink:href="#me9c887d5c1" x="384.739127" y="58.887815" style="stroke: #000000"/>
     <use xlink:href="#me9c887d5c1" x="247.832" y="127.991556" style="stroke: #000000"/>
     <use xlink:href="#me9c887d5c1" x="197.915171" y="97.738404" style="stroke: #000000"/>
    </g>
   </g>
   <g id="patch_11">
    <path d="M 7.2 417.6 
L 7.2 7.2 
" style="fill: none; stroke: #000000; stroke-width: 0.8; stroke-linejoin: miter; stroke-linecap: square"/>
   </g>
   <g id="patch_12">
    <path d="M 436.426943 417.6 
L 436.426943 7.2 
" style="fill: none; stroke: #000000; stroke-width: 0.8; stroke-linejoin: miter; stroke-linecap: square"/>
   </g>
   <g id="patch_13">
    <path d="M 7.2 417.6 
L 436.426943 417.6 
" style="fill: none; stroke: #000000; stroke-width: 0.8; stroke-linejoin: miter; stroke-linecap: square"/>
   </g>
   <g id="patch_14">
    <path d="M 7.2 7.2 
L 436.426943 7.2 
" style="fill: none; stroke: #000000; stroke-width: 0.8; stroke-linejoin: miter; stroke-linecap: square"/>
   </g>
  </g>
 </g>
 <defs>
  <clipPath id="p2f68d5e64f">
   <rect x="7.2" y="7.2" width="429.226943" height="410.4"/>
  </clipPath>
 </defs>
</svg>
