<?xml version="1.0" encoding="utf-8" standalone="no"?>
<!DOCTYPE svg PUBLIC "-//W3C//DTD SVG 1.1//EN"
  "http://www.w3.org/Graphics/SVG/1.1/DTD/svg11.dtd">
<svg xmlns:xlink="http://www.w3.org/1999/xlink" width="568.68125pt" height="280.244062pt" viewBox="0 0 568.68125 280.244062" xmlns="http://www.w3.org/2000/svg" version="1.1">
 <metadata>
  <rdf:RDF xmlns:dc="http://purl.org/dc/elements/1.1/" xmlns:cc="http://creativecommons.org/ns#" xmlns:rdf="http://www.w3.org/1999/02/22-rdf-syntax-ns#">
   <cc:Work>
    <dc:type rdf:resource="http://purl.org/dc/dcmitype/StillImage"/>
    <dc:date>2026-03-30T08:30:54.109375</dc:date>
    <dc:format>image/svg+xml</dc:format>
    <dc:creator>
     <cc:Agent>
      <dc:title>Matplotlib v3.10.8, https://matplotlib.org/</dc:title>
     </cc:Agent>
    </dc:creator>
   </cc:Work>
  </rdf:RDF>
 </metadata>
 <defs>
  <style type="text/css">*{stroke-linejoin: round; stroke-linecap: butt}</style>
 </defs>
 <g id="figure_1">
  <g id="patch_1">
   <path d="M 0 280.244062 
L 568.68125 280.244062 
L 568.68125 0 
L 0 0 
z
" style="fill: #ffffff"/>
  </g>
  <g id="axes_1">
   <g id="patch_2">
    <path d="M 35.208438 241.72 
L 550.348438 241.72 
L 550.348438 7.2 
L 35.208438 7.2 
z
" style="fill: #ffffff"/>
   </g>
   <g id="patch_3">
    <path d="M 35.208821 241.72 
L 43.794435 241.72 
L 43.794435 229.071559 
L 35.208821 229.071559 
z
" clip-path="url(#pd5bf5ca269)" style="fill: #c45a3b; opacity: 0.55; stroke: #c45a3b; stroke-width: 0.5; stroke-linejoin: miter"/>
   </g>
   <g id="patch_4">
    <path d="M 43.794435 241.72 
L 52.38005 241.72 
L 52.38005 229.492372 
L 43.794435 229.492372 
z
" clip-path="url(#pd5bf5ca269)" style="fill: #c45a3b; opacity: 0.55; stroke: #c45a3b; stroke-width: 0.5; stroke-linejoin: miter"/>
   </g>
   <g id="patch_5">
    <path d="M 52.38005 241.72 
L 60.965664 241.72 
L 60.965664 229.732837 
L 52.38005 229.732837 
z
" clip-path="url(#pd5bf5ca269)" style="fill: #c45a3b; opacity: 0.55; stroke: #c45a3b; stroke-width: 0.5; stroke-linejoin: miter"/>
   </g>
   <g id="patch_6">
    <path d="M 60.965664 241.72 
L 69.551278 241.72 
L 69.551278 229.432256 
L 60.965664 229.432256 
z
" clip-path="url(#pd5bf5ca269)" style="fill: #c45a3b; opacity: 0.55; stroke: #c45a3b; stroke-width: 0.5; stroke-linejoin: miter"/>
   </g>
   <g id="patch_7">
    <path d="M 69.551278 241.72 
L 78.136893 241.72 
L 78.136893 228.837106 
L 69.551278 228.837106 
z
" clip-path="url(#pd5bf5ca269)" style="fill: #c45a3b; opacity: 0.55; stroke: #c45a3b; stroke-width: 0.5; stroke-linejoin: miter"/>
   </g>
   <g id="patch_8">
    <path d="M 78.136893 241.72 
L 86.722507 241.72 
L 86.722507 229.083583 
L 78.136893 229.083583 
z
" clip-path="url(#pd5bf5ca269)" style="fill: #c45a3b; opacity: 0.55; stroke: #c45a3b; stroke-width: 0.5; stroke-linejoin: miter"/>
   </g>
   <g id="patch_9">
    <path d="M 86.722507 241.72 
L 95.308122 241.72 
L 95.308122 228.476409 
L 86.722507 228.476409 
z
" clip-path="url(#pd5bf5ca269)" style="fill: #c45a3b; opacity: 0.55; stroke: #c45a3b; stroke-width: 0.5; stroke-linejoin: miter"/>
   </g>
   <g id="patch_10">
    <path d="M 95.308122 241.72 
L 103.893736 241.72 
L 103.893736 229.384163 
L 95.308122 229.384163 
z
" clip-path="url(#pd5bf5ca269)" style="fill: #c45a3b; opacity: 0.55; stroke: #c45a3b; stroke-width: 0.5; stroke-linejoin: miter"/>
   </g>
   <g id="patch_11">
    <path d="M 103.893736 241.72 
L 112.479351 241.72 
L 112.479351 228.716874 
L 103.893736 228.716874 
z
" clip-path="url(#pd5bf5ca269)" style="fill: #c45a3b; opacity: 0.55; stroke: #c45a3b; stroke-width: 0.5; stroke-linejoin: miter"/>
   </g>
   <g id="patch_12">
    <path d="M 112.479351 241.72 
L 121.064965 241.72 
L 121.064965 229.155722 
L 112.479351 229.155722 
z
" clip-path="url(#pd5bf5ca269)" style="fill: #c45a3b; opacity: 0.55; stroke: #c45a3b; stroke-width: 0.5; stroke-linejoin: miter"/>
   </g>
   <g id="patch_13">
    <path d="M 121.064965 241.72 
L 129.65058 241.72 
L 129.65058 229.017455 
L 121.064965 229.017455 
z
" clip-path="url(#pd5bf5ca269)" style="fill: #c45a3b; opacity: 0.55; stroke: #c45a3b; stroke-width: 0.5; stroke-linejoin: miter"/>
   </g>
   <g id="patch_14">
    <path d="M 129.65058 241.72 
L 138.236194 241.72 
L 138.236194 229.143699 
L 129.65058 229.143699 
z
" clip-path="url(#pd5bf5ca269)" style="fill: #c45a3b; opacity: 0.55; stroke: #c45a3b; stroke-width: 0.5; stroke-linejoin: miter"/>
   </g>
   <g id="patch_15">
    <path d="M 138.236194 241.72 
L 146.821808 241.72 
L 146.821808 229.450291 
L 138.236194 229.450291 
z
" clip-path="url(#pd5bf5ca269)" style="fill: #c45a3b; opacity: 0.55; stroke: #c45a3b; stroke-width: 0.5; stroke-linejoin: miter"/>
   </g>
   <g id="patch_16">
    <path d="M 146.821808 241.72 
L 155.407423 241.72 
L 155.407423 229.137687 
L 146.821808 229.137687 
z
" clip-path="url(#pd5bf5ca269)" style="fill: #c45a3b; opacity: 0.55; stroke: #c45a3b; stroke-width: 0.5; stroke-linejoin: miter"/>
   </g>
   <g id="patch_17">
    <path d="M 155.407423 241.72 
L 163.993037 241.72 
L 163.993037 229.40821 
L 155.407423 229.40821 
z
" clip-path="url(#pd5bf5ca269)" style="fill: #c45a3b; opacity: 0.55; stroke: #c45a3b; stroke-width: 0.5; stroke-linejoin: miter"/>
   </g>
   <g id="patch_18">
    <path d="M 163.993037 241.72 
L 172.578652 241.72 
L 172.578652 228.909246 
L 163.993037 228.909246 
z
" clip-path="url(#pd5bf5ca269)" style="fill: #c45a3b; opacity: 0.55; stroke: #c45a3b; stroke-width: 0.5; stroke-linejoin: miter"/>
   </g>
   <g id="patch_19">
    <path d="M 172.578652 241.72 
L 181.164266 241.72 
L 181.164266 229.179768 
L 172.578652 229.179768 
z
" clip-path="url(#pd5bf5ca269)" style="fill: #c45a3b; opacity: 0.55; stroke: #c45a3b; stroke-width: 0.5; stroke-linejoin: miter"/>
   </g>
   <g id="patch_20">
    <path d="M 181.164266 241.72 
L 189.749881 241.72 
L 189.749881 229.14971 
L 181.164266 229.14971 
z
" clip-path="url(#pd5bf5ca269)" style="fill: #c45a3b; opacity: 0.55; stroke: #c45a3b; stroke-width: 0.5; stroke-linejoin: miter"/>
   </g>
   <g id="patch_21">
    <path d="M 189.749881 241.72 
L 198.335495 241.72 
L 198.335495 229.324047 
L 189.749881 229.324047 
z
" clip-path="url(#pd5bf5ca269)" style="fill: #c45a3b; opacity: 0.55; stroke: #c45a3b; stroke-width: 0.5; stroke-linejoin: miter"/>
   </g>
   <g id="patch_22">
    <path d="M 198.335495 241.72 
L 206.921109 241.72 
L 206.921109 229.119652 
L 198.335495 229.119652 
z
" clip-path="url(#pd5bf5ca269)" style="fill: #c45a3b; opacity: 0.55; stroke: #c45a3b; stroke-width: 0.5; stroke-linejoin: miter"/>
   </g>
   <g id="patch_23">
    <path d="M 206.921109 241.72 
L 215.506724 241.72 
L 215.506724 228.92728 
L 206.921109 228.92728 
z
" clip-path="url(#pd5bf5ca269)" style="fill: #c45a3b; opacity: 0.55; stroke: #c45a3b; stroke-width: 0.5; stroke-linejoin: miter"/>
   </g>
   <g id="patch_24">
    <path d="M 215.506724 241.72 
L 224.092338 241.72 
L 224.092338 228.969362 
L 215.506724 228.969362 
z
" clip-path="url(#pd5bf5ca269)" style="fill: #c45a3b; opacity: 0.55; stroke: #c45a3b; stroke-width: 0.5; stroke-linejoin: miter"/>
   </g>
   <g id="patch_25">
    <path d="M 224.092338 241.72 
L 232.677953 241.72 
L 232.677953 229.600582 
L 224.092338 229.600582 
z
" clip-path="url(#pd5bf5ca269)" style="fill: #c45a3b; opacity: 0.55; stroke: #c45a3b; stroke-width: 0.5; stroke-linejoin: miter"/>
   </g>
   <g id="patch_26">
    <path d="M 232.677953 241.72 
L 241.263567 241.72 
L 241.263567 229.269943 
L 232.677953 229.269943 
z
" clip-path="url(#pd5bf5ca269)" style="fill: #c45a3b; opacity: 0.55; stroke: #c45a3b; stroke-width: 0.5; stroke-linejoin: miter"/>
   </g>
   <g id="patch_27">
    <path d="M 241.263567 241.72 
L 249.849182 241.72 
L 249.849182 229.281966 
L 241.263567 229.281966 
z
" clip-path="url(#pd5bf5ca269)" style="fill: #c45a3b; opacity: 0.55; stroke: #c45a3b; stroke-width: 0.5; stroke-linejoin: miter"/>
   </g>
   <g id="patch_28">
    <path d="M 249.849182 241.72 
L 258.434796 241.72 
L 258.434796 229.40821 
L 249.849182 229.40821 
z
" clip-path="url(#pd5bf5ca269)" style="fill: #c45a3b; opacity: 0.55; stroke: #c45a3b; stroke-width: 0.5; stroke-linejoin: miter"/>
   </g>
   <g id="patch_29">
    <path d="M 258.434796 241.72 
L 267.02041 241.72 
L 267.02041 229.161734 
L 258.434796 229.161734 
z
" clip-path="url(#pd5bf5ca269)" style="fill: #c45a3b; opacity: 0.55; stroke: #c45a3b; stroke-width: 0.5; stroke-linejoin: miter"/>
   </g>
   <g id="patch_30">
    <path d="M 267.02041 241.72 
L 275.606025 241.72 
L 275.606025 229.426245 
L 267.02041 229.426245 
z
" clip-path="url(#pd5bf5ca269)" style="fill: #c45a3b; opacity: 0.55; stroke: #c45a3b; stroke-width: 0.5; stroke-linejoin: miter"/>
   </g>
   <g id="patch_31">
    <path d="M 275.606025 241.72 
L 284.191639 241.72 
L 284.191639 229.287977 
L 275.606025 229.287977 
z
" clip-path="url(#pd5bf5ca269)" style="fill: #c45a3b; opacity: 0.55; stroke: #c45a3b; stroke-width: 0.5; stroke-linejoin: miter"/>
   </g>
   <g id="patch_32">
    <path d="M 284.191639 241.72 
L 292.777254 241.72 
L 292.777254 229.889139 
L 284.191639 229.889139 
z
" clip-path="url(#pd5bf5ca269)" style="fill: #c45a3b; opacity: 0.55; stroke: #c45a3b; stroke-width: 0.5; stroke-linejoin: miter"/>
   </g>
   <g id="patch_33">
    <path d="M 292.777254 241.72 
L 301.362868 241.72 
L 301.362868 229.083583 
L 292.777254 229.083583 
z
" clip-path="url(#pd5bf5ca269)" style="fill: #c45a3b; opacity: 0.55; stroke: #c45a3b; stroke-width: 0.5; stroke-linejoin: miter"/>
   </g>
   <g id="patch_34">
    <path d="M 301.362868 241.72 
L 309.948483 241.72 
L 309.948483 229.137687 
L 301.362868 229.137687 
z
" clip-path="url(#pd5bf5ca269)" style="fill: #c45a3b; opacity: 0.55; stroke: #c45a3b; stroke-width: 0.5; stroke-linejoin: miter"/>
   </g>
   <g id="patch_35">
    <path d="M 309.948483 241.72 
L 318.534097 241.72 
L 318.534097 229.137687 
L 309.948483 229.137687 
z
" clip-path="url(#pd5bf5ca269)" style="fill: #c45a3b; opacity: 0.55; stroke: #c45a3b; stroke-width: 0.5; stroke-linejoin: miter"/>
   </g>
   <g id="patch_36">
    <path d="M 318.534097 241.72 
L 327.119711 241.72 
L 327.119711 228.620688 
L 318.534097 228.620688 
z
" clip-path="url(#pd5bf5ca269)" style="fill: #c45a3b; opacity: 0.55; stroke: #c45a3b; stroke-width: 0.5; stroke-linejoin: miter"/>
   </g>
   <g id="patch_37">
    <path d="M 327.119711 241.72 
L 335.705326 241.72 
L 335.705326 229.029478 
L 327.119711 229.029478 
z
" clip-path="url(#pd5bf5ca269)" style="fill: #c45a3b; opacity: 0.55; stroke: #c45a3b; stroke-width: 0.5; stroke-linejoin: miter"/>
   </g>
   <g id="patch_38">
    <path d="M 335.705326 241.72 
L 344.29094 241.72 
L 344.29094 229.456303 
L 335.705326 229.456303 
z
" clip-path="url(#pd5bf5ca269)" style="fill: #c45a3b; opacity: 0.55; stroke: #c45a3b; stroke-width: 0.5; stroke-linejoin: miter"/>
   </g>
   <g id="patch_39">
    <path d="M 344.29094 241.72 
L 352.876555 241.72 
L 352.876555 229.071559 
L 344.29094 229.071559 
z
" clip-path="url(#pd5bf5ca269)" style="fill: #c45a3b; opacity: 0.55; stroke: #c45a3b; stroke-width: 0.5; stroke-linejoin: miter"/>
   </g>
   <g id="patch_40">
    <path d="M 352.876555 241.72 
L 361.462169 241.72 
L 361.462169 228.644735 
L 352.876555 228.644735 
z
" clip-path="url(#pd5bf5ca269)" style="fill: #c45a3b; opacity: 0.55; stroke: #c45a3b; stroke-width: 0.5; stroke-linejoin: miter"/>
   </g>
   <g id="patch_41">
    <path d="M 361.462169 241.72 
L 370.047784 241.72 
L 370.047784 229.251908 
L 361.462169 229.251908 
z
" clip-path="url(#pd5bf5ca269)" style="fill: #c45a3b; opacity: 0.55; stroke: #c45a3b; stroke-width: 0.5; stroke-linejoin: miter"/>
   </g>
   <g id="patch_42">
    <path d="M 370.047784 241.72 
L 378.633398 241.72 
L 378.633398 229.390175 
L 370.047784 229.390175 
z
" clip-path="url(#pd5bf5ca269)" style="fill: #c45a3b; opacity: 0.55; stroke: #c45a3b; stroke-width: 0.5; stroke-linejoin: miter"/>
   </g>
   <g id="patch_43">
    <path d="M 378.633398 241.72 
L 387.219012 241.72 
L 387.219012 229.612605 
L 378.633398 229.612605 
z
" clip-path="url(#pd5bf5ca269)" style="fill: #c45a3b; opacity: 0.55; stroke: #c45a3b; stroke-width: 0.5; stroke-linejoin: miter"/>
   </g>
   <g id="patch_44">
    <path d="M 387.219012 241.72 
L 395.804627 241.72 
L 395.804627 229.257919 
L 387.219012 229.257919 
z
" clip-path="url(#pd5bf5ca269)" style="fill: #c45a3b; opacity: 0.55; stroke: #c45a3b; stroke-width: 0.5; stroke-linejoin: miter"/>
   </g>
   <g id="patch_45">
    <path d="M 395.804627 241.72 
L 404.390241 241.72 
L 404.390241 229.37214 
L 395.804627 229.37214 
z
" clip-path="url(#pd5bf5ca269)" style="fill: #c45a3b; opacity: 0.55; stroke: #c45a3b; stroke-width: 0.5; stroke-linejoin: miter"/>
   </g>
   <g id="patch_46">
    <path d="M 404.390241 241.72 
L 412.975856 241.72 
L 412.975856 229.215838 
L 404.390241 229.215838 
z
" clip-path="url(#pd5bf5ca269)" style="fill: #c45a3b; opacity: 0.55; stroke: #c45a3b; stroke-width: 0.5; stroke-linejoin: miter"/>
   </g>
   <g id="patch_47">
    <path d="M 412.975856 241.72 
L 421.56147 241.72 
L 421.56147 229.462314 
L 412.975856 229.462314 
z
" clip-path="url(#pd5bf5ca269)" style="fill: #c45a3b; opacity: 0.55; stroke: #c45a3b; stroke-width: 0.5; stroke-linejoin: miter"/>
   </g>
   <g id="patch_48">
    <path d="M 421.56147 241.72 
L 430.147085 241.72 
L 430.147085 229.648674 
L 421.56147 229.648674 
z
" clip-path="url(#pd5bf5ca269)" style="fill: #c45a3b; opacity: 0.55; stroke: #c45a3b; stroke-width: 0.5; stroke-linejoin: miter"/>
   </g>
   <g id="patch_49">
    <path d="M 430.147085 241.72 
L 438.732699 241.72 
L 438.732699 229.143699 
L 430.147085 229.143699 
z
" clip-path="url(#pd5bf5ca269)" style="fill: #c45a3b; opacity: 0.55; stroke: #c45a3b; stroke-width: 0.5; stroke-linejoin: miter"/>
   </g>
   <g id="patch_50">
    <path d="M 438.732699 241.72 
L 447.318313 241.72 
L 447.318313 228.969362 
L 438.732699 228.969362 
z
" clip-path="url(#pd5bf5ca269)" style="fill: #c45a3b; opacity: 0.55; stroke: #c45a3b; stroke-width: 0.5; stroke-linejoin: miter"/>
   </g>
   <g id="patch_51">
    <path d="M 447.318313 241.72 
L 455.903928 241.72 
L 455.903928 229.33607 
L 447.318313 229.33607 
z
" clip-path="url(#pd5bf5ca269)" style="fill: #c45a3b; opacity: 0.55; stroke: #c45a3b; stroke-width: 0.5; stroke-linejoin: miter"/>
   </g>
   <g id="patch_52">
    <path d="M 455.903928 241.72 
L 464.489542 241.72 
L 464.489542 229.017455 
L 455.903928 229.017455 
z
" clip-path="url(#pd5bf5ca269)" style="fill: #c45a3b; opacity: 0.55; stroke: #c45a3b; stroke-width: 0.5; stroke-linejoin: miter"/>
   </g>
   <g id="patch_53">
    <path d="M 464.489542 241.72 
L 473.075157 241.72 
L 473.075157 229.510407 
L 464.489542 229.510407 
z
" clip-path="url(#pd5bf5ca269)" style="fill: #c45a3b; opacity: 0.55; stroke: #c45a3b; stroke-width: 0.5; stroke-linejoin: miter"/>
   </g>
   <g id="patch_54">
    <path d="M 473.075157 241.72 
L 481.660771 241.72 
L 481.660771 229.588558 
L 473.075157 229.588558 
z
" clip-path="url(#pd5bf5ca269)" style="fill: #c45a3b; opacity: 0.55; stroke: #c45a3b; stroke-width: 0.5; stroke-linejoin: miter"/>
   </g>
   <g id="patch_55">
    <path d="M 481.660771 241.72 
L 490.246386 241.72 
L 490.246386 229.293989 
L 481.660771 229.293989 
z
" clip-path="url(#pd5bf5ca269)" style="fill: #c45a3b; opacity: 0.55; stroke: #c45a3b; stroke-width: 0.5; stroke-linejoin: miter"/>
   </g>
   <g id="patch_56">
    <path d="M 490.246386 241.72 
L 498.832 241.72 
L 498.832 229.402198 
L 490.246386 229.402198 
z
" clip-path="url(#pd5bf5ca269)" style="fill: #c45a3b; opacity: 0.55; stroke: #c45a3b; stroke-width: 0.5; stroke-linejoin: miter"/>
   </g>
   <g id="patch_57">
    <path d="M 498.832 241.72 
L 507.417614 241.72 
L 507.417614 228.638723 
L 498.832 228.638723 
z
" clip-path="url(#pd5bf5ca269)" style="fill: #c45a3b; opacity: 0.55; stroke: #c45a3b; stroke-width: 0.5; stroke-linejoin: miter"/>
   </g>
   <g id="patch_58">
    <path d="M 507.417614 241.72 
L 516.003229 241.72 
L 516.003229 228.825083 
L 507.417614 228.825083 
z
" clip-path="url(#pd5bf5ca269)" style="fill: #c45a3b; opacity: 0.55; stroke: #c45a3b; stroke-width: 0.5; stroke-linejoin: miter"/>
   </g>
   <g id="patch_59">
    <path d="M 516.003229 241.72 
L 524.588843 241.72 
L 524.588843 229.059536 
L 516.003229 229.059536 
z
" clip-path="url(#pd5bf5ca269)" style="fill: #c45a3b; opacity: 0.55; stroke: #c45a3b; stroke-width: 0.5; stroke-linejoin: miter"/>
   </g>
   <g id="patch_60">
    <path d="M 524.588843 241.72 
L 533.174458 241.72 
L 533.174458 229.179768 
L 524.588843 229.179768 
z
" clip-path="url(#pd5bf5ca269)" style="fill: #c45a3b; opacity: 0.55; stroke: #c45a3b; stroke-width: 0.5; stroke-linejoin: miter"/>
   </g>
   <g id="patch_61">
    <path d="M 533.174458 241.72 
L 541.760072 241.72 
L 541.760072 230.273883 
L 533.174458 230.273883 
z
" clip-path="url(#pd5bf5ca269)" style="fill: #c45a3b; opacity: 0.55; stroke: #c45a3b; stroke-width: 0.5; stroke-linejoin: miter"/>
   </g>
   <g id="patch_62">
    <path d="M 541.760072 241.72 
L 550.345687 241.72 
L 550.345687 229.173757 
L 541.760072 229.173757 
z
" clip-path="url(#pd5bf5ca269)" style="fill: #c45a3b; opacity: 0.55; stroke: #c45a3b; stroke-width: 0.5; stroke-linejoin: miter"/>
   </g>
   <g id="patch_63">
    <path d="M 148.86231 241.72 
L 153.872816 241.72 
L 153.872816 241.689097 
L 148.86231 241.689097 
z
" clip-path="url(#pd5bf5ca269)" style="fill: #2a7f8e; opacity: 0.55; stroke: #2a7f8e; stroke-width: 0.5; stroke-linejoin: miter"/>
   </g>
   <g id="patch_64">
    <path d="M 153.872816 241.72 
L 158.883323 241.72 
L 158.883323 241.699398 
L 153.872816 241.699398 
z
" clip-path="url(#pd5bf5ca269)" style="fill: #2a7f8e; opacity: 0.55; stroke: #2a7f8e; stroke-width: 0.5; stroke-linejoin: miter"/>
   </g>
   <g id="patch_65">
    <path d="M 158.883323 241.72 
L 163.893829 241.72 
L 163.893829 241.678796 
L 158.883323 241.678796 
z
" clip-path="url(#pd5bf5ca269)" style="fill: #2a7f8e; opacity: 0.55; stroke: #2a7f8e; stroke-width: 0.5; stroke-linejoin: miter"/>
   </g>
   <g id="patch_66">
    <path d="M 163.893829 241.72 
L 168.904336 241.72 
L 168.904336 241.596388 
L 163.893829 241.596388 
z
" clip-path="url(#pd5bf5ca269)" style="fill: #2a7f8e; opacity: 0.55; stroke: #2a7f8e; stroke-width: 0.5; stroke-linejoin: miter"/>
   </g>
   <g id="patch_67">
    <path d="M 168.904336 241.72 
L 173.914842 241.72 
L 173.914842 241.483076 
L 168.904336 241.483076 
z
" clip-path="url(#pd5bf5ca269)" style="fill: #2a7f8e; opacity: 0.55; stroke: #2a7f8e; stroke-width: 0.5; stroke-linejoin: miter"/>
   </g>
   <g id="patch_68">
    <path d="M 173.914842 241.72 
L 178.925349 241.72 
L 178.925349 241.452173 
L 173.914842 241.452173 
z
" clip-path="url(#pd5bf5ca269)" style="fill: #2a7f8e; opacity: 0.55; stroke: #2a7f8e; stroke-width: 0.5; stroke-linejoin: miter"/>
   </g>
   <g id="patch_69">
    <path d="M 178.925349 241.72 
L 183.935855 241.72 
L 183.935855 241.235851 
L 178.925349 241.235851 
z
" clip-path="url(#pd5bf5ca269)" style="fill: #2a7f8e; opacity: 0.55; stroke: #2a7f8e; stroke-width: 0.5; stroke-linejoin: miter"/>
   </g>
   <g id="patch_70">
    <path d="M 183.935855 241.72 
L 188.946362 241.72 
L 188.946362 240.782606 
L 183.935855 240.782606 
z
" clip-path="url(#pd5bf5ca269)" style="fill: #2a7f8e; opacity: 0.55; stroke: #2a7f8e; stroke-width: 0.5; stroke-linejoin: miter"/>
   </g>
   <g id="patch_71">
    <path d="M 188.946362 241.72 
L 193.956868 241.72 
L 193.956868 240.164543 
L 188.946362 240.164543 
z
" clip-path="url(#pd5bf5ca269)" style="fill: #2a7f8e; opacity: 0.55; stroke: #2a7f8e; stroke-width: 0.5; stroke-linejoin: miter"/>
   </g>
   <g id="patch_72">
    <path d="M 193.956868 241.72 
L 198.967375 241.72 
L 198.967375 239.628889 
L 193.956868 239.628889 
z
" clip-path="url(#pd5bf5ca269)" style="fill: #2a7f8e; opacity: 0.55; stroke: #2a7f8e; stroke-width: 0.5; stroke-linejoin: miter"/>
   </g>
   <g id="patch_73">
    <path d="M 198.967375 241.72 
L 203.977881 241.72 
L 203.977881 238.35156 
L 198.967375 238.35156 
z
" clip-path="url(#pd5bf5ca269)" style="fill: #2a7f8e; opacity: 0.55; stroke: #2a7f8e; stroke-width: 0.5; stroke-linejoin: miter"/>
   </g>
   <g id="patch_74">
    <path d="M 203.977881 241.72 
L 208.988388 241.72 
L 208.988388 237.599585 
L 203.977881 237.599585 
z
" clip-path="url(#pd5bf5ca269)" style="fill: #2a7f8e; opacity: 0.55; stroke: #2a7f8e; stroke-width: 0.5; stroke-linejoin: miter"/>
   </g>
   <g id="patch_75">
    <path d="M 208.988388 241.72 
L 213.998894 241.72 
L 213.998894 235.704194 
L 208.988388 235.704194 
z
" clip-path="url(#pd5bf5ca269)" style="fill: #2a7f8e; opacity: 0.55; stroke: #2a7f8e; stroke-width: 0.5; stroke-linejoin: miter"/>
   </g>
   <g id="patch_76">
    <path d="M 213.998894 241.72 
L 219.0094 241.72 
L 219.0094 233.592481 
L 213.998894 233.592481 
z
" clip-path="url(#pd5bf5ca269)" style="fill: #2a7f8e; opacity: 0.55; stroke: #2a7f8e; stroke-width: 0.5; stroke-linejoin: miter"/>
   </g>
   <g id="patch_77">
    <path d="M 219.0094 241.72 
L 224.019907 241.72 
L 224.019907 230.780297 
L 219.0094 230.780297 
z
" clip-path="url(#pd5bf5ca269)" style="fill: #2a7f8e; opacity: 0.55; stroke: #2a7f8e; stroke-width: 0.5; stroke-linejoin: miter"/>
   </g>
   <g id="patch_78">
    <path d="M 224.019907 241.72 
L 229.030413 241.72 
L 229.030413 227.803297 
L 224.019907 227.803297 
z
" clip-path="url(#pd5bf5ca269)" style="fill: #2a7f8e; opacity: 0.55; stroke: #2a7f8e; stroke-width: 0.5; stroke-linejoin: miter"/>
   </g>
   <g id="patch_79">
    <path d="M 229.030413 241.72 
L 234.04092 241.72 
L 234.04092 224.434857 
L 229.030413 224.434857 
z
" clip-path="url(#pd5bf5ca269)" style="fill: #2a7f8e; opacity: 0.55; stroke: #2a7f8e; stroke-width: 0.5; stroke-linejoin: miter"/>
   </g>
   <g id="patch_80">
    <path d="M 234.04092 241.72 
L 239.051426 241.72 
L 239.051426 219.490359 
L 234.04092 219.490359 
z
" clip-path="url(#pd5bf5ca269)" style="fill: #2a7f8e; opacity: 0.55; stroke: #2a7f8e; stroke-width: 0.5; stroke-linejoin: miter"/>
   </g>
   <g id="patch_81">
    <path d="M 239.051426 241.72 
L 244.061933 241.72 
L 244.061933 214.865193 
L 239.051426 214.865193 
z
" clip-path="url(#pd5bf5ca269)" style="fill: #2a7f8e; opacity: 0.55; stroke: #2a7f8e; stroke-width: 0.5; stroke-linejoin: miter"/>
   </g>
   <g id="patch_82">
    <path d="M 244.061933 241.72 
L 249.072439 241.72 
L 249.072439 210.07521 
L 244.061933 210.07521 
z
" clip-path="url(#pd5bf5ca269)" style="fill: #2a7f8e; opacity: 0.55; stroke: #2a7f8e; stroke-width: 0.5; stroke-linejoin: miter"/>
   </g>
   <g id="patch_83">
    <path d="M 249.072439 241.72 
L 254.082946 241.72 
L 254.082946 203.420739 
L 249.072439 203.420739 
z
" clip-path="url(#pd5bf5ca269)" style="fill: #2a7f8e; opacity: 0.55; stroke: #2a7f8e; stroke-width: 0.5; stroke-linejoin: miter"/>
   </g>
   <g id="patch_84">
    <path d="M 254.082946 241.72 
L 259.093452 241.72 
L 259.093452 199.248818 
L 254.082946 199.248818 
z
" clip-path="url(#pd5bf5ca269)" style="fill: #2a7f8e; opacity: 0.55; stroke: #2a7f8e; stroke-width: 0.5; stroke-linejoin: miter"/>
   </g>
   <g id="patch_85">
    <path d="M 259.093452 241.72 
L 264.103959 241.72 
L 264.103959 192.244112 
L 259.093452 192.244112 
z
" clip-path="url(#pd5bf5ca269)" style="fill: #2a7f8e; opacity: 0.55; stroke: #2a7f8e; stroke-width: 0.5; stroke-linejoin: miter"/>
   </g>
   <g id="patch_86">
    <path d="M 264.103959 241.72 
L 269.114465 241.72 
L 269.114465 186.547638 
L 264.103959 186.547638 
z
" clip-path="url(#pd5bf5ca269)" style="fill: #2a7f8e; opacity: 0.55; stroke: #2a7f8e; stroke-width: 0.5; stroke-linejoin: miter"/>
   </g>
   <g id="patch_87">
    <path d="M 269.114465 241.72 
L 274.124972 241.72 
L 274.124972 182.015181 
L 269.114465 182.015181 
z
" clip-path="url(#pd5bf5ca269)" style="fill: #2a7f8e; opacity: 0.55; stroke: #2a7f8e; stroke-width: 0.5; stroke-linejoin: miter"/>
   </g>
   <g id="patch_88">
    <path d="M 274.124972 241.72 
L 279.135478 241.72 
L 279.135478 178.852762 
L 274.124972 178.852762 
z
" clip-path="url(#pd5bf5ca269)" style="fill: #2a7f8e; opacity: 0.55; stroke: #2a7f8e; stroke-width: 0.5; stroke-linejoin: miter"/>
   </g>
   <g id="patch_89">
    <path d="M 279.135478 241.72 
L 284.145985 241.72 
L 284.145985 176.64834 
L 279.135478 176.64834 
z
" clip-path="url(#pd5bf5ca269)" style="fill: #2a7f8e; opacity: 0.55; stroke: #2a7f8e; stroke-width: 0.5; stroke-linejoin: miter"/>
   </g>
   <g id="patch_90">
    <path d="M 284.145985 241.72 
L 289.156491 241.72 
L 289.156491 172.043776 
L 284.145985 172.043776 
z
" clip-path="url(#pd5bf5ca269)" style="fill: #2a7f8e; opacity: 0.55; stroke: #2a7f8e; stroke-width: 0.5; stroke-linejoin: miter"/>
   </g>
   <g id="patch_91">
    <path d="M 289.156491 241.72 
L 294.166997 241.72 
L 294.166997 171.817153 
L 289.156491 171.817153 
z
" clip-path="url(#pd5bf5ca269)" style="fill: #2a7f8e; opacity: 0.55; stroke: #2a7f8e; stroke-width: 0.5; stroke-linejoin: miter"/>
   </g>
   <g id="patch_92">
    <path d="M 294.166997 241.72 
L 299.177504 241.72 
L 299.177504 172.960568 
L 294.166997 172.960568 
z
" clip-path="url(#pd5bf5ca269)" style="fill: #2a7f8e; opacity: 0.55; stroke: #2a7f8e; stroke-width: 0.5; stroke-linejoin: miter"/>
   </g>
   <g id="patch_93">
    <path d="M 299.177504 241.72 
L 304.18801 241.72 
L 304.18801 173.393212 
L 299.177504 173.393212 
z
" clip-path="url(#pd5bf5ca269)" style="fill: #2a7f8e; opacity: 0.55; stroke: #2a7f8e; stroke-width: 0.5; stroke-linejoin: miter"/>
   </g>
   <g id="patch_94">
    <path d="M 304.18801 241.72 
L 309.198517 241.72 
L 309.198517 176.689544 
L 304.18801 176.689544 
z
" clip-path="url(#pd5bf5ca269)" style="fill: #2a7f8e; opacity: 0.55; stroke: #2a7f8e; stroke-width: 0.5; stroke-linejoin: miter"/>
   </g>
   <g id="patch_95">
    <path d="M 309.198517 241.72 
L 314.209023 241.72 
L 314.209023 181.139593 
L 309.198517 181.139593 
z
" clip-path="url(#pd5bf5ca269)" style="fill: #2a7f8e; opacity: 0.55; stroke: #2a7f8e; stroke-width: 0.5; stroke-linejoin: miter"/>
   </g>
   <g id="patch_96">
    <path d="M 314.209023 241.72 
L 319.21953 241.72 
L 319.21953 186.46523 
L 314.209023 186.46523 
z
" clip-path="url(#pd5bf5ca269)" style="fill: #2a7f8e; opacity: 0.55; stroke: #2a7f8e; stroke-width: 0.5; stroke-linejoin: miter"/>
   </g>
   <g id="patch_97">
    <path d="M 319.21953 241.72 
L 324.230036 241.72 
L 324.230036 189.957282 
L 319.21953 189.957282 
z
" clip-path="url(#pd5bf5ca269)" style="fill: #2a7f8e; opacity: 0.55; stroke: #2a7f8e; stroke-width: 0.5; stroke-linejoin: miter"/>
   </g>
   <g id="patch_98">
    <path d="M 324.230036 241.72 
L 329.240543 241.72 
L 329.240543 195.550746 
L 324.230036 195.550746 
z
" clip-path="url(#pd5bf5ca269)" style="fill: #2a7f8e; opacity: 0.55; stroke: #2a7f8e; stroke-width: 0.5; stroke-linejoin: miter"/>
   </g>
   <g id="patch_99">
    <path d="M 329.240543 241.72 
L 334.251049 241.72 
L 334.251049 201.957992 
L 329.240543 201.957992 
z
" clip-path="url(#pd5bf5ca269)" style="fill: #2a7f8e; opacity: 0.55; stroke: #2a7f8e; stroke-width: 0.5; stroke-linejoin: miter"/>
   </g>
   <g id="patch_100">
    <path d="M 334.251049 241.72 
L 339.261556 241.72 
L 339.261556 206.325632 
L 334.251049 206.325632 
z
" clip-path="url(#pd5bf5ca269)" style="fill: #2a7f8e; opacity: 0.55; stroke: #2a7f8e; stroke-width: 0.5; stroke-linejoin: miter"/>
   </g>
   <g id="patch_101">
    <path d="M 339.261556 241.72 
L 344.272062 241.72 
L 344.272062 212.238428 
L 339.261556 212.238428 
z
" clip-path="url(#pd5bf5ca269)" style="fill: #2a7f8e; opacity: 0.55; stroke: #2a7f8e; stroke-width: 0.5; stroke-linejoin: miter"/>
   </g>
   <g id="patch_102">
    <path d="M 344.272062 241.72 
L 349.282569 241.72 
L 349.282569 217.378646 
L 344.272062 217.378646 
z
" clip-path="url(#pd5bf5ca269)" style="fill: #2a7f8e; opacity: 0.55; stroke: #2a7f8e; stroke-width: 0.5; stroke-linejoin: miter"/>
   </g>
   <g id="patch_103">
    <path d="M 349.282569 241.72 
L 354.293075 241.72 
L 354.293075 221.859598 
L 349.282569 221.859598 
z
" clip-path="url(#pd5bf5ca269)" style="fill: #2a7f8e; opacity: 0.55; stroke: #2a7f8e; stroke-width: 0.5; stroke-linejoin: miter"/>
   </g>
   <g id="patch_104">
    <path d="M 354.293075 241.72 
L 359.303582 241.72 
L 359.303582 226.598076 
L 354.293075 226.598076 
z
" clip-path="url(#pd5bf5ca269)" style="fill: #2a7f8e; opacity: 0.55; stroke: #2a7f8e; stroke-width: 0.5; stroke-linejoin: miter"/>
   </g>
   <g id="patch_105">
    <path d="M 359.303582 241.72 
L 364.314088 241.72 
L 364.314088 230.285847 
L 359.303582 230.285847 
z
" clip-path="url(#pd5bf5ca269)" style="fill: #2a7f8e; opacity: 0.55; stroke: #2a7f8e; stroke-width: 0.5; stroke-linejoin: miter"/>
   </g>
   <g id="patch_106">
    <path d="M 364.314088 241.72 
L 369.324595 241.72 
L 369.324595 232.366657 
L 364.314088 232.366657 
z
" clip-path="url(#pd5bf5ca269)" style="fill: #2a7f8e; opacity: 0.55; stroke: #2a7f8e; stroke-width: 0.5; stroke-linejoin: miter"/>
   </g>
   <g id="patch_107">
    <path d="M 369.324595 241.72 
L 374.335101 241.72 
L 374.335101 234.808003 
L 369.324595 234.808003 
z
" clip-path="url(#pd5bf5ca269)" style="fill: #2a7f8e; opacity: 0.55; stroke: #2a7f8e; stroke-width: 0.5; stroke-linejoin: miter"/>
   </g>
   <g id="patch_108">
    <path d="M 374.335101 241.72 
L 379.345607 241.72 
L 379.345607 236.703394 
L 374.335101 236.703394 
z
" clip-path="url(#pd5bf5ca269)" style="fill: #2a7f8e; opacity: 0.55; stroke: #2a7f8e; stroke-width: 0.5; stroke-linejoin: miter"/>
   </g>
   <g id="patch_109">
    <path d="M 379.345607 241.72 
L 384.356114 241.72 
L 384.356114 238.506076 
L 379.345607 238.506076 
z
" clip-path="url(#pd5bf5ca269)" style="fill: #2a7f8e; opacity: 0.55; stroke: #2a7f8e; stroke-width: 0.5; stroke-linejoin: miter"/>
   </g>
   <g id="patch_110">
    <path d="M 384.356114 241.72 
L 389.36662 241.72 
L 389.36662 239.53618 
L 384.356114 239.53618 
z
" clip-path="url(#pd5bf5ca269)" style="fill: #2a7f8e; opacity: 0.55; stroke: #2a7f8e; stroke-width: 0.5; stroke-linejoin: miter"/>
   </g>
   <g id="patch_111">
    <path d="M 389.36662 241.72 
L 394.377127 241.72 
L 394.377127 240.174844 
L 389.36662 240.174844 
z
" clip-path="url(#pd5bf5ca269)" style="fill: #2a7f8e; opacity: 0.55; stroke: #2a7f8e; stroke-width: 0.5; stroke-linejoin: miter"/>
   </g>
   <g id="patch_112">
    <path d="M 394.377127 241.72 
L 399.387633 241.72 
L 399.387633 240.617789 
L 394.377127 240.617789 
z
" clip-path="url(#pd5bf5ca269)" style="fill: #2a7f8e; opacity: 0.55; stroke: #2a7f8e; stroke-width: 0.5; stroke-linejoin: miter"/>
   </g>
   <g id="patch_113">
    <path d="M 399.387633 241.72 
L 404.39814 241.72 
L 404.39814 241.101938 
L 399.387633 241.101938 
z
" clip-path="url(#pd5bf5ca269)" style="fill: #2a7f8e; opacity: 0.55; stroke: #2a7f8e; stroke-width: 0.5; stroke-linejoin: miter"/>
   </g>
   <g id="patch_114">
    <path d="M 404.39814 241.72 
L 409.408646 241.72 
L 409.408646 241.369765 
L 404.39814 241.369765 
z
" clip-path="url(#pd5bf5ca269)" style="fill: #2a7f8e; opacity: 0.55; stroke: #2a7f8e; stroke-width: 0.5; stroke-linejoin: miter"/>
   </g>
   <g id="patch_115">
    <path d="M 409.408646 241.72 
L 414.419153 241.72 
L 414.419153 241.441872 
L 409.408646 241.441872 
z
" clip-path="url(#pd5bf5ca269)" style="fill: #2a7f8e; opacity: 0.55; stroke: #2a7f8e; stroke-width: 0.5; stroke-linejoin: miter"/>
   </g>
   <g id="patch_116">
    <path d="M 414.419153 241.72 
L 419.429659 241.72 
L 419.429659 241.596388 
L 414.419153 241.596388 
z
" clip-path="url(#pd5bf5ca269)" style="fill: #2a7f8e; opacity: 0.55; stroke: #2a7f8e; stroke-width: 0.5; stroke-linejoin: miter"/>
   </g>
   <g id="patch_117">
    <path d="M 419.429659 241.72 
L 424.440166 241.72 
L 424.440166 241.647893 
L 419.429659 241.647893 
z
" clip-path="url(#pd5bf5ca269)" style="fill: #2a7f8e; opacity: 0.55; stroke: #2a7f8e; stroke-width: 0.5; stroke-linejoin: miter"/>
   </g>
   <g id="patch_118">
    <path d="M 424.440166 241.72 
L 429.450672 241.72 
L 429.450672 241.699398 
L 424.440166 241.699398 
z
" clip-path="url(#pd5bf5ca269)" style="fill: #2a7f8e; opacity: 0.55; stroke: #2a7f8e; stroke-width: 0.5; stroke-linejoin: miter"/>
   </g>
   <g id="patch_119">
    <path d="M 429.450672 241.72 
L 434.461179 241.72 
L 434.461179 241.709699 
L 429.450672 241.709699 
z
" clip-path="url(#pd5bf5ca269)" style="fill: #2a7f8e; opacity: 0.55; stroke: #2a7f8e; stroke-width: 0.5; stroke-linejoin: miter"/>
   </g>
   <g id="patch_120">
    <path d="M 434.461179 241.72 
L 439.471685 241.72 
L 439.471685 241.699398 
L 434.461179 241.699398 
z
" clip-path="url(#pd5bf5ca269)" style="fill: #2a7f8e; opacity: 0.55; stroke: #2a7f8e; stroke-width: 0.5; stroke-linejoin: miter"/>
   </g>
   <g id="patch_121">
    <path d="M 439.471685 241.72 
L 444.482192 241.72 
L 444.482192 241.709699 
L 439.471685 241.709699 
z
" clip-path="url(#pd5bf5ca269)" style="fill: #2a7f8e; opacity: 0.55; stroke: #2a7f8e; stroke-width: 0.5; stroke-linejoin: miter"/>
   </g>
   <g id="patch_122">
    <path d="M 444.482192 241.72 
L 449.492698 241.72 
L 449.492698 241.709699 
L 444.482192 241.709699 
z
" clip-path="url(#pd5bf5ca269)" style="fill: #2a7f8e; opacity: 0.55; stroke: #2a7f8e; stroke-width: 0.5; stroke-linejoin: miter"/>
   </g>
   <g id="patch_123">
    <path d="M 239.389522 241.72 
L 241.138143 241.72 
L 241.138143 241.690483 
L 239.389522 241.690483 
z
" clip-path="url(#pd5bf5ca269)" style="fill: #b5942a; opacity: 0.55; stroke: #b5942a; stroke-width: 0.5; stroke-linejoin: miter"/>
   </g>
   <g id="patch_124">
    <path d="M 241.138143 241.72 
L 242.886765 241.72 
L 242.886765 241.72 
L 241.138143 241.72 
z
" clip-path="url(#pd5bf5ca269)" style="fill: #b5942a; opacity: 0.55; stroke: #b5942a; stroke-width: 0.5; stroke-linejoin: miter"/>
   </g>
   <g id="patch_125">
    <path d="M 242.886765 241.72 
L 244.635386 241.72 
L 244.635386 241.690483 
L 242.886765 241.690483 
z
" clip-path="url(#pd5bf5ca269)" style="fill: #b5942a; opacity: 0.55; stroke: #b5942a; stroke-width: 0.5; stroke-linejoin: miter"/>
   </g>
   <g id="patch_126">
    <path d="M 244.635386 241.72 
L 246.384007 241.72 
L 246.384007 241.660967 
L 244.635386 241.660967 
z
" clip-path="url(#pd5bf5ca269)" style="fill: #b5942a; opacity: 0.55; stroke: #b5942a; stroke-width: 0.5; stroke-linejoin: miter"/>
   </g>
   <g id="patch_127">
    <path d="M 246.384007 241.72 
L 248.132629 241.72 
L 248.132629 241.690483 
L 246.384007 241.690483 
z
" clip-path="url(#pd5bf5ca269)" style="fill: #b5942a; opacity: 0.55; stroke: #b5942a; stroke-width: 0.5; stroke-linejoin: miter"/>
   </g>
   <g id="patch_128">
    <path d="M 248.132629 241.72 
L 249.88125 241.72 
L 249.88125 241.5429 
L 248.132629 241.5429 
z
" clip-path="url(#pd5bf5ca269)" style="fill: #b5942a; opacity: 0.55; stroke: #b5942a; stroke-width: 0.5; stroke-linejoin: miter"/>
   </g>
   <g id="patch_129">
    <path d="M 249.88125 241.72 
L 251.629871 241.72 
L 251.629871 241.483867 
L 249.88125 241.483867 
z
" clip-path="url(#pd5bf5ca269)" style="fill: #b5942a; opacity: 0.55; stroke: #b5942a; stroke-width: 0.5; stroke-linejoin: miter"/>
   </g>
   <g id="patch_130">
    <path d="M 251.629871 241.72 
L 253.378493 241.72 
L 253.378493 241.041117 
L 251.629871 241.041117 
z
" clip-path="url(#pd5bf5ca269)" style="fill: #b5942a; opacity: 0.55; stroke: #b5942a; stroke-width: 0.5; stroke-linejoin: miter"/>
   </g>
   <g id="patch_131">
    <path d="M 253.378493 241.72 
L 255.127114 241.72 
L 255.127114 240.834501 
L 253.378493 240.834501 
z
" clip-path="url(#pd5bf5ca269)" style="fill: #b5942a; opacity: 0.55; stroke: #b5942a; stroke-width: 0.5; stroke-linejoin: miter"/>
   </g>
   <g id="patch_132">
    <path d="M 255.127114 241.72 
L 256.875736 241.72 
L 256.875736 240.509818 
L 255.127114 240.509818 
z
" clip-path="url(#pd5bf5ca269)" style="fill: #b5942a; opacity: 0.55; stroke: #b5942a; stroke-width: 0.5; stroke-linejoin: miter"/>
   </g>
   <g id="patch_133">
    <path d="M 256.875736 241.72 
L 258.624357 241.72 
L 258.624357 239.624319 
L 256.875736 239.624319 
z
" clip-path="url(#pd5bf5ca269)" style="fill: #b5942a; opacity: 0.55; stroke: #b5942a; stroke-width: 0.5; stroke-linejoin: miter"/>
   </g>
   <g id="patch_134">
    <path d="M 258.624357 241.72 
L 260.372978 241.72 
L 260.372978 238.178004 
L 258.624357 238.178004 
z
" clip-path="url(#pd5bf5ca269)" style="fill: #b5942a; opacity: 0.55; stroke: #b5942a; stroke-width: 0.5; stroke-linejoin: miter"/>
   </g>
   <g id="patch_135">
    <path d="M 260.372978 241.72 
L 262.1216 241.72 
L 262.1216 236.820239 
L 260.372978 236.820239 
z
" clip-path="url(#pd5bf5ca269)" style="fill: #b5942a; opacity: 0.55; stroke: #b5942a; stroke-width: 0.5; stroke-linejoin: miter"/>
   </g>
   <g id="patch_136">
    <path d="M 262.1216 241.72 
L 263.870221 241.72 
L 263.870221 233.219209 
L 262.1216 233.219209 
z
" clip-path="url(#pd5bf5ca269)" style="fill: #b5942a; opacity: 0.55; stroke: #b5942a; stroke-width: 0.5; stroke-linejoin: miter"/>
   </g>
   <g id="patch_137">
    <path d="M 263.870221 241.72 
L 265.618842 241.72 
L 265.618842 230.533195 
L 263.870221 230.533195 
z
" clip-path="url(#pd5bf5ca269)" style="fill: #b5942a; opacity: 0.55; stroke: #b5942a; stroke-width: 0.5; stroke-linejoin: miter"/>
   </g>
   <g id="patch_138">
    <path d="M 265.618842 241.72 
L 267.367464 241.72 
L 267.367464 224.866001 
L 265.618842 224.866001 
z
" clip-path="url(#pd5bf5ca269)" style="fill: #b5942a; opacity: 0.55; stroke: #b5942a; stroke-width: 0.5; stroke-linejoin: miter"/>
   </g>
   <g id="patch_139">
    <path d="M 267.367464 241.72 
L 269.116085 241.72 
L 269.116085 216.955543 
L 267.367464 216.955543 
z
" clip-path="url(#pd5bf5ca269)" style="fill: #b5942a; opacity: 0.55; stroke: #b5942a; stroke-width: 0.5; stroke-linejoin: miter"/>
   </g>
   <g id="patch_140">
    <path d="M 269.116085 241.72 
L 270.864707 241.72 
L 270.864707 209.783 
L 269.116085 209.783 
z
" clip-path="url(#pd5bf5ca269)" style="fill: #b5942a; opacity: 0.55; stroke: #b5942a; stroke-width: 0.5; stroke-linejoin: miter"/>
   </g>
   <g id="patch_141">
    <path d="M 270.864707 241.72 
L 272.613328 241.72 
L 272.613328 200.691877 
L 270.864707 200.691877 
z
" clip-path="url(#pd5bf5ca269)" style="fill: #b5942a; opacity: 0.55; stroke: #b5942a; stroke-width: 0.5; stroke-linejoin: miter"/>
   </g>
   <g id="patch_142">
    <path d="M 272.613328 241.72 
L 274.361949 241.72 
L 274.361949 188.176823 
L 272.613328 188.176823 
z
" clip-path="url(#pd5bf5ca269)" style="fill: #b5942a; opacity: 0.55; stroke: #b5942a; stroke-width: 0.5; stroke-linejoin: miter"/>
   </g>
   <g id="patch_143">
    <path d="M 274.361949 241.72 
L 276.110571 241.72 
L 276.110571 171.617991 
L 274.361949 171.617991 
z
" clip-path="url(#pd5bf5ca269)" style="fill: #b5942a; opacity: 0.55; stroke: #b5942a; stroke-width: 0.5; stroke-linejoin: miter"/>
   </g>
   <g id="patch_144">
    <path d="M 276.110571 241.72 
L 277.859192 241.72 
L 277.859192 156.033207 
L 276.110571 156.033207 
z
" clip-path="url(#pd5bf5ca269)" style="fill: #b5942a; opacity: 0.55; stroke: #b5942a; stroke-width: 0.5; stroke-linejoin: miter"/>
   </g>
   <g id="patch_145">
    <path d="M 277.859192 241.72 
L 279.607813 241.72 
L 279.607813 138.647909 
L 277.859192 138.647909 
z
" clip-path="url(#pd5bf5ca269)" style="fill: #b5942a; opacity: 0.55; stroke: #b5942a; stroke-width: 0.5; stroke-linejoin: miter"/>
   </g>
   <g id="patch_146">
    <path d="M 279.607813 241.72 
L 281.356435 241.72 
L 281.356435 115.683966 
L 279.607813 115.683966 
z
" clip-path="url(#pd5bf5ca269)" style="fill: #b5942a; opacity: 0.55; stroke: #b5942a; stroke-width: 0.5; stroke-linejoin: miter"/>
   </g>
   <g id="patch_147">
    <path d="M 281.356435 241.72 
L 283.105056 241.72 
L 283.105056 98.298668 
L 281.356435 98.298668 
z
" clip-path="url(#pd5bf5ca269)" style="fill: #b5942a; opacity: 0.55; stroke: #b5942a; stroke-width: 0.5; stroke-linejoin: miter"/>
   </g>
   <g id="patch_148">
    <path d="M 283.105056 241.72 
L 284.853678 241.72 
L 284.853678 75.836508 
L 283.105056 75.836508 
z
" clip-path="url(#pd5bf5ca269)" style="fill: #b5942a; opacity: 0.55; stroke: #b5942a; stroke-width: 0.5; stroke-linejoin: miter"/>
   </g>
   <g id="patch_149">
    <path d="M 284.853678 241.72 
L 286.602299 241.72 
L 286.602299 52.990633 
L 284.853678 52.990633 
z
" clip-path="url(#pd5bf5ca269)" style="fill: #b5942a; opacity: 0.55; stroke: #b5942a; stroke-width: 0.5; stroke-linejoin: miter"/>
   </g>
   <g id="patch_150">
    <path d="M 286.602299 241.72 
L 288.35092 241.72 
L 288.35092 40.268963 
L 286.602299 40.268963 
z
" clip-path="url(#pd5bf5ca269)" style="fill: #b5942a; opacity: 0.55; stroke: #b5942a; stroke-width: 0.5; stroke-linejoin: miter"/>
   </g>
   <g id="patch_151">
    <path d="M 288.35092 241.72 
L 290.099542 241.72 
L 290.099542 32.594637 
L 288.35092 32.594637 
z
" clip-path="url(#pd5bf5ca269)" style="fill: #b5942a; opacity: 0.55; stroke: #b5942a; stroke-width: 0.5; stroke-linejoin: miter"/>
   </g>
   <g id="patch_152">
    <path d="M 290.099542 241.72 
L 291.848163 241.72 
L 291.848163 18.869402 
L 290.099542 18.869402 
z
" clip-path="url(#pd5bf5ca269)" style="fill: #b5942a; opacity: 0.55; stroke: #b5942a; stroke-width: 0.5; stroke-linejoin: miter"/>
   </g>
   <g id="patch_153">
    <path d="M 291.848163 241.72 
L 293.596784 241.72 
L 293.596784 18.367619 
L 291.848163 18.367619 
z
" clip-path="url(#pd5bf5ca269)" style="fill: #b5942a; opacity: 0.55; stroke: #b5942a; stroke-width: 0.5; stroke-linejoin: miter"/>
   </g>
   <g id="patch_154">
    <path d="M 293.596784 241.72 
L 295.345406 241.72 
L 295.345406 19.872967 
L 293.596784 19.872967 
z
" clip-path="url(#pd5bf5ca269)" style="fill: #b5942a; opacity: 0.55; stroke: #b5942a; stroke-width: 0.5; stroke-linejoin: miter"/>
   </g>
   <g id="patch_155">
    <path d="M 295.345406 241.72 
L 297.094027 241.72 
L 297.094027 31.413972 
L 295.345406 31.413972 
z
" clip-path="url(#pd5bf5ca269)" style="fill: #b5942a; opacity: 0.55; stroke: #b5942a; stroke-width: 0.5; stroke-linejoin: miter"/>
   </g>
   <g id="patch_156">
    <path d="M 297.094027 241.72 
L 298.842649 241.72 
L 298.842649 40.623162 
L 297.094027 40.623162 
z
" clip-path="url(#pd5bf5ca269)" style="fill: #b5942a; opacity: 0.55; stroke: #b5942a; stroke-width: 0.5; stroke-linejoin: miter"/>
   </g>
   <g id="patch_157">
    <path d="M 298.842649 241.72 
L 300.59127 241.72 
L 300.59127 54.495981 
L 298.842649 54.495981 
z
" clip-path="url(#pd5bf5ca269)" style="fill: #b5942a; opacity: 0.55; stroke: #b5942a; stroke-width: 0.5; stroke-linejoin: miter"/>
   </g>
   <g id="patch_158">
    <path d="M 300.59127 241.72 
L 302.339891 241.72 
L 302.339891 76.072641 
L 300.59127 76.072641 
z
" clip-path="url(#pd5bf5ca269)" style="fill: #b5942a; opacity: 0.55; stroke: #b5942a; stroke-width: 0.5; stroke-linejoin: miter"/>
   </g>
   <g id="patch_159">
    <path d="M 302.339891 241.72 
L 304.088513 241.72 
L 304.088513 89.94546 
L 302.339891 89.94546 
z
" clip-path="url(#pd5bf5ca269)" style="fill: #b5942a; opacity: 0.55; stroke: #b5942a; stroke-width: 0.5; stroke-linejoin: miter"/>
   </g>
   <g id="patch_160">
    <path d="M 304.088513 241.72 
L 305.837134 241.72 
L 305.837134 112.909403 
L 304.088513 112.909403 
z
" clip-path="url(#pd5bf5ca269)" style="fill: #b5942a; opacity: 0.55; stroke: #b5942a; stroke-width: 0.5; stroke-linejoin: miter"/>
   </g>
   <g id="patch_161">
    <path d="M 305.837134 241.72 
L 307.585755 241.72 
L 307.585755 135.578179 
L 305.837134 135.578179 
z
" clip-path="url(#pd5bf5ca269)" style="fill: #b5942a; opacity: 0.55; stroke: #b5942a; stroke-width: 0.5; stroke-linejoin: miter"/>
   </g>
   <g id="patch_162">
    <path d="M 307.585755 241.72 
L 309.334377 241.72 
L 309.334377 153.583326 
L 307.585755 153.583326 
z
" clip-path="url(#pd5bf5ca269)" style="fill: #b5942a; opacity: 0.55; stroke: #b5942a; stroke-width: 0.5; stroke-linejoin: miter"/>
   </g>
   <g id="patch_163">
    <path d="M 309.334377 241.72 
L 311.082998 241.72 
L 311.082998 170.083126 
L 309.334377 170.083126 
z
" clip-path="url(#pd5bf5ca269)" style="fill: #b5942a; opacity: 0.55; stroke: #b5942a; stroke-width: 0.5; stroke-linejoin: miter"/>
   </g>
   <g id="patch_164">
    <path d="M 311.082998 241.72 
L 312.83162 241.72 
L 312.83162 184.162561 
L 311.082998 184.162561 
z
" clip-path="url(#pd5bf5ca269)" style="fill: #b5942a; opacity: 0.55; stroke: #b5942a; stroke-width: 0.5; stroke-linejoin: miter"/>
   </g>
   <g id="patch_165">
    <path d="M 312.83162 241.72 
L 314.580241 241.72 
L 314.580241 197.76973 
L 312.83162 197.76973 
z
" clip-path="url(#pd5bf5ca269)" style="fill: #b5942a; opacity: 0.55; stroke: #b5942a; stroke-width: 0.5; stroke-linejoin: miter"/>
   </g>
   <g id="patch_166">
    <path d="M 314.580241 241.72 
L 316.328862 241.72 
L 316.328862 211.022699 
L 314.580241 211.022699 
z
" clip-path="url(#pd5bf5ca269)" style="fill: #b5942a; opacity: 0.55; stroke: #b5942a; stroke-width: 0.5; stroke-linejoin: miter"/>
   </g>
   <g id="patch_167">
    <path d="M 316.328862 241.72 
L 318.077484 241.72 
L 318.077484 215.951977 
L 316.328862 215.951977 
z
" clip-path="url(#pd5bf5ca269)" style="fill: #b5942a; opacity: 0.55; stroke: #b5942a; stroke-width: 0.5; stroke-linejoin: miter"/>
   </g>
   <g id="patch_168">
    <path d="M 318.077484 241.72 
L 319.826105 241.72 
L 319.826105 225.84005 
L 318.077484 225.84005 
z
" clip-path="url(#pd5bf5ca269)" style="fill: #b5942a; opacity: 0.55; stroke: #b5942a; stroke-width: 0.5; stroke-linejoin: miter"/>
   </g>
   <g id="patch_169">
    <path d="M 319.826105 241.72 
L 321.574726 241.72 
L 321.574726 229.677213 
L 319.826105 229.677213 
z
" clip-path="url(#pd5bf5ca269)" style="fill: #b5942a; opacity: 0.55; stroke: #b5942a; stroke-width: 0.5; stroke-linejoin: miter"/>
   </g>
   <g id="patch_170">
    <path d="M 321.574726 241.72 
L 323.323348 241.72 
L 323.323348 233.720992 
L 321.574726 233.720992 
z
" clip-path="url(#pd5bf5ca269)" style="fill: #b5942a; opacity: 0.55; stroke: #b5942a; stroke-width: 0.5; stroke-linejoin: miter"/>
   </g>
   <g id="patch_171">
    <path d="M 323.323348 241.72 
L 325.071969 241.72 
L 325.071969 236.141356 
L 323.323348 236.141356 
z
" clip-path="url(#pd5bf5ca269)" style="fill: #b5942a; opacity: 0.55; stroke: #b5942a; stroke-width: 0.5; stroke-linejoin: miter"/>
   </g>
   <g id="patch_172">
    <path d="M 325.071969 241.72 
L 326.820591 241.72 
L 326.820591 238.237037 
L 325.071969 238.237037 
z
" clip-path="url(#pd5bf5ca269)" style="fill: #b5942a; opacity: 0.55; stroke: #b5942a; stroke-width: 0.5; stroke-linejoin: miter"/>
   </g>
   <g id="patch_173">
    <path d="M 326.820591 241.72 
L 328.569212 241.72 
L 328.569212 239.506252 
L 326.820591 239.506252 
z
" clip-path="url(#pd5bf5ca269)" style="fill: #b5942a; opacity: 0.55; stroke: #b5942a; stroke-width: 0.5; stroke-linejoin: miter"/>
   </g>
   <g id="patch_174">
    <path d="M 328.569212 241.72 
L 330.317833 241.72 
L 330.317833 240.126102 
L 328.569212 240.126102 
z
" clip-path="url(#pd5bf5ca269)" style="fill: #b5942a; opacity: 0.55; stroke: #b5942a; stroke-width: 0.5; stroke-linejoin: miter"/>
   </g>
   <g id="patch_175">
    <path d="M 330.317833 241.72 
L 332.066455 241.72 
L 332.066455 241.218217 
L 330.317833 241.218217 
z
" clip-path="url(#pd5bf5ca269)" style="fill: #b5942a; opacity: 0.55; stroke: #b5942a; stroke-width: 0.5; stroke-linejoin: miter"/>
   </g>
   <g id="patch_176">
    <path d="M 332.066455 241.72 
L 333.815076 241.72 
L 333.815076 241.395317 
L 332.066455 241.395317 
z
" clip-path="url(#pd5bf5ca269)" style="fill: #b5942a; opacity: 0.55; stroke: #b5942a; stroke-width: 0.5; stroke-linejoin: miter"/>
   </g>
   <g id="patch_177">
    <path d="M 333.815076 241.72 
L 335.563697 241.72 
L 335.563697 241.424834 
L 333.815076 241.424834 
z
" clip-path="url(#pd5bf5ca269)" style="fill: #b5942a; opacity: 0.55; stroke: #b5942a; stroke-width: 0.5; stroke-linejoin: miter"/>
   </g>
   <g id="patch_178">
    <path d="M 335.563697 241.72 
L 337.312319 241.72 
L 337.312319 241.572417 
L 335.563697 241.572417 
z
" clip-path="url(#pd5bf5ca269)" style="fill: #b5942a; opacity: 0.55; stroke: #b5942a; stroke-width: 0.5; stroke-linejoin: miter"/>
   </g>
   <g id="patch_179">
    <path d="M 337.312319 241.72 
L 339.06094 241.72 
L 339.06094 241.63145 
L 337.312319 241.63145 
z
" clip-path="url(#pd5bf5ca269)" style="fill: #b5942a; opacity: 0.55; stroke: #b5942a; stroke-width: 0.5; stroke-linejoin: miter"/>
   </g>
   <g id="patch_180">
    <path d="M 339.06094 241.72 
L 340.809562 241.72 
L 340.809562 241.72 
L 339.06094 241.72 
z
" clip-path="url(#pd5bf5ca269)" style="fill: #b5942a; opacity: 0.55; stroke: #b5942a; stroke-width: 0.5; stroke-linejoin: miter"/>
   </g>
   <g id="patch_181">
    <path d="M 340.809562 241.72 
L 342.558183 241.72 
L 342.558183 241.690483 
L 340.809562 241.690483 
z
" clip-path="url(#pd5bf5ca269)" style="fill: #b5942a; opacity: 0.55; stroke: #b5942a; stroke-width: 0.5; stroke-linejoin: miter"/>
   </g>
   <g id="patch_182">
    <path d="M 342.558183 241.72 
L 344.306804 241.72 
L 344.306804 241.690483 
L 342.558183 241.690483 
z
" clip-path="url(#pd5bf5ca269)" style="fill: #b5942a; opacity: 0.55; stroke: #b5942a; stroke-width: 0.5; stroke-linejoin: miter"/>
   </g>
   <g id="matplotlib.axis_1">
    <g id="xtick_1">
     <g id="line2d_1">
      <defs>
       <path id="mea1744aab1" d="M 0 0 
L 0 3.5 
" style="stroke: #000000; stroke-width: 0.8"/>
      </defs>
      <g>
       <use xlink:href="#mea1744aab1" x="35.208438" y="241.72" style="stroke: #000000; stroke-width: 0.8"/>
      </g>
     </g>
     <g id="text_1">
      <!-- −1.00 -->
      <g transform="translate(19.885781 256.318437) scale(0.1 -0.1)">
       <defs>
        <path id="DejaVuSans-2212" d="M 678 2272 
L 4684 2272 
L 4684 1741 
L 678 1741 
L 678 2272 
z
" transform="scale(0.015625)"/>
        <path id="DejaVuSans-31" d="M 794 531 
L 1825 531 
L 1825 4091 
L 703 3866 
L 703 4441 
L 1819 4666 
L 2450 4666 
L 2450 531 
L 3481 531 
L 3481 0 
L 794 0 
L 794 531 
z
" transform="scale(0.015625)"/>
        <path id="DejaVuSans-2e" d="M 684 794 
L 1344 794 
L 1344 0 
L 684 0 
L 684 794 
z
" transform="scale(0.015625)"/>
        <path id="DejaVuSans-30" d="M 2034 4250 
Q 1547 4250 1301 3770 
Q 1056 3291 1056 2328 
Q 1056 1369 1301 889 
Q 1547 409 2034 409 
Q 2525 409 2770 889 
Q 3016 1369 3016 2328 
Q 3016 3291 2770 3770 
Q 2525 4250 2034 4250 
z
M 2034 4750 
Q 2819 4750 3233 4129 
Q 3647 3509 3647 2328 
Q 3647 1150 3233 529 
Q 2819 -91 2034 -91 
Q 1250 -91 836 529 
Q 422 1150 422 2328 
Q 422 3509 836 4129 
Q 1250 4750 2034 4750 
z
" transform="scale(0.015625)"/>
       </defs>
       <use xlink:href="#DejaVuSans-2212"/>
       <use xlink:href="#DejaVuSans-31" transform="translate(83.789062 0)"/>
       <use xlink:href="#DejaVuSans-2e" transform="translate(147.412109 0)"/>
       <use xlink:href="#DejaVuSans-30" transform="translate(179.199219 0)"/>
       <use xlink:href="#DejaVuSans-30" transform="translate(242.822266 0)"/>
      </g>
     </g>
    </g>
    <g id="xtick_2">
     <g id="line2d_2">
      <g>
       <use xlink:href="#mea1744aab1" x="99.600938" y="241.72" style="stroke: #000000; stroke-width: 0.8"/>
      </g>
     </g>
     <g id="text_2">
      <!-- −0.75 -->
      <g transform="translate(84.278281 256.318437) scale(0.1 -0.1)">
       <defs>
        <path id="DejaVuSans-37" d="M 525 4666 
L 3525 4666 
L 3525 4397 
L 1831 0 
L 1172 0 
L 2766 4134 
L 525 4134 
L 525 4666 
z
" transform="scale(0.015625)"/>
        <path id="DejaVuSans-35" d="M 691 4666 
L 3169 4666 
L 3169 4134 
L 1269 4134 
L 1269 2991 
Q 1406 3038 1543 3061 
Q 1681 3084 1819 3084 
Q 2600 3084 3056 2656 
Q 3513 2228 3513 1497 
Q 3513 744 3044 326 
Q 2575 -91 1722 -91 
Q 1428 -91 1123 -41 
Q 819 9 494 109 
L 494 744 
Q 775 591 1075 516 
Q 1375 441 1709 441 
Q 2250 441 2565 725 
Q 2881 1009 2881 1497 
Q 2881 1984 2565 2268 
Q 2250 2553 1709 2553 
Q 1456 2553 1204 2497 
Q 953 2441 691 2322 
L 691 4666 
z
" transform="scale(0.015625)"/>
       </defs>
       <use xlink:href="#DejaVuSans-2212"/>
       <use xlink:href="#DejaVuSans-30" transform="translate(83.789062 0)"/>
       <use xlink:href="#DejaVuSans-2e" transform="translate(147.412109 0)"/>
       <use xlink:href="#DejaVuSans-37" transform="translate(179.199219 0)"/>
       <use xlink:href="#DejaVuSans-35" transform="translate(242.822266 0)"/>
      </g>
     </g>
    </g>
    <g id="xtick_3">
     <g id="line2d_3">
      <g>
       <use xlink:href="#mea1744aab1" x="163.993438" y="241.72" style="stroke: #000000; stroke-width: 0.8"/>
      </g>
     </g>
     <g id="text_3">
      <!-- −0.50 -->
      <g transform="translate(148.670781 256.318437) scale(0.1 -0.1)">
       <use xlink:href="#DejaVuSans-2212"/>
       <use xlink:href="#DejaVuSans-30" transform="translate(83.789062 0)"/>
       <use xlink:href="#DejaVuSans-2e" transform="translate(147.412109 0)"/>
       <use xlink:href="#DejaVuSans-35" transform="translate(179.199219 0)"/>
       <use xlink:href="#DejaVuSans-30" transform="translate(242.822266 0)"/>
      </g>
     </g>
    </g>
    <g id="xtick_4">
     <g id="line2d_4">
      <g>
       <use xlink:href="#mea1744aab1" x="228.385938" y="241.72" style="stroke: #000000; stroke-width: 0.8"/>
      </g>
     </g>
     <g id="text_4">
      <!-- −0.25 -->
      <g transform="translate(213.063281 256.318437) scale(0.1 -0.1)">
       <defs>
        <path id="DejaVuSans-32" d="M 1228 531 
L 3431 531 
L 3431 0 
L 469 0 
L 469 531 
Q 828 903 1448 1529 
Q 2069 2156 2228 2338 
Q 2531 2678 2651 2914 
Q 2772 3150 2772 3378 
Q 2772 3750 2511 3984 
Q 2250 4219 1831 4219 
Q 1534 4219 1204 4116 
Q 875 4013 500 3803 
L 500 4441 
Q 881 4594 1212 4672 
Q 1544 4750 1819 4750 
Q 2544 4750 2975 4387 
Q 3406 4025 3406 3419 
Q 3406 3131 3298 2873 
Q 3191 2616 2906 2266 
Q 2828 2175 2409 1742 
Q 1991 1309 1228 531 
z
" transform="scale(0.015625)"/>
       </defs>
       <use xlink:href="#DejaVuSans-2212"/>
       <use xlink:href="#DejaVuSans-30" transform="translate(83.789062 0)"/>
       <use xlink:href="#DejaVuSans-2e" transform="translate(147.412109 0)"/>
       <use xlink:href="#DejaVuSans-32" transform="translate(179.199219 0)"/>
       <use xlink:href="#DejaVuSans-35" transform="translate(242.822266 0)"/>
      </g>
     </g>
    </g>
    <g id="xtick_5">
     <g id="line2d_5">
      <g>
       <use xlink:href="#mea1744aab1" x="292.778438" y="241.72" style="stroke: #000000; stroke-width: 0.8"/>
      </g>
     </g>
     <g id="text_5">
      <!-- 0.00 -->
      <g transform="translate(281.645625 256.318437) scale(0.1 -0.1)">
       <use xlink:href="#DejaVuSans-30"/>
       <use xlink:href="#DejaVuSans-2e" transform="translate(63.623047 0)"/>
       <use xlink:href="#DejaVuSans-30" transform="translate(95.410156 0)"/>
       <use xlink:href="#DejaVuSans-30" transform="translate(159.033203 0)"/>
      </g>
     </g>
    </g>
    <g id="xtick_6">
     <g id="line2d_6">
      <g>
       <use xlink:href="#mea1744aab1" x="357.170938" y="241.72" style="stroke: #000000; stroke-width: 0.8"/>
      </g>
     </g>
     <g id="text_6">
      <!-- 0.25 -->
      <g transform="translate(346.038125 256.318437) scale(0.1 -0.1)">
       <use xlink:href="#DejaVuSans-30"/>
       <use xlink:href="#DejaVuSans-2e" transform="translate(63.623047 0)"/>
       <use xlink:href="#DejaVuSans-32" transform="translate(95.410156 0)"/>
       <use xlink:href="#DejaVuSans-35" transform="translate(159.033203 0)"/>
      </g>
     </g>
    </g>
    <g id="xtick_7">
     <g id="line2d_7">
      <g>
       <use xlink:href="#mea1744aab1" x="421.563438" y="241.72" style="stroke: #000000; stroke-width: 0.8"/>
      </g>
     </g>
     <g id="text_7">
      <!-- 0.50 -->
      <g transform="translate(410.430625 256.318437) scale(0.1 -0.1)">
       <use xlink:href="#DejaVuSans-30"/>
       <use xlink:href="#DejaVuSans-2e" transform="translate(63.623047 0)"/>
       <use xlink:href="#DejaVuSans-35" transform="translate(95.410156 0)"/>
       <use xlink:href="#DejaVuSans-30" transform="translate(159.033203 0)"/>
      </g>
     </g>
    </g>
    <g id="xtick_8">
     <g id="line2d_8">
      <g>
       <use xlink:href="#mea1744aab1" x="485.955938" y="241.72" style="stroke: #000000; stroke-width: 0.8"/>
      </g>
     </g>
     <g id="text_8">
      <!-- 0.75 -->
      <g transform="translate(474.823125 256.318437) scale(0.1 -0.1)">
       <use xlink:href="#DejaVuSans-30"/>
       <use xlink:href="#DejaVuSans-2e" transform="translate(63.623047 0)"/>
       <use xlink:href="#DejaVuSans-37" transform="translate(95.410156 0)"/>
       <use xlink:href="#DejaVuSans-35" transform="translate(159.033203 0)"/>
      </g>
     </g>
    </g>
    <g id="xtick_9">
     <g id="line2d_9">
      <g>
       <use xlink:href="#mea1744aab1" x="550.348438" y="241.72" style="stroke: #000000; stroke-width: 0.8"/>
      </g>
     </g>
     <g id="text_9">
      <!-- 1.00 -->
      <g transform="translate(539.215625 256.318437) scale(0.1 -0.1)">
       <use xlink:href="#DejaVuSans-31"/>
       <use xlink:href="#DejaVuSans-2e" transform="translate(63.623047 0)"/>
       <use xlink:href="#DejaVuSans-30" transform="translate(95.410156 0)"/>
       <use xlink:href="#DejaVuSans-30" transform="translate(159.033203 0)"/>
      </g>
     </g>
    </g>
    <g id="text_10">
     <!-- Dot product (cosine similarity) -->
     <g transform="translate(209.304766 270.756406) scale(0.11 -0.11)">
      <defs>
       <path id="DejaVuSans-44" d="M 1259 4147 
L 1259 519 
L 2022 519 
Q 2988 519 3436 956 
Q 3884 1394 3884 2338 
Q 3884 3275 3436 3711 
Q 2988 4147 2022 4147 
L 1259 4147 
z
M 628 4666 
L 1925 4666 
Q 3281 4666 3915 4102 
Q 4550 3538 4550 2338 
Q 4550 1131 3912 565 
Q 3275 0 1925 0 
L 628 0 
L 628 4666 
z
" transform="scale(0.015625)"/>
       <path id="DejaVuSans-6f" d="M 1959 3097 
Q 1497 3097 1228 2736 
Q 959 2375 959 1747 
Q 959 1119 1226 758 
Q 1494 397 1959 397 
Q 2419 397 2687 759 
Q 2956 1122 2956 1747 
Q 2956 2369 2687 2733 
Q 2419 3097 1959 3097 
z
M 1959 3584 
Q 2709 3584 3137 3096 
Q 3566 2609 3566 1747 
Q 3566 888 3137 398 
Q 2709 -91 1959 -91 
Q 1206 -91 779 398 
Q 353 888 353 1747 
Q 353 2609 779 3096 
Q 1206 3584 1959 3584 
z
" transform="scale(0.015625)"/>
       <path id="DejaVuSans-74" d="M 1172 4494 
L 1172 3500 
L 2356 3500 
L 2356 3053 
L 1172 3053 
L 1172 1153 
Q 1172 725 1289 603 
Q 1406 481 1766 481 
L 2356 481 
L 2356 0 
L 1766 0 
Q 1100 0 847 248 
Q 594 497 594 1153 
L 594 3053 
L 172 3053 
L 172 3500 
L 594 3500 
L 594 4494 
L 1172 4494 
z
" transform="scale(0.015625)"/>
       <path id="DejaVuSans-20" transform="scale(0.015625)"/>
       <path id="DejaVuSans-70" d="M 1159 525 
L 1159 -1331 
L 581 -1331 
L 581 3500 
L 1159 3500 
L 1159 2969 
Q 1341 3281 1617 3432 
Q 1894 3584 2278 3584 
Q 2916 3584 3314 3078 
Q 3713 2572 3713 1747 
Q 3713 922 3314 415 
Q 2916 -91 2278 -91 
Q 1894 -91 1617 61 
Q 1341 213 1159 525 
z
M 3116 1747 
Q 3116 2381 2855 2742 
Q 2594 3103 2138 3103 
Q 1681 3103 1420 2742 
Q 1159 2381 1159 1747 
Q 1159 1113 1420 752 
Q 1681 391 2138 391 
Q 2594 391 2855 752 
Q 3116 1113 3116 1747 
z
" transform="scale(0.015625)"/>
       <path id="DejaVuSans-72" d="M 2631 2963 
Q 2534 3019 2420 3045 
Q 2306 3072 2169 3072 
Q 1681 3072 1420 2755 
Q 1159 2438 1159 1844 
L 1159 0 
L 581 0 
L 581 3500 
L 1159 3500 
L 1159 2956 
Q 1341 3275 1631 3429 
Q 1922 3584 2338 3584 
Q 2397 3584 2469 3576 
Q 2541 3569 2628 3553 
L 2631 2963 
z
" transform="scale(0.015625)"/>
       <path id="DejaVuSans-64" d="M 2906 2969 
L 2906 4863 
L 3481 4863 
L 3481 0 
L 2906 0 
L 2906 525 
Q 2725 213 2448 61 
Q 2172 -91 1784 -91 
Q 1150 -91 751 415 
Q 353 922 353 1747 
Q 353 2572 751 3078 
Q 1150 3584 1784 3584 
Q 2172 3584 2448 3432 
Q 2725 3281 2906 2969 
z
M 947 1747 
Q 947 1113 1208 752 
Q 1469 391 1925 391 
Q 2381 391 2643 752 
Q 2906 1113 2906 1747 
Q 2906 2381 2643 2742 
Q 2381 3103 1925 3103 
Q 1469 3103 1208 2742 
Q 947 2381 947 1747 
z
" transform="scale(0.015625)"/>
       <path id="DejaVuSans-75" d="M 544 1381 
L 544 3500 
L 1119 3500 
L 1119 1403 
Q 1119 906 1312 657 
Q 1506 409 1894 409 
Q 2359 409 2629 706 
Q 2900 1003 2900 1516 
L 2900 3500 
L 3475 3500 
L 3475 0 
L 2900 0 
L 2900 538 
Q 2691 219 2414 64 
Q 2138 -91 1772 -91 
Q 1169 -91 856 284 
Q 544 659 544 1381 
z
M 1991 3584 
L 1991 3584 
z
" transform="scale(0.015625)"/>
       <path id="DejaVuSans-63" d="M 3122 3366 
L 3122 2828 
Q 2878 2963 2633 3030 
Q 2388 3097 2138 3097 
Q 1578 3097 1268 2742 
Q 959 2388 959 1747 
Q 959 1106 1268 751 
Q 1578 397 2138 397 
Q 2388 397 2633 464 
Q 2878 531 3122 666 
L 3122 134 
Q 2881 22 2623 -34 
Q 2366 -91 2075 -91 
Q 1284 -91 818 406 
Q 353 903 353 1747 
Q 353 2603 823 3093 
Q 1294 3584 2113 3584 
Q 2378 3584 2631 3529 
Q 2884 3475 3122 3366 
z
" transform="scale(0.015625)"/>
       <path id="DejaVuSans-28" d="M 1984 4856 
Q 1566 4138 1362 3434 
Q 1159 2731 1159 2009 
Q 1159 1288 1364 580 
Q 1569 -128 1984 -844 
L 1484 -844 
Q 1016 -109 783 600 
Q 550 1309 550 2009 
Q 550 2706 781 3412 
Q 1013 4119 1484 4856 
L 1984 4856 
z
" transform="scale(0.015625)"/>
       <path id="DejaVuSans-73" d="M 2834 3397 
L 2834 2853 
Q 2591 2978 2328 3040 
Q 2066 3103 1784 3103 
Q 1356 3103 1142 2972 
Q 928 2841 928 2578 
Q 928 2378 1081 2264 
Q 1234 2150 1697 2047 
L 1894 2003 
Q 2506 1872 2764 1633 
Q 3022 1394 3022 966 
Q 3022 478 2636 193 
Q 2250 -91 1575 -91 
Q 1294 -91 989 -36 
Q 684 19 347 128 
L 347 722 
Q 666 556 975 473 
Q 1284 391 1588 391 
Q 1994 391 2212 530 
Q 2431 669 2431 922 
Q 2431 1156 2273 1281 
Q 2116 1406 1581 1522 
L 1381 1569 
Q 847 1681 609 1914 
Q 372 2147 372 2553 
Q 372 3047 722 3315 
Q 1072 3584 1716 3584 
Q 2034 3584 2315 3537 
Q 2597 3491 2834 3397 
z
" transform="scale(0.015625)"/>
       <path id="DejaVuSans-69" d="M 603 3500 
L 1178 3500 
L 1178 0 
L 603 0 
L 603 3500 
z
M 603 4863 
L 1178 4863 
L 1178 4134 
L 603 4134 
L 603 4863 
z
" transform="scale(0.015625)"/>
       <path id="DejaVuSans-6e" d="M 3513 2113 
L 3513 0 
L 2938 0 
L 2938 2094 
Q 2938 2591 2744 2837 
Q 2550 3084 2163 3084 
Q 1697 3084 1428 2787 
Q 1159 2491 1159 1978 
L 1159 0 
L 581 0 
L 581 3500 
L 1159 3500 
L 1159 2956 
Q 1366 3272 1645 3428 
Q 1925 3584 2291 3584 
Q 2894 3584 3203 3211 
Q 3513 2838 3513 2113 
z
" transform="scale(0.015625)"/>
       <path id="DejaVuSans-65" d="M 3597 1894 
L 3597 1613 
L 953 1613 
Q 991 1019 1311 708 
Q 1631 397 2203 397 
Q 2534 397 2845 478 
Q 3156 559 3463 722 
L 3463 178 
Q 3153 47 2828 -22 
Q 2503 -91 2169 -91 
Q 1331 -91 842 396 
Q 353 884 353 1716 
Q 353 2575 817 3079 
Q 1281 3584 2069 3584 
Q 2775 3584 3186 3129 
Q 3597 2675 3597 1894 
z
M 3022 2063 
Q 3016 2534 2758 2815 
Q 2500 3097 2075 3097 
Q 1594 3097 1305 2825 
Q 1016 2553 972 2059 
L 3022 2063 
z
" transform="scale(0.015625)"/>
       <path id="DejaVuSans-6d" d="M 3328 2828 
Q 3544 3216 3844 3400 
Q 4144 3584 4550 3584 
Q 5097 3584 5394 3201 
Q 5691 2819 5691 2113 
L 5691 0 
L 5113 0 
L 5113 2094 
Q 5113 2597 4934 2840 
Q 4756 3084 4391 3084 
Q 3944 3084 3684 2787 
Q 3425 2491 3425 1978 
L 3425 0 
L 2847 0 
L 2847 2094 
Q 2847 2600 2669 2842 
Q 2491 3084 2119 3084 
Q 1678 3084 1418 2786 
Q 1159 2488 1159 1978 
L 1159 0 
L 581 0 
L 581 3500 
L 1159 3500 
L 1159 2956 
Q 1356 3278 1631 3431 
Q 1906 3584 2284 3584 
Q 2666 3584 2933 3390 
Q 3200 3197 3328 2828 
z
" transform="scale(0.015625)"/>
       <path id="DejaVuSans-6c" d="M 603 4863 
L 1178 4863 
L 1178 0 
L 603 0 
L 603 4863 
z
" transform="scale(0.015625)"/>
       <path id="DejaVuSans-61" d="M 2194 1759 
Q 1497 1759 1228 1600 
Q 959 1441 959 1056 
Q 959 750 1161 570 
Q 1363 391 1709 391 
Q 2188 391 2477 730 
Q 2766 1069 2766 1631 
L 2766 1759 
L 2194 1759 
z
M 3341 1997 
L 3341 0 
L 2766 0 
L 2766 531 
Q 2569 213 2275 61 
Q 1981 -91 1556 -91 
Q 1019 -91 701 211 
Q 384 513 384 1019 
Q 384 1609 779 1909 
Q 1175 2209 1959 2209 
L 2766 2209 
L 2766 2266 
Q 2766 2663 2505 2880 
Q 2244 3097 1772 3097 
Q 1472 3097 1187 3025 
Q 903 2953 641 2809 
L 641 3341 
Q 956 3463 1253 3523 
Q 1550 3584 1831 3584 
Q 2591 3584 2966 3190 
Q 3341 2797 3341 1997 
z
" transform="scale(0.015625)"/>
       <path id="DejaVuSans-79" d="M 2059 -325 
Q 1816 -950 1584 -1140 
Q 1353 -1331 966 -1331 
L 506 -1331 
L 506 -850 
L 844 -850 
Q 1081 -850 1212 -737 
Q 1344 -625 1503 -206 
L 1606 56 
L 191 3500 
L 800 3500 
L 1894 763 
L 2988 3500 
L 3597 3500 
L 2059 -325 
z
" transform="scale(0.015625)"/>
       <path id="DejaVuSans-29" d="M 513 4856 
L 1013 4856 
Q 1481 4119 1714 3412 
Q 1947 2706 1947 2009 
Q 1947 1309 1714 600 
Q 1481 -109 1013 -844 
L 513 -844 
Q 928 -128 1133 580 
Q 1338 1288 1338 2009 
Q 1338 2731 1133 3434 
Q 928 4138 513 4856 
z
" transform="scale(0.015625)"/>
      </defs>
      <use xlink:href="#DejaVuSans-44"/>
      <use xlink:href="#DejaVuSans-6f" transform="translate(77.001953 0)"/>
      <use xlink:href="#DejaVuSans-74" transform="translate(138.183594 0)"/>
      <use xlink:href="#DejaVuSans-20" transform="translate(177.392578 0)"/>
      <use xlink:href="#DejaVuSans-70" transform="translate(209.179688 0)"/>
      <use xlink:href="#DejaVuSans-72" transform="translate(272.65625 0)"/>
      <use xlink:href="#DejaVuSans-6f" transform="translate(311.519531 0)"/>
      <use xlink:href="#DejaVuSans-64" transform="translate(372.701172 0)"/>
      <use xlink:href="#DejaVuSans-75" transform="translate(436.177734 0)"/>
      <use xlink:href="#DejaVuSans-63" transform="translate(499.556641 0)"/>
      <use xlink:href="#DejaVuSans-74" transform="translate(554.537109 0)"/>
      <use xlink:href="#DejaVuSans-20" transform="translate(593.746094 0)"/>
      <use xlink:href="#DejaVuSans-28" transform="translate(625.533203 0)"/>
      <use xlink:href="#DejaVuSans-63" transform="translate(664.546875 0)"/>
      <use xlink:href="#DejaVuSans-6f" transform="translate(719.527344 0)"/>
      <use xlink:href="#DejaVuSans-73" transform="translate(780.708984 0)"/>
      <use xlink:href="#DejaVuSans-69" transform="translate(832.808594 0)"/>
      <use xlink:href="#DejaVuSans-6e" transform="translate(860.591797 0)"/>
      <use xlink:href="#DejaVuSans-65" transform="translate(923.970703 0)"/>
      <use xlink:href="#DejaVuSans-20" transform="translate(985.494141 0)"/>
      <use xlink:href="#DejaVuSans-73" transform="translate(1017.28125 0)"/>
      <use xlink:href="#DejaVuSans-69" transform="translate(1069.380859 0)"/>
      <use xlink:href="#DejaVuSans-6d" transform="translate(1097.164062 0)"/>
      <use xlink:href="#DejaVuSans-69" transform="translate(1194.576172 0)"/>
      <use xlink:href="#DejaVuSans-6c" transform="translate(1222.359375 0)"/>
      <use xlink:href="#DejaVuSans-61" transform="translate(1250.142578 0)"/>
      <use xlink:href="#DejaVuSans-72" transform="translate(1311.421875 0)"/>
      <use xlink:href="#DejaVuSans-69" transform="translate(1352.535156 0)"/>
      <use xlink:href="#DejaVuSans-74" transform="translate(1380.318359 0)"/>
      <use xlink:href="#DejaVuSans-79" transform="translate(1419.527344 0)"/>
      <use xlink:href="#DejaVuSans-29" transform="translate(1478.707031 0)"/>
     </g>
    </g>
   </g>
   <g id="matplotlib.axis_2">
    <g id="ytick_1">
     <g id="line2d_10">
      <defs>
       <path id="m4cba85af7c" d="M 0 0 
L -3.5 0 
" style="stroke: #000000; stroke-width: 0.8"/>
      </defs>
      <g>
       <use xlink:href="#m4cba85af7c" x="35.208438" y="241.72" style="stroke: #000000; stroke-width: 0.8"/>
      </g>
     </g>
     <g id="text_11">
      <!-- 0 -->
      <g transform="translate(21.845938 245.519219) scale(0.1 -0.1)">
       <use xlink:href="#DejaVuSans-30"/>
      </g>
     </g>
    </g>
    <g id="ytick_2">
     <g id="line2d_11">
      <g>
       <use xlink:href="#m4cba85af7c" x="35.208438" y="191.723695" style="stroke: #000000; stroke-width: 0.8"/>
      </g>
     </g>
     <g id="text_12">
      <!-- 2 -->
      <g transform="translate(21.845938 195.522914) scale(0.1 -0.1)">
       <use xlink:href="#DejaVuSans-32"/>
      </g>
     </g>
    </g>
    <g id="ytick_3">
     <g id="line2d_12">
      <g>
       <use xlink:href="#m4cba85af7c" x="35.208438" y="141.72739" style="stroke: #000000; stroke-width: 0.8"/>
      </g>
     </g>
     <g id="text_13">
      <!-- 4 -->
      <g transform="translate(21.845938 145.526609) scale(0.1 -0.1)">
       <defs>
        <path id="DejaVuSans-34" d="M 2419 4116 
L 825 1625 
L 2419 1625 
L 2419 4116 
z
M 2253 4666 
L 3047 4666 
L 3047 1625 
L 3713 1625 
L 3713 1100 
L 3047 1100 
L 3047 0 
L 2419 0 
L 2419 1100 
L 313 1100 
L 313 1709 
L 2253 4666 
z
" transform="scale(0.015625)"/>
       </defs>
       <use xlink:href="#DejaVuSans-34"/>
      </g>
     </g>
    </g>
    <g id="ytick_4">
     <g id="line2d_13">
      <g>
       <use xlink:href="#m4cba85af7c" x="35.208438" y="91.731085" style="stroke: #000000; stroke-width: 0.8"/>
      </g>
     </g>
     <g id="text_14">
      <!-- 6 -->
      <g transform="translate(21.845938 95.530304) scale(0.1 -0.1)">
       <defs>
        <path id="DejaVuSans-36" d="M 2113 2584 
Q 1688 2584 1439 2293 
Q 1191 2003 1191 1497 
Q 1191 994 1439 701 
Q 1688 409 2113 409 
Q 2538 409 2786 701 
Q 3034 994 3034 1497 
Q 3034 2003 2786 2293 
Q 2538 2584 2113 2584 
z
M 3366 4563 
L 3366 3988 
Q 3128 4100 2886 4159 
Q 2644 4219 2406 4219 
Q 1781 4219 1451 3797 
Q 1122 3375 1075 2522 
Q 1259 2794 1537 2939 
Q 1816 3084 2150 3084 
Q 2853 3084 3261 2657 
Q 3669 2231 3669 1497 
Q 3669 778 3244 343 
Q 2819 -91 2113 -91 
Q 1303 -91 875 529 
Q 447 1150 447 2328 
Q 447 3434 972 4092 
Q 1497 4750 2381 4750 
Q 2619 4750 2861 4703 
Q 3103 4656 3366 4563 
z
" transform="scale(0.015625)"/>
       </defs>
       <use xlink:href="#DejaVuSans-36"/>
      </g>
     </g>
    </g>
    <g id="ytick_5">
     <g id="line2d_14">
      <g>
       <use xlink:href="#m4cba85af7c" x="35.208438" y="41.734781" style="stroke: #000000; stroke-width: 0.8"/>
      </g>
     </g>
     <g id="text_15">
      <!-- 8 -->
      <g transform="translate(21.845938 45.533999) scale(0.1 -0.1)">
       <defs>
        <path id="DejaVuSans-38" d="M 2034 2216 
Q 1584 2216 1326 1975 
Q 1069 1734 1069 1313 
Q 1069 891 1326 650 
Q 1584 409 2034 409 
Q 2484 409 2743 651 
Q 3003 894 3003 1313 
Q 3003 1734 2745 1975 
Q 2488 2216 2034 2216 
z
M 1403 2484 
Q 997 2584 770 2862 
Q 544 3141 544 3541 
Q 544 4100 942 4425 
Q 1341 4750 2034 4750 
Q 2731 4750 3128 4425 
Q 3525 4100 3525 3541 
Q 3525 3141 3298 2862 
Q 3072 2584 2669 2484 
Q 3125 2378 3379 2068 
Q 3634 1759 3634 1313 
Q 3634 634 3220 271 
Q 2806 -91 2034 -91 
Q 1263 -91 848 271 
Q 434 634 434 1313 
Q 434 1759 690 2068 
Q 947 2378 1403 2484 
z
M 1172 3481 
Q 1172 3119 1398 2916 
Q 1625 2713 2034 2713 
Q 2441 2713 2670 2916 
Q 2900 3119 2900 3481 
Q 2900 3844 2670 4047 
Q 2441 4250 2034 4250 
Q 1625 4250 1398 4047 
Q 1172 3844 1172 3481 
z
" transform="scale(0.015625)"/>
       </defs>
       <use xlink:href="#DejaVuSans-38"/>
      </g>
     </g>
    </g>
    <g id="text_16">
     <!-- Density -->
     <g transform="translate(15.558281 145.369453) rotate(-90) scale(0.11 -0.11)">
      <use xlink:href="#DejaVuSans-44"/>
      <use xlink:href="#DejaVuSans-65" transform="translate(77.001953 0)"/>
      <use xlink:href="#DejaVuSans-6e" transform="translate(138.525391 0)"/>
      <use xlink:href="#DejaVuSans-73" transform="translate(201.904297 0)"/>
      <use xlink:href="#DejaVuSans-69" transform="translate(254.003906 0)"/>
      <use xlink:href="#DejaVuSans-74" transform="translate(281.787109 0)"/>
      <use xlink:href="#DejaVuSans-79" transform="translate(320.996094 0)"/>
     </g>
    </g>
   </g>
   <g id="line2d_15">
    <path d="M 292.778438 241.72 
L 292.778438 7.2 
" clip-path="url(#pd5bf5ca269)" style="fill: none; stroke-dasharray: 3.7,1.6; stroke-dashoffset: 0; stroke: #a3a3a3"/>
   </g>
   <g id="patch_183">
    <path d="M 35.208438 241.72 
L 35.208438 7.2 
" style="fill: none; stroke: #000000; stroke-width: 0.8; stroke-linejoin: miter; stroke-linecap: square"/>
   </g>
   <g id="patch_184">
    <path d="M 35.208438 241.72 
L 550.348438 241.72 
" style="fill: none; stroke: #000000; stroke-width: 0.8; stroke-linejoin: miter; stroke-linecap: square"/>
   </g>
   <g id="legend_1">
    <g id="patch_185">
     <path d="M 471.176563 59.234375 
L 543.348438 59.234375 
Q 545.348438 59.234375 545.348438 57.234375 
L 545.348438 14.2 
Q 545.348438 12.2 543.348438 12.2 
L 471.176563 12.2 
Q 469.176563 12.2 469.176563 14.2 
L 469.176563 57.234375 
Q 469.176563 59.234375 471.176563 59.234375 
z
" style="fill: #ffffff; opacity: 0.8; stroke: #cccccc; stroke-linejoin: miter"/>
    </g>
    <g id="patch_186">
     <path d="M 473.176563 23.798437 
L 493.176563 23.798437 
L 493.176563 16.798437 
L 473.176563 16.798437 
z
" style="fill: #c45a3b; opacity: 0.55; stroke: #c45a3b; stroke-width: 0.5; stroke-linejoin: miter"/>
    </g>
    <g id="text_17">
     <!-- d = 3 -->
     <g transform="translate(501.176563 23.798437) scale(0.1 -0.1)">
      <defs>
       <path id="DejaVuSans-3d" d="M 678 2906 
L 4684 2906 
L 4684 2381 
L 678 2381 
L 678 2906 
z
M 678 1631 
L 4684 1631 
L 4684 1100 
L 678 1100 
L 678 1631 
z
" transform="scale(0.015625)"/>
       <path id="DejaVuSans-33" d="M 2597 2516 
Q 3050 2419 3304 2112 
Q 3559 1806 3559 1356 
Q 3559 666 3084 287 
Q 2609 -91 1734 -91 
Q 1441 -91 1130 -33 
Q 819 25 488 141 
L 488 750 
Q 750 597 1062 519 
Q 1375 441 1716 441 
Q 2309 441 2620 675 
Q 2931 909 2931 1356 
Q 2931 1769 2642 2001 
Q 2353 2234 1838 2234 
L 1294 2234 
L 1294 2753 
L 1863 2753 
Q 2328 2753 2575 2939 
Q 2822 3125 2822 3475 
Q 2822 3834 2567 4026 
Q 2313 4219 1838 4219 
Q 1578 4219 1281 4162 
Q 984 4106 628 3988 
L 628 4550 
Q 988 4650 1302 4700 
Q 1616 4750 1894 4750 
Q 2613 4750 3031 4423 
Q 3450 4097 3450 3541 
Q 3450 3153 3228 2886 
Q 3006 2619 2597 2516 
z
" transform="scale(0.015625)"/>
      </defs>
      <use xlink:href="#DejaVuSans-64"/>
      <use xlink:href="#DejaVuSans-20" transform="translate(63.476562 0)"/>
      <use xlink:href="#DejaVuSans-3d" transform="translate(95.263672 0)"/>
      <use xlink:href="#DejaVuSans-20" transform="translate(179.052734 0)"/>
      <use xlink:href="#DejaVuSans-33" transform="translate(210.839844 0)"/>
     </g>
    </g>
    <g id="patch_187">
     <path d="M 473.176563 38.476562 
L 493.176563 38.476562 
L 493.176563 31.476562 
L 473.176563 31.476562 
z
" style="fill: #2a7f8e; opacity: 0.55; stroke: #2a7f8e; stroke-width: 0.5; stroke-linejoin: miter"/>
    </g>
    <g id="text_18">
     <!-- d = 50 -->
     <g transform="translate(501.176563 38.476562) scale(0.1 -0.1)">
      <use xlink:href="#DejaVuSans-64"/>
      <use xlink:href="#DejaVuSans-20" transform="translate(63.476562 0)"/>
      <use xlink:href="#DejaVuSans-3d" transform="translate(95.263672 0)"/>
      <use xlink:href="#DejaVuSans-20" transform="translate(179.052734 0)"/>
      <use xlink:href="#DejaVuSans-35" transform="translate(210.839844 0)"/>
      <use xlink:href="#DejaVuSans-30" transform="translate(274.462891 0)"/>
     </g>
    </g>
    <g id="patch_188">
     <path d="M 473.176563 53.154687 
L 493.176563 53.154687 
L 493.176563 46.154687 
L 473.176563 46.154687 
z
" style="fill: #b5942a; opacity: 0.55; stroke: #b5942a; stroke-width: 0.5; stroke-linejoin: miter"/>
    </g>
    <g id="text_19">
     <!-- d = 500 -->
     <g transform="translate(501.176563 53.154687) scale(0.1 -0.1)">
      <use xlink:href="#DejaVuSans-64"/>
      <use xlink:href="#DejaVuSans-20" transform="translate(63.476562 0)"/>
      <use xlink:href="#DejaVuSans-3d" transform="translate(95.263672 0)"/>
      <use xlink:href="#DejaVuSans-20" transform="translate(179.052734 0)"/>
      <use xlink:href="#DejaVuSans-35" transform="translate(210.839844 0)"/>
      <use xlink:href="#DejaVuSans-30" transform="translate(274.462891 0)"/>
      <use xlink:href="#DejaVuSans-30" transform="translate(338.085938 0)"/>
     </g>
    </g>
   </g>
  </g>
 </g>
 <defs>
  <clipPath id="pd5bf5ca269">
   <rect x="35.208438" y="7.2" width="515.14" height="234.52"/>
  </clipPath>
 </defs>
</svg>
