<?xml version="1.0" encoding="utf-8" standalone="no"?>
<!DOCTYPE svg PUBLIC "-//W3C//DTD SVG 1.1//EN"
  "http://www.w3.org/Graphics/SVG/1.1/DTD/svg11.dtd">
<svg xmlns:xlink="http://www.w3.org/1999/xlink" width="568.95125pt" height="280.604062pt" viewBox="0 0 568.95125 280.604062" xmlns="http://www.w3.org/2000/svg" version="1.1">
 <metadata>
  <rdf:RDF xmlns:dc="http://purl.org/dc/elements/1.1/" xmlns:cc="http://creativecommons.org/ns#" xmlns:rdf="http://www.w3.org/1999/02/22-rdf-syntax-ns#">
   <cc:Work>
    <dc:type rdf:resource="http://purl.org/dc/dcmitype/StillImage"/>
    <dc:date>2026-03-12T22:43:24.236709</dc:date>
    <dc:format>image/svg+xml</dc:format>
    <dc:creator>
     <cc:Agent>
      <dc:title>Matplotlib v3.10.8, https://matplotlib.org/</dc:title>
     </cc:Agent>
    </dc:creator>
   </cc:Work>
  </rdf:RDF>
 </metadata>
 <defs>
  <style type="text/css">*{stroke-linejoin: round; stroke-linecap: butt}</style>
 </defs>
 <g id="figure_1">
  <g id="patch_1">
   <path d="M 0 280.604062 
L 568.95125 280.604062 
L 568.95125 0 
L 0 0 
z
" style="fill: #ffffff"/>
  </g>
  <g id="axes_1">
   <g id="patch_2">
    <path d="M 35.208438 242.08 
L 550.618437 242.08 
L 550.618437 7.2 
L 35.208438 7.2 
z
" style="fill: #ffffff"/>
   </g>
   <g id="patch_3">
    <path d="M 35.208821 242.08 
L 43.798935 242.08 
L 43.798935 229.412143 
L 35.208821 229.412143 
z
" clip-path="url(#p6728b2e185)" style="fill: #c45a3b; opacity: 0.55; stroke: #c45a3b; stroke-width: 0.5; stroke-linejoin: miter"/>
   </g>
   <g id="patch_4">
    <path d="M 43.798935 242.08 
L 52.38905 242.08 
L 52.38905 229.833602 
L 43.798935 229.833602 
z
" clip-path="url(#p6728b2e185)" style="fill: #c45a3b; opacity: 0.55; stroke: #c45a3b; stroke-width: 0.5; stroke-linejoin: miter"/>
   </g>
   <g id="patch_5">
    <path d="M 52.38905 242.08 
L 60.979164 242.08 
L 60.979164 230.074436 
L 52.38905 230.074436 
z
" clip-path="url(#p6728b2e185)" style="fill: #c45a3b; opacity: 0.55; stroke: #c45a3b; stroke-width: 0.5; stroke-linejoin: miter"/>
   </g>
   <g id="patch_6">
    <path d="M 60.979164 242.08 
L 69.569279 242.08 
L 69.569279 229.773394 
L 60.979164 229.773394 
z
" clip-path="url(#p6728b2e185)" style="fill: #c45a3b; opacity: 0.55; stroke: #c45a3b; stroke-width: 0.5; stroke-linejoin: miter"/>
   </g>
   <g id="patch_7">
    <path d="M 69.569279 242.08 
L 78.159393 242.08 
L 78.159393 229.17733 
L 69.569279 229.17733 
z
" clip-path="url(#p6728b2e185)" style="fill: #c45a3b; opacity: 0.55; stroke: #c45a3b; stroke-width: 0.5; stroke-linejoin: miter"/>
   </g>
   <g id="patch_8">
    <path d="M 78.159393 242.08 
L 86.749507 242.08 
L 86.749507 229.424185 
L 78.159393 229.424185 
z
" clip-path="url(#p6728b2e185)" style="fill: #c45a3b; opacity: 0.55; stroke: #c45a3b; stroke-width: 0.5; stroke-linejoin: miter"/>
   </g>
   <g id="patch_9">
    <path d="M 86.749507 242.08 
L 95.339622 242.08 
L 95.339622 228.81608 
L 86.749507 228.81608 
z
" clip-path="url(#p6728b2e185)" style="fill: #c45a3b; opacity: 0.55; stroke: #c45a3b; stroke-width: 0.5; stroke-linejoin: miter"/>
   </g>
   <g id="patch_10">
    <path d="M 95.339622 242.08 
L 103.929736 242.08 
L 103.929736 229.725227 
L 95.339622 229.725227 
z
" clip-path="url(#p6728b2e185)" style="fill: #c45a3b; opacity: 0.55; stroke: #c45a3b; stroke-width: 0.5; stroke-linejoin: miter"/>
   </g>
   <g id="patch_11">
    <path d="M 103.929736 242.08 
L 112.519851 242.08 
L 112.519851 229.056913 
L 103.929736 229.056913 
z
" clip-path="url(#p6728b2e185)" style="fill: #c45a3b; opacity: 0.55; stroke: #c45a3b; stroke-width: 0.5; stroke-linejoin: miter"/>
   </g>
   <g id="patch_12">
    <path d="M 112.519851 242.08 
L 121.109965 242.08 
L 121.109965 229.496435 
L 112.519851 229.496435 
z
" clip-path="url(#p6728b2e185)" style="fill: #c45a3b; opacity: 0.55; stroke: #c45a3b; stroke-width: 0.5; stroke-linejoin: miter"/>
   </g>
   <g id="patch_13">
    <path d="M 121.109965 242.08 
L 129.700079 242.08 
L 129.700079 229.357956 
L 121.109965 229.357956 
z
" clip-path="url(#p6728b2e185)" style="fill: #c45a3b; opacity: 0.55; stroke: #c45a3b; stroke-width: 0.5; stroke-linejoin: miter"/>
   </g>
   <g id="patch_14">
    <path d="M 129.700079 242.08 
L 138.290194 242.08 
L 138.290194 229.484393 
L 129.700079 229.484393 
z
" clip-path="url(#p6728b2e185)" style="fill: #c45a3b; opacity: 0.55; stroke: #c45a3b; stroke-width: 0.5; stroke-linejoin: miter"/>
   </g>
   <g id="patch_15">
    <path d="M 138.290194 242.08 
L 146.880308 242.08 
L 146.880308 229.791456 
L 138.290194 229.791456 
z
" clip-path="url(#p6728b2e185)" style="fill: #c45a3b; opacity: 0.55; stroke: #c45a3b; stroke-width: 0.5; stroke-linejoin: miter"/>
   </g>
   <g id="patch_16">
    <path d="M 146.880308 242.08 
L 155.470423 242.08 
L 155.470423 229.478373 
L 146.880308 229.478373 
z
" clip-path="url(#p6728b2e185)" style="fill: #c45a3b; opacity: 0.55; stroke: #c45a3b; stroke-width: 0.5; stroke-linejoin: miter"/>
   </g>
   <g id="patch_17">
    <path d="M 155.470423 242.08 
L 164.060537 242.08 
L 164.060537 229.749311 
L 155.470423 229.749311 
z
" clip-path="url(#p6728b2e185)" style="fill: #c45a3b; opacity: 0.55; stroke: #c45a3b; stroke-width: 0.5; stroke-linejoin: miter"/>
   </g>
   <g id="patch_18">
    <path d="M 164.060537 242.08 
L 172.650651 242.08 
L 172.650651 229.24958 
L 164.060537 229.24958 
z
" clip-path="url(#p6728b2e185)" style="fill: #c45a3b; opacity: 0.55; stroke: #c45a3b; stroke-width: 0.5; stroke-linejoin: miter"/>
   </g>
   <g id="patch_19">
    <path d="M 172.650651 242.08 
L 181.240766 242.08 
L 181.240766 229.520518 
L 172.650651 229.520518 
z
" clip-path="url(#p6728b2e185)" style="fill: #c45a3b; opacity: 0.55; stroke: #c45a3b; stroke-width: 0.5; stroke-linejoin: miter"/>
   </g>
   <g id="patch_20">
    <path d="M 181.240766 242.08 
L 189.83088 242.08 
L 189.83088 229.490414 
L 181.240766 229.490414 
z
" clip-path="url(#p6728b2e185)" style="fill: #c45a3b; opacity: 0.55; stroke: #c45a3b; stroke-width: 0.5; stroke-linejoin: miter"/>
   </g>
   <g id="patch_21">
    <path d="M 189.83088 242.08 
L 198.420995 242.08 
L 198.420995 229.665019 
L 189.83088 229.665019 
z
" clip-path="url(#p6728b2e185)" style="fill: #c45a3b; opacity: 0.55; stroke: #c45a3b; stroke-width: 0.5; stroke-linejoin: miter"/>
   </g>
   <g id="patch_22">
    <path d="M 198.420995 242.08 
L 207.011109 242.08 
L 207.011109 229.46031 
L 198.420995 229.46031 
z
" clip-path="url(#p6728b2e185)" style="fill: #c45a3b; opacity: 0.55; stroke: #c45a3b; stroke-width: 0.5; stroke-linejoin: miter"/>
   </g>
   <g id="patch_23">
    <path d="M 207.011109 242.08 
L 215.601223 242.08 
L 215.601223 229.267643 
L 207.011109 229.267643 
z
" clip-path="url(#p6728b2e185)" style="fill: #c45a3b; opacity: 0.55; stroke: #c45a3b; stroke-width: 0.5; stroke-linejoin: miter"/>
   </g>
   <g id="patch_24">
    <path d="M 215.601223 242.08 
L 224.191338 242.08 
L 224.191338 229.309789 
L 215.601223 229.309789 
z
" clip-path="url(#p6728b2e185)" style="fill: #c45a3b; opacity: 0.55; stroke: #c45a3b; stroke-width: 0.5; stroke-linejoin: miter"/>
   </g>
   <g id="patch_25">
    <path d="M 224.191338 242.08 
L 232.781452 242.08 
L 232.781452 229.941978 
L 224.191338 229.941978 
z
" clip-path="url(#p6728b2e185)" style="fill: #c45a3b; opacity: 0.55; stroke: #c45a3b; stroke-width: 0.5; stroke-linejoin: miter"/>
   </g>
   <g id="patch_26">
    <path d="M 232.781452 242.08 
L 241.371567 242.08 
L 241.371567 229.610831 
L 232.781452 229.610831 
z
" clip-path="url(#p6728b2e185)" style="fill: #c45a3b; opacity: 0.55; stroke: #c45a3b; stroke-width: 0.5; stroke-linejoin: miter"/>
   </g>
   <g id="patch_27">
    <path d="M 241.371567 242.08 
L 249.961681 242.08 
L 249.961681 229.622873 
L 241.371567 229.622873 
z
" clip-path="url(#p6728b2e185)" style="fill: #c45a3b; opacity: 0.55; stroke: #c45a3b; stroke-width: 0.5; stroke-linejoin: miter"/>
   </g>
   <g id="patch_28">
    <path d="M 249.961681 242.08 
L 258.551795 242.08 
L 258.551795 229.749311 
L 249.961681 229.749311 
z
" clip-path="url(#p6728b2e185)" style="fill: #c45a3b; opacity: 0.55; stroke: #c45a3b; stroke-width: 0.5; stroke-linejoin: miter"/>
   </g>
   <g id="patch_29">
    <path d="M 258.551795 242.08 
L 267.14191 242.08 
L 267.14191 229.502456 
L 258.551795 229.502456 
z
" clip-path="url(#p6728b2e185)" style="fill: #c45a3b; opacity: 0.55; stroke: #c45a3b; stroke-width: 0.5; stroke-linejoin: miter"/>
   </g>
   <g id="patch_30">
    <path d="M 267.14191 242.08 
L 275.732024 242.08 
L 275.732024 229.767373 
L 267.14191 229.767373 
z
" clip-path="url(#p6728b2e185)" style="fill: #c45a3b; opacity: 0.55; stroke: #c45a3b; stroke-width: 0.5; stroke-linejoin: miter"/>
   </g>
   <g id="patch_31">
    <path d="M 275.732024 242.08 
L 284.322139 242.08 
L 284.322139 229.628894 
L 275.732024 229.628894 
z
" clip-path="url(#p6728b2e185)" style="fill: #c45a3b; opacity: 0.55; stroke: #c45a3b; stroke-width: 0.5; stroke-linejoin: miter"/>
   </g>
   <g id="patch_32">
    <path d="M 284.322139 242.08 
L 292.912253 242.08 
L 292.912253 230.230978 
L 284.322139 230.230978 
z
" clip-path="url(#p6728b2e185)" style="fill: #c45a3b; opacity: 0.55; stroke: #c45a3b; stroke-width: 0.5; stroke-linejoin: miter"/>
   </g>
   <g id="patch_33">
    <path d="M 292.912253 242.08 
L 301.502367 242.08 
L 301.502367 229.424185 
L 292.912253 229.424185 
z
" clip-path="url(#p6728b2e185)" style="fill: #c45a3b; opacity: 0.55; stroke: #c45a3b; stroke-width: 0.5; stroke-linejoin: miter"/>
   </g>
   <g id="patch_34">
    <path d="M 301.502367 242.08 
L 310.092482 242.08 
L 310.092482 229.478373 
L 301.502367 229.478373 
z
" clip-path="url(#p6728b2e185)" style="fill: #c45a3b; opacity: 0.55; stroke: #c45a3b; stroke-width: 0.5; stroke-linejoin: miter"/>
   </g>
   <g id="patch_35">
    <path d="M 310.092482 242.08 
L 318.682596 242.08 
L 318.682596 229.478373 
L 310.092482 229.478373 
z
" clip-path="url(#p6728b2e185)" style="fill: #c45a3b; opacity: 0.55; stroke: #c45a3b; stroke-width: 0.5; stroke-linejoin: miter"/>
   </g>
   <g id="patch_36">
    <path d="M 318.682596 242.08 
L 327.272711 242.08 
L 327.272711 228.96058 
L 318.682596 228.96058 
z
" clip-path="url(#p6728b2e185)" style="fill: #c45a3b; opacity: 0.55; stroke: #c45a3b; stroke-width: 0.5; stroke-linejoin: miter"/>
   </g>
   <g id="patch_37">
    <path d="M 327.272711 242.08 
L 335.862825 242.08 
L 335.862825 229.369997 
L 327.272711 229.369997 
z
" clip-path="url(#p6728b2e185)" style="fill: #c45a3b; opacity: 0.55; stroke: #c45a3b; stroke-width: 0.5; stroke-linejoin: miter"/>
   </g>
   <g id="patch_38">
    <path d="M 335.862825 242.08 
L 344.452939 242.08 
L 344.452939 229.797477 
L 335.862825 229.797477 
z
" clip-path="url(#p6728b2e185)" style="fill: #c45a3b; opacity: 0.55; stroke: #c45a3b; stroke-width: 0.5; stroke-linejoin: miter"/>
   </g>
   <g id="patch_39">
    <path d="M 344.452939 242.08 
L 353.043054 242.08 
L 353.043054 229.412143 
L 344.452939 229.412143 
z
" clip-path="url(#p6728b2e185)" style="fill: #c45a3b; opacity: 0.55; stroke: #c45a3b; stroke-width: 0.5; stroke-linejoin: miter"/>
   </g>
   <g id="patch_40">
    <path d="M 353.043054 242.08 
L 361.633168 242.08 
L 361.633168 228.984663 
L 353.043054 228.984663 
z
" clip-path="url(#p6728b2e185)" style="fill: #c45a3b; opacity: 0.55; stroke: #c45a3b; stroke-width: 0.5; stroke-linejoin: miter"/>
   </g>
   <g id="patch_41">
    <path d="M 361.633168 242.08 
L 370.223283 242.08 
L 370.223283 229.592769 
L 361.633168 229.592769 
z
" clip-path="url(#p6728b2e185)" style="fill: #c45a3b; opacity: 0.55; stroke: #c45a3b; stroke-width: 0.5; stroke-linejoin: miter"/>
   </g>
   <g id="patch_42">
    <path d="M 370.223283 242.08 
L 378.813397 242.08 
L 378.813397 229.731248 
L 370.223283 229.731248 
z
" clip-path="url(#p6728b2e185)" style="fill: #c45a3b; opacity: 0.55; stroke: #c45a3b; stroke-width: 0.5; stroke-linejoin: miter"/>
   </g>
   <g id="patch_43">
    <path d="M 378.813397 242.08 
L 387.403512 242.08 
L 387.403512 229.954019 
L 378.813397 229.954019 
z
" clip-path="url(#p6728b2e185)" style="fill: #c45a3b; opacity: 0.55; stroke: #c45a3b; stroke-width: 0.5; stroke-linejoin: miter"/>
   </g>
   <g id="patch_44">
    <path d="M 387.403512 242.08 
L 395.993626 242.08 
L 395.993626 229.598789 
L 387.403512 229.598789 
z
" clip-path="url(#p6728b2e185)" style="fill: #c45a3b; opacity: 0.55; stroke: #c45a3b; stroke-width: 0.5; stroke-linejoin: miter"/>
   </g>
   <g id="patch_45">
    <path d="M 395.993626 242.08 
L 404.58374 242.08 
L 404.58374 229.713186 
L 395.993626 229.713186 
z
" clip-path="url(#p6728b2e185)" style="fill: #c45a3b; opacity: 0.55; stroke: #c45a3b; stroke-width: 0.5; stroke-linejoin: miter"/>
   </g>
   <g id="patch_46">
    <path d="M 404.58374 242.08 
L 413.173855 242.08 
L 413.173855 229.556644 
L 404.58374 229.556644 
z
" clip-path="url(#p6728b2e185)" style="fill: #c45a3b; opacity: 0.55; stroke: #c45a3b; stroke-width: 0.5; stroke-linejoin: miter"/>
   </g>
   <g id="patch_47">
    <path d="M 413.173855 242.08 
L 421.763969 242.08 
L 421.763969 229.803498 
L 413.173855 229.803498 
z
" clip-path="url(#p6728b2e185)" style="fill: #c45a3b; opacity: 0.55; stroke: #c45a3b; stroke-width: 0.5; stroke-linejoin: miter"/>
   </g>
   <g id="patch_48">
    <path d="M 421.763969 242.08 
L 430.354084 242.08 
L 430.354084 229.990144 
L 421.763969 229.990144 
z
" clip-path="url(#p6728b2e185)" style="fill: #c45a3b; opacity: 0.55; stroke: #c45a3b; stroke-width: 0.5; stroke-linejoin: miter"/>
   </g>
   <g id="patch_49">
    <path d="M 430.354084 242.08 
L 438.944198 242.08 
L 438.944198 229.484393 
L 430.354084 229.484393 
z
" clip-path="url(#p6728b2e185)" style="fill: #c45a3b; opacity: 0.55; stroke: #c45a3b; stroke-width: 0.5; stroke-linejoin: miter"/>
   </g>
   <g id="patch_50">
    <path d="M 438.944198 242.08 
L 447.534312 242.08 
L 447.534312 229.309789 
L 438.944198 229.309789 
z
" clip-path="url(#p6728b2e185)" style="fill: #c45a3b; opacity: 0.55; stroke: #c45a3b; stroke-width: 0.5; stroke-linejoin: miter"/>
   </g>
   <g id="patch_51">
    <path d="M 447.534312 242.08 
L 456.124427 242.08 
L 456.124427 229.67706 
L 447.534312 229.67706 
z
" clip-path="url(#p6728b2e185)" style="fill: #c45a3b; opacity: 0.55; stroke: #c45a3b; stroke-width: 0.5; stroke-linejoin: miter"/>
   </g>
   <g id="patch_52">
    <path d="M 456.124427 242.08 
L 464.714541 242.08 
L 464.714541 229.357956 
L 456.124427 229.357956 
z
" clip-path="url(#p6728b2e185)" style="fill: #c45a3b; opacity: 0.55; stroke: #c45a3b; stroke-width: 0.5; stroke-linejoin: miter"/>
   </g>
   <g id="patch_53">
    <path d="M 464.714541 242.08 
L 473.304656 242.08 
L 473.304656 229.851665 
L 464.714541 229.851665 
z
" clip-path="url(#p6728b2e185)" style="fill: #c45a3b; opacity: 0.55; stroke: #c45a3b; stroke-width: 0.5; stroke-linejoin: miter"/>
   </g>
   <g id="patch_54">
    <path d="M 473.304656 242.08 
L 481.89477 242.08 
L 481.89477 229.929936 
L 473.304656 229.929936 
z
" clip-path="url(#p6728b2e185)" style="fill: #c45a3b; opacity: 0.55; stroke: #c45a3b; stroke-width: 0.5; stroke-linejoin: miter"/>
   </g>
   <g id="patch_55">
    <path d="M 481.89477 242.08 
L 490.484884 242.08 
L 490.484884 229.634915 
L 481.89477 229.634915 
z
" clip-path="url(#p6728b2e185)" style="fill: #c45a3b; opacity: 0.55; stroke: #c45a3b; stroke-width: 0.5; stroke-linejoin: miter"/>
   </g>
   <g id="patch_56">
    <path d="M 490.484884 242.08 
L 499.074999 242.08 
L 499.074999 229.74329 
L 490.484884 229.74329 
z
" clip-path="url(#p6728b2e185)" style="fill: #c45a3b; opacity: 0.55; stroke: #c45a3b; stroke-width: 0.5; stroke-linejoin: miter"/>
   </g>
   <g id="patch_57">
    <path d="M 499.074999 242.08 
L 507.665113 242.08 
L 507.665113 228.978642 
L 499.074999 228.978642 
z
" clip-path="url(#p6728b2e185)" style="fill: #c45a3b; opacity: 0.55; stroke: #c45a3b; stroke-width: 0.5; stroke-linejoin: miter"/>
   </g>
   <g id="patch_58">
    <path d="M 507.665113 242.08 
L 516.255228 242.08 
L 516.255228 229.165289 
L 507.665113 229.165289 
z
" clip-path="url(#p6728b2e185)" style="fill: #c45a3b; opacity: 0.55; stroke: #c45a3b; stroke-width: 0.5; stroke-linejoin: miter"/>
   </g>
   <g id="patch_59">
    <path d="M 516.255228 242.08 
L 524.845342 242.08 
L 524.845342 229.400102 
L 516.255228 229.400102 
z
" clip-path="url(#p6728b2e185)" style="fill: #c45a3b; opacity: 0.55; stroke: #c45a3b; stroke-width: 0.5; stroke-linejoin: miter"/>
   </g>
   <g id="patch_60">
    <path d="M 524.845342 242.08 
L 533.435456 242.08 
L 533.435456 229.520518 
L 524.845342 229.520518 
z
" clip-path="url(#p6728b2e185)" style="fill: #c45a3b; opacity: 0.55; stroke: #c45a3b; stroke-width: 0.5; stroke-linejoin: miter"/>
   </g>
   <g id="patch_61">
    <path d="M 533.435456 242.08 
L 542.025571 242.08 
L 542.025571 230.616312 
L 533.435456 230.616312 
z
" clip-path="url(#p6728b2e185)" style="fill: #c45a3b; opacity: 0.55; stroke: #c45a3b; stroke-width: 0.5; stroke-linejoin: miter"/>
   </g>
   <g id="patch_62">
    <path d="M 542.025571 242.08 
L 550.615685 242.08 
L 550.615685 229.514498 
L 542.025571 229.514498 
z
" clip-path="url(#p6728b2e185)" style="fill: #c45a3b; opacity: 0.55; stroke: #c45a3b; stroke-width: 0.5; stroke-linejoin: miter"/>
   </g>
   <g id="patch_63">
    <path d="M 148.921879 242.08 
L 153.935012 242.08 
L 153.935012 242.049049 
L 148.921879 242.049049 
z
" clip-path="url(#p6728b2e185)" style="fill: #2a7f8e; opacity: 0.55; stroke: #2a7f8e; stroke-width: 0.5; stroke-linejoin: miter"/>
   </g>
   <g id="patch_64">
    <path d="M 153.935012 242.08 
L 158.948144 242.08 
L 158.948144 242.059366 
L 153.935012 242.059366 
z
" clip-path="url(#p6728b2e185)" style="fill: #2a7f8e; opacity: 0.55; stroke: #2a7f8e; stroke-width: 0.5; stroke-linejoin: miter"/>
   </g>
   <g id="patch_65">
    <path d="M 158.948144 242.08 
L 163.961277 242.08 
L 163.961277 242.038733 
L 158.948144 242.038733 
z
" clip-path="url(#p6728b2e185)" style="fill: #2a7f8e; opacity: 0.55; stroke: #2a7f8e; stroke-width: 0.5; stroke-linejoin: miter"/>
   </g>
   <g id="patch_66">
    <path d="M 163.961277 242.08 
L 168.97441 242.08 
L 168.97441 241.956198 
L 163.961277 241.956198 
z
" clip-path="url(#p6728b2e185)" style="fill: #2a7f8e; opacity: 0.55; stroke: #2a7f8e; stroke-width: 0.5; stroke-linejoin: miter"/>
   </g>
   <g id="patch_67">
    <path d="M 168.97441 242.08 
L 173.987542 242.08 
L 173.987542 241.842712 
L 168.97441 241.842712 
z
" clip-path="url(#p6728b2e185)" style="fill: #2a7f8e; opacity: 0.55; stroke: #2a7f8e; stroke-width: 0.5; stroke-linejoin: miter"/>
   </g>
   <g id="patch_68">
    <path d="M 173.987542 242.08 
L 179.000675 242.08 
L 179.000675 241.811762 
L 173.987542 241.811762 
z
" clip-path="url(#p6728b2e185)" style="fill: #2a7f8e; opacity: 0.55; stroke: #2a7f8e; stroke-width: 0.5; stroke-linejoin: miter"/>
   </g>
   <g id="patch_69">
    <path d="M 179.000675 242.08 
L 184.013808 242.08 
L 184.013808 241.595108 
L 179.000675 241.595108 
z
" clip-path="url(#p6728b2e185)" style="fill: #2a7f8e; opacity: 0.55; stroke: #2a7f8e; stroke-width: 0.5; stroke-linejoin: miter"/>
   </g>
   <g id="patch_70">
    <path d="M 184.013808 242.08 
L 189.02694 242.08 
L 189.02694 241.141167 
L 184.013808 241.141167 
z
" clip-path="url(#p6728b2e185)" style="fill: #2a7f8e; opacity: 0.55; stroke: #2a7f8e; stroke-width: 0.5; stroke-linejoin: miter"/>
   </g>
   <g id="patch_71">
    <path d="M 189.02694 242.08 
L 194.040073 242.08 
L 194.040073 240.522155 
L 189.02694 240.522155 
z
" clip-path="url(#p6728b2e185)" style="fill: #2a7f8e; opacity: 0.55; stroke: #2a7f8e; stroke-width: 0.5; stroke-linejoin: miter"/>
   </g>
   <g id="patch_72">
    <path d="M 194.040073 242.08 
L 199.053205 242.08 
L 199.053205 239.985679 
L 194.040073 239.985679 
z
" clip-path="url(#p6728b2e185)" style="fill: #2a7f8e; opacity: 0.55; stroke: #2a7f8e; stroke-width: 0.5; stroke-linejoin: miter"/>
   </g>
   <g id="patch_73">
    <path d="M 199.053205 242.08 
L 204.066338 242.08 
L 204.066338 238.70639 
L 199.053205 238.70639 
z
" clip-path="url(#p6728b2e185)" style="fill: #2a7f8e; opacity: 0.55; stroke: #2a7f8e; stroke-width: 0.5; stroke-linejoin: miter"/>
   </g>
   <g id="patch_74">
    <path d="M 204.066338 242.08 
L 209.079471 242.08 
L 209.079471 237.95326 
L 204.066338 237.95326 
z
" clip-path="url(#p6728b2e185)" style="fill: #2a7f8e; opacity: 0.55; stroke: #2a7f8e; stroke-width: 0.5; stroke-linejoin: miter"/>
   </g>
   <g id="patch_75">
    <path d="M 209.079471 242.08 
L 214.092603 242.08 
L 214.092603 236.054959 
L 209.079471 236.054959 
z
" clip-path="url(#p6728b2e185)" style="fill: #2a7f8e; opacity: 0.55; stroke: #2a7f8e; stroke-width: 0.5; stroke-linejoin: miter"/>
   </g>
   <g id="patch_76">
    <path d="M 214.092603 242.08 
L 219.105736 242.08 
L 219.105736 233.940005 
L 214.092603 233.940005 
z
" clip-path="url(#p6728b2e185)" style="fill: #2a7f8e; opacity: 0.55; stroke: #2a7f8e; stroke-width: 0.5; stroke-linejoin: miter"/>
   </g>
   <g id="patch_77">
    <path d="M 219.105736 242.08 
L 224.118869 242.08 
L 224.118869 231.123504 
L 219.105736 231.123504 
z
" clip-path="url(#p6728b2e185)" style="fill: #2a7f8e; opacity: 0.55; stroke: #2a7f8e; stroke-width: 0.5; stroke-linejoin: miter"/>
   </g>
   <g id="patch_78">
    <path d="M 224.118869 242.08 
L 229.132001 242.08 
L 229.132001 228.141934 
L 224.118869 228.141934 
z
" clip-path="url(#p6728b2e185)" style="fill: #2a7f8e; opacity: 0.55; stroke: #2a7f8e; stroke-width: 0.5; stroke-linejoin: miter"/>
   </g>
   <g id="patch_79">
    <path d="M 229.132001 242.08 
L 234.145134 242.08 
L 234.145134 224.768324 
L 229.132001 224.768324 
z
" clip-path="url(#p6728b2e185)" style="fill: #2a7f8e; opacity: 0.55; stroke: #2a7f8e; stroke-width: 0.5; stroke-linejoin: miter"/>
   </g>
   <g id="patch_80">
    <path d="M 234.145134 242.08 
L 239.158266 242.08 
L 239.158266 219.816235 
L 234.145134 219.816235 
z
" clip-path="url(#p6728b2e185)" style="fill: #2a7f8e; opacity: 0.55; stroke: #2a7f8e; stroke-width: 0.5; stroke-linejoin: miter"/>
   </g>
   <g id="patch_81">
    <path d="M 239.158266 242.08 
L 244.171399 242.08 
L 244.171399 215.183969 
L 239.158266 215.183969 
z
" clip-path="url(#p6728b2e185)" style="fill: #2a7f8e; opacity: 0.55; stroke: #2a7f8e; stroke-width: 0.5; stroke-linejoin: miter"/>
   </g>
   <g id="patch_82">
    <path d="M 244.171399 242.08 
L 249.184532 242.08 
L 249.184532 210.386634 
L 244.171399 210.386634 
z
" clip-path="url(#p6728b2e185)" style="fill: #2a7f8e; opacity: 0.55; stroke: #2a7f8e; stroke-width: 0.5; stroke-linejoin: miter"/>
   </g>
   <g id="patch_83">
    <path d="M 249.184532 242.08 
L 254.197664 242.08 
L 254.197664 203.721948 
L 249.184532 203.721948 
z
" clip-path="url(#p6728b2e185)" style="fill: #2a7f8e; opacity: 0.55; stroke: #2a7f8e; stroke-width: 0.5; stroke-linejoin: miter"/>
   </g>
   <g id="patch_84">
    <path d="M 254.197664 242.08 
L 259.210797 242.08 
L 259.210797 199.543623 
L 254.197664 199.543623 
z
" clip-path="url(#p6728b2e185)" style="fill: #2a7f8e; opacity: 0.55; stroke: #2a7f8e; stroke-width: 0.5; stroke-linejoin: miter"/>
   </g>
   <g id="patch_85">
    <path d="M 259.210797 242.08 
L 264.22393 242.08 
L 264.22393 192.528164 
L 259.210797 192.528164 
z
" clip-path="url(#p6728b2e185)" style="fill: #2a7f8e; opacity: 0.55; stroke: #2a7f8e; stroke-width: 0.5; stroke-linejoin: miter"/>
   </g>
   <g id="patch_86">
    <path d="M 264.22393 242.08 
L 269.237062 242.08 
L 269.237062 186.822946 
L 264.22393 186.822946 
z
" clip-path="url(#p6728b2e185)" style="fill: #2a7f8e; opacity: 0.55; stroke: #2a7f8e; stroke-width: 0.5; stroke-linejoin: miter"/>
   </g>
   <g id="patch_87">
    <path d="M 269.237062 242.08 
L 274.250195 242.08 
L 274.250195 182.283531 
L 269.237062 182.283531 
z
" clip-path="url(#p6728b2e185)" style="fill: #2a7f8e; opacity: 0.55; stroke: #2a7f8e; stroke-width: 0.5; stroke-linejoin: miter"/>
   </g>
   <g id="patch_88">
    <path d="M 274.250195 242.08 
L 279.263327 242.08 
L 279.263327 179.116258 
L 274.250195 179.116258 
z
" clip-path="url(#p6728b2e185)" style="fill: #2a7f8e; opacity: 0.55; stroke: #2a7f8e; stroke-width: 0.5; stroke-linejoin: miter"/>
   </g>
   <g id="patch_89">
    <path d="M 279.263327 242.08 
L 284.27646 242.08 
L 284.27646 176.908452 
L 279.263327 176.908452 
z
" clip-path="url(#p6728b2e185)" style="fill: #2a7f8e; opacity: 0.55; stroke: #2a7f8e; stroke-width: 0.5; stroke-linejoin: miter"/>
   </g>
   <g id="patch_90">
    <path d="M 284.27646 242.08 
L 289.289593 242.08 
L 289.289593 172.296819 
L 284.27646 172.296819 
z
" clip-path="url(#p6728b2e185)" style="fill: #2a7f8e; opacity: 0.55; stroke: #2a7f8e; stroke-width: 0.5; stroke-linejoin: miter"/>
   </g>
   <g id="patch_91">
    <path d="M 289.289593 242.08 
L 294.302725 242.08 
L 294.302725 172.069849 
L 289.289593 172.069849 
z
" clip-path="url(#p6728b2e185)" style="fill: #2a7f8e; opacity: 0.55; stroke: #2a7f8e; stroke-width: 0.5; stroke-linejoin: miter"/>
   </g>
   <g id="patch_92">
    <path d="M 294.302725 242.08 
L 299.315858 242.08 
L 299.315858 173.215019 
L 294.302725 173.215019 
z
" clip-path="url(#p6728b2e185)" style="fill: #2a7f8e; opacity: 0.55; stroke: #2a7f8e; stroke-width: 0.5; stroke-linejoin: miter"/>
   </g>
   <g id="patch_93">
    <path d="M 299.315858 242.08 
L 304.328991 242.08 
L 304.328991 173.648327 
L 299.315858 173.648327 
z
" clip-path="url(#p6728b2e185)" style="fill: #2a7f8e; opacity: 0.55; stroke: #2a7f8e; stroke-width: 0.5; stroke-linejoin: miter"/>
   </g>
   <g id="patch_94">
    <path d="M 304.328991 242.08 
L 309.342123 242.08 
L 309.342123 176.949719 
L 304.328991 176.949719 
z
" clip-path="url(#p6728b2e185)" style="fill: #2a7f8e; opacity: 0.55; stroke: #2a7f8e; stroke-width: 0.5; stroke-linejoin: miter"/>
   </g>
   <g id="patch_95">
    <path d="M 309.342123 242.08 
L 314.355256 242.08 
L 314.355256 181.406599 
L 309.342123 181.406599 
z
" clip-path="url(#p6728b2e185)" style="fill: #2a7f8e; opacity: 0.55; stroke: #2a7f8e; stroke-width: 0.5; stroke-linejoin: miter"/>
   </g>
   <g id="patch_96">
    <path d="M 314.355256 242.08 
L 319.368388 242.08 
L 319.368388 186.740411 
L 314.355256 186.740411 
z
" clip-path="url(#p6728b2e185)" style="fill: #2a7f8e; opacity: 0.55; stroke: #2a7f8e; stroke-width: 0.5; stroke-linejoin: miter"/>
   </g>
   <g id="patch_97">
    <path d="M 319.368388 242.08 
L 324.381521 242.08 
L 324.381521 190.237823 
L 319.368388 190.237823 
z
" clip-path="url(#p6728b2e185)" style="fill: #2a7f8e; opacity: 0.55; stroke: #2a7f8e; stroke-width: 0.5; stroke-linejoin: miter"/>
   </g>
   <g id="patch_98">
    <path d="M 324.381521 242.08 
L 329.394654 242.08 
L 329.394654 195.839874 
L 324.381521 195.839874 
z
" clip-path="url(#p6728b2e185)" style="fill: #2a7f8e; opacity: 0.55; stroke: #2a7f8e; stroke-width: 0.5; stroke-linejoin: miter"/>
   </g>
   <g id="patch_99">
    <path d="M 329.394654 242.08 
L 334.407786 242.08 
L 334.407786 202.256955 
L 329.394654 202.256955 
z
" clip-path="url(#p6728b2e185)" style="fill: #2a7f8e; opacity: 0.55; stroke: #2a7f8e; stroke-width: 0.5; stroke-linejoin: miter"/>
   </g>
   <g id="patch_100">
    <path d="M 334.407786 242.08 
L 339.420919 242.08 
L 339.420919 206.6313 
L 334.407786 206.6313 
z
" clip-path="url(#p6728b2e185)" style="fill: #2a7f8e; opacity: 0.55; stroke: #2a7f8e; stroke-width: 0.5; stroke-linejoin: miter"/>
   </g>
   <g id="patch_101">
    <path d="M 339.420919 242.08 
L 344.434052 242.08 
L 344.434052 212.553172 
L 339.420919 212.553172 
z
" clip-path="url(#p6728b2e185)" style="fill: #2a7f8e; opacity: 0.55; stroke: #2a7f8e; stroke-width: 0.5; stroke-linejoin: miter"/>
   </g>
   <g id="patch_102">
    <path d="M 344.434052 242.08 
L 349.447184 242.08 
L 349.447184 217.701281 
L 344.434052 217.701281 
z
" clip-path="url(#p6728b2e185)" style="fill: #2a7f8e; opacity: 0.55; stroke: #2a7f8e; stroke-width: 0.5; stroke-linejoin: miter"/>
   </g>
   <g id="patch_103">
    <path d="M 349.447184 242.08 
L 354.460317 242.08 
L 354.460317 222.189111 
L 349.447184 222.189111 
z
" clip-path="url(#p6728b2e185)" style="fill: #2a7f8e; opacity: 0.55; stroke: #2a7f8e; stroke-width: 0.5; stroke-linejoin: miter"/>
   </g>
   <g id="patch_104">
    <path d="M 354.460317 242.08 
L 359.473449 242.08 
L 359.473449 226.934863 
L 354.460317 226.934863 
z
" clip-path="url(#p6728b2e185)" style="fill: #2a7f8e; opacity: 0.55; stroke: #2a7f8e; stroke-width: 0.5; stroke-linejoin: miter"/>
   </g>
   <g id="patch_105">
    <path d="M 359.473449 242.08 
L 364.486582 242.08 
L 364.486582 230.628295 
L 359.473449 230.628295 
z
" clip-path="url(#p6728b2e185)" style="fill: #2a7f8e; opacity: 0.55; stroke: #2a7f8e; stroke-width: 0.5; stroke-linejoin: miter"/>
   </g>
   <g id="patch_106">
    <path d="M 364.486582 242.08 
L 369.499715 242.08 
L 369.499715 232.712299 
L 364.486582 232.712299 
z
" clip-path="url(#p6728b2e185)" style="fill: #2a7f8e; opacity: 0.55; stroke: #2a7f8e; stroke-width: 0.5; stroke-linejoin: miter"/>
   </g>
   <g id="patch_107">
    <path d="M 369.499715 242.08 
L 374.512847 242.08 
L 374.512847 235.157393 
L 369.499715 235.157393 
z
" clip-path="url(#p6728b2e185)" style="fill: #2a7f8e; opacity: 0.55; stroke: #2a7f8e; stroke-width: 0.5; stroke-linejoin: miter"/>
   </g>
   <g id="patch_108">
    <path d="M 374.512847 242.08 
L 379.52598 242.08 
L 379.52598 237.055694 
L 374.512847 237.055694 
z
" clip-path="url(#p6728b2e185)" style="fill: #2a7f8e; opacity: 0.55; stroke: #2a7f8e; stroke-width: 0.5; stroke-linejoin: miter"/>
   </g>
   <g id="patch_109">
    <path d="M 379.52598 242.08 
L 384.539112 242.08 
L 384.539112 238.861142 
L 379.52598 238.861142 
z
" clip-path="url(#p6728b2e185)" style="fill: #2a7f8e; opacity: 0.55; stroke: #2a7f8e; stroke-width: 0.5; stroke-linejoin: miter"/>
   </g>
   <g id="patch_110">
    <path d="M 384.539112 242.08 
L 389.552245 242.08 
L 389.552245 239.892828 
L 384.539112 239.892828 
z
" clip-path="url(#p6728b2e185)" style="fill: #2a7f8e; opacity: 0.55; stroke: #2a7f8e; stroke-width: 0.5; stroke-linejoin: miter"/>
   </g>
   <g id="patch_111">
    <path d="M 389.552245 242.08 
L 394.565378 242.08 
L 394.565378 240.532472 
L 389.552245 240.532472 
z
" clip-path="url(#p6728b2e185)" style="fill: #2a7f8e; opacity: 0.55; stroke: #2a7f8e; stroke-width: 0.5; stroke-linejoin: miter"/>
   </g>
   <g id="patch_112">
    <path d="M 394.565378 242.08 
L 399.57851 242.08 
L 399.57851 240.976097 
L 394.565378 240.976097 
z
" clip-path="url(#p6728b2e185)" style="fill: #2a7f8e; opacity: 0.55; stroke: #2a7f8e; stroke-width: 0.5; stroke-linejoin: miter"/>
   </g>
   <g id="patch_113">
    <path d="M 399.57851 242.08 
L 404.591643 242.08 
L 404.591643 241.460989 
L 399.57851 241.460989 
z
" clip-path="url(#p6728b2e185)" style="fill: #2a7f8e; opacity: 0.55; stroke: #2a7f8e; stroke-width: 0.5; stroke-linejoin: miter"/>
   </g>
   <g id="patch_114">
    <path d="M 404.591643 242.08 
L 409.604776 242.08 
L 409.604776 241.729227 
L 404.591643 241.729227 
z
" clip-path="url(#p6728b2e185)" style="fill: #2a7f8e; opacity: 0.55; stroke: #2a7f8e; stroke-width: 0.5; stroke-linejoin: miter"/>
   </g>
   <g id="patch_115">
    <path d="M 409.604776 242.08 
L 414.617908 242.08 
L 414.617908 241.801445 
L 409.604776 241.801445 
z
" clip-path="url(#p6728b2e185)" style="fill: #2a7f8e; opacity: 0.55; stroke: #2a7f8e; stroke-width: 0.5; stroke-linejoin: miter"/>
   </g>
   <g id="patch_116">
    <path d="M 414.617908 242.08 
L 419.631041 242.08 
L 419.631041 241.956198 
L 414.617908 241.956198 
z
" clip-path="url(#p6728b2e185)" style="fill: #2a7f8e; opacity: 0.55; stroke: #2a7f8e; stroke-width: 0.5; stroke-linejoin: miter"/>
   </g>
   <g id="patch_117">
    <path d="M 419.631041 242.08 
L 424.644173 242.08 
L 424.644173 242.007782 
L 419.631041 242.007782 
z
" clip-path="url(#p6728b2e185)" style="fill: #2a7f8e; opacity: 0.55; stroke: #2a7f8e; stroke-width: 0.5; stroke-linejoin: miter"/>
   </g>
   <g id="patch_118">
    <path d="M 424.644173 242.08 
L 429.657306 242.08 
L 429.657306 242.059366 
L 424.644173 242.059366 
z
" clip-path="url(#p6728b2e185)" style="fill: #2a7f8e; opacity: 0.55; stroke: #2a7f8e; stroke-width: 0.5; stroke-linejoin: miter"/>
   </g>
   <g id="patch_119">
    <path d="M 429.657306 242.08 
L 434.670439 242.08 
L 434.670439 242.069683 
L 429.657306 242.069683 
z
" clip-path="url(#p6728b2e185)" style="fill: #2a7f8e; opacity: 0.55; stroke: #2a7f8e; stroke-width: 0.5; stroke-linejoin: miter"/>
   </g>
   <g id="patch_120">
    <path d="M 434.670439 242.08 
L 439.683571 242.08 
L 439.683571 242.059366 
L 434.670439 242.059366 
z
" clip-path="url(#p6728b2e185)" style="fill: #2a7f8e; opacity: 0.55; stroke: #2a7f8e; stroke-width: 0.5; stroke-linejoin: miter"/>
   </g>
   <g id="patch_121">
    <path d="M 439.683571 242.08 
L 444.696704 242.08 
L 444.696704 242.069683 
L 439.683571 242.069683 
z
" clip-path="url(#p6728b2e185)" style="fill: #2a7f8e; opacity: 0.55; stroke: #2a7f8e; stroke-width: 0.5; stroke-linejoin: miter"/>
   </g>
   <g id="patch_122">
    <path d="M 444.696704 242.08 
L 449.709837 242.08 
L 449.709837 242.069683 
L 444.696704 242.069683 
z
" clip-path="url(#p6728b2e185)" style="fill: #2a7f8e; opacity: 0.55; stroke: #2a7f8e; stroke-width: 0.5; stroke-linejoin: miter"/>
   </g>
   <g id="patch_123">
    <path d="M 239.496539 242.08 
L 241.246077 242.08 
L 241.246077 242.050438 
L 239.496539 242.050438 
z
" clip-path="url(#p6728b2e185)" style="fill: #b5942a; opacity: 0.55; stroke: #b5942a; stroke-width: 0.5; stroke-linejoin: miter"/>
   </g>
   <g id="patch_124">
    <path d="M 241.246077 242.08 
L 242.995615 242.08 
L 242.995615 242.08 
L 241.246077 242.08 
z
" clip-path="url(#p6728b2e185)" style="fill: #b5942a; opacity: 0.55; stroke: #b5942a; stroke-width: 0.5; stroke-linejoin: miter"/>
   </g>
   <g id="patch_125">
    <path d="M 242.995615 242.08 
L 244.745153 242.08 
L 244.745153 242.050438 
L 242.995615 242.050438 
z
" clip-path="url(#p6728b2e185)" style="fill: #b5942a; opacity: 0.55; stroke: #b5942a; stroke-width: 0.5; stroke-linejoin: miter"/>
   </g>
   <g id="patch_126">
    <path d="M 244.745153 242.08 
L 246.494691 242.08 
L 246.494691 242.020876 
L 244.745153 242.020876 
z
" clip-path="url(#p6728b2e185)" style="fill: #b5942a; opacity: 0.55; stroke: #b5942a; stroke-width: 0.5; stroke-linejoin: miter"/>
   </g>
   <g id="patch_127">
    <path d="M 246.494691 242.08 
L 248.244229 242.08 
L 248.244229 242.050438 
L 246.494691 242.050438 
z
" clip-path="url(#p6728b2e185)" style="fill: #b5942a; opacity: 0.55; stroke: #b5942a; stroke-width: 0.5; stroke-linejoin: miter"/>
   </g>
   <g id="patch_128">
    <path d="M 248.244229 242.08 
L 249.993766 242.08 
L 249.993766 241.902628 
L 248.244229 241.902628 
z
" clip-path="url(#p6728b2e185)" style="fill: #b5942a; opacity: 0.55; stroke: #b5942a; stroke-width: 0.5; stroke-linejoin: miter"/>
   </g>
   <g id="patch_129">
    <path d="M 249.993766 242.08 
L 251.743304 242.08 
L 251.743304 241.843504 
L 249.993766 241.843504 
z
" clip-path="url(#p6728b2e185)" style="fill: #b5942a; opacity: 0.55; stroke: #b5942a; stroke-width: 0.5; stroke-linejoin: miter"/>
   </g>
   <g id="patch_130">
    <path d="M 251.743304 242.08 
L 253.492842 242.08 
L 253.492842 241.400075 
L 251.743304 241.400075 
z
" clip-path="url(#p6728b2e185)" style="fill: #b5942a; opacity: 0.55; stroke: #b5942a; stroke-width: 0.5; stroke-linejoin: miter"/>
   </g>
   <g id="patch_131">
    <path d="M 253.492842 242.08 
L 255.24238 242.08 
L 255.24238 241.193142 
L 253.492842 241.193142 
z
" clip-path="url(#p6728b2e185)" style="fill: #b5942a; opacity: 0.55; stroke: #b5942a; stroke-width: 0.5; stroke-linejoin: miter"/>
   </g>
   <g id="patch_132">
    <path d="M 255.24238 242.08 
L 256.991918 242.08 
L 256.991918 240.86796 
L 255.24238 240.86796 
z
" clip-path="url(#p6728b2e185)" style="fill: #b5942a; opacity: 0.55; stroke: #b5942a; stroke-width: 0.5; stroke-linejoin: miter"/>
   </g>
   <g id="patch_133">
    <path d="M 256.991918 242.08 
L 258.741456 242.08 
L 258.741456 239.981102 
L 256.991918 239.981102 
z
" clip-path="url(#p6728b2e185)" style="fill: #b5942a; opacity: 0.55; stroke: #b5942a; stroke-width: 0.5; stroke-linejoin: miter"/>
   </g>
   <g id="patch_134">
    <path d="M 258.741456 242.08 
L 260.490994 242.08 
L 260.490994 238.532567 
L 258.741456 238.532567 
z
" clip-path="url(#p6728b2e185)" style="fill: #b5942a; opacity: 0.55; stroke: #b5942a; stroke-width: 0.5; stroke-linejoin: miter"/>
   </g>
   <g id="patch_135">
    <path d="M 260.490994 242.08 
L 262.240532 242.08 
L 262.240532 237.172717 
L 260.490994 237.172717 
z
" clip-path="url(#p6728b2e185)" style="fill: #b5942a; opacity: 0.55; stroke: #b5942a; stroke-width: 0.5; stroke-linejoin: miter"/>
   </g>
   <g id="patch_136">
    <path d="M 262.240532 242.08 
L 263.990069 242.08 
L 263.990069 233.56616 
L 262.240532 233.56616 
z
" clip-path="url(#p6728b2e185)" style="fill: #b5942a; opacity: 0.55; stroke: #b5942a; stroke-width: 0.5; stroke-linejoin: miter"/>
   </g>
   <g id="patch_137">
    <path d="M 263.990069 242.08 
L 265.739607 242.08 
L 265.739607 230.876023 
L 263.990069 230.876023 
z
" clip-path="url(#p6728b2e185)" style="fill: #b5942a; opacity: 0.55; stroke: #b5942a; stroke-width: 0.5; stroke-linejoin: miter"/>
   </g>
   <g id="patch_138">
    <path d="M 265.739607 242.08 
L 267.489145 242.08 
L 267.489145 225.200129 
L 265.739607 225.200129 
z
" clip-path="url(#p6728b2e185)" style="fill: #b5942a; opacity: 0.55; stroke: #b5942a; stroke-width: 0.5; stroke-linejoin: miter"/>
   </g>
   <g id="patch_139">
    <path d="M 267.489145 242.08 
L 269.238683 242.08 
L 269.238683 217.277528 
L 267.489145 217.277528 
z
" clip-path="url(#p6728b2e185)" style="fill: #b5942a; opacity: 0.55; stroke: #b5942a; stroke-width: 0.5; stroke-linejoin: miter"/>
   </g>
   <g id="patch_140">
    <path d="M 269.238683 242.08 
L 270.988221 242.08 
L 270.988221 210.093975 
L 269.238683 210.093975 
z
" clip-path="url(#p6728b2e185)" style="fill: #b5942a; opacity: 0.55; stroke: #b5942a; stroke-width: 0.5; stroke-linejoin: miter"/>
   </g>
   <g id="patch_141">
    <path d="M 270.988221 242.08 
L 272.737759 242.08 
L 272.737759 200.988896 
L 270.988221 200.988896 
z
" clip-path="url(#p6728b2e185)" style="fill: #b5942a; opacity: 0.55; stroke: #b5942a; stroke-width: 0.5; stroke-linejoin: miter"/>
   </g>
   <g id="patch_142">
    <path d="M 272.737759 242.08 
L 274.487297 242.08 
L 274.487297 188.454632 
L 272.737759 188.454632 
z
" clip-path="url(#p6728b2e185)" style="fill: #b5942a; opacity: 0.55; stroke: #b5942a; stroke-width: 0.5; stroke-linejoin: miter"/>
   </g>
   <g id="patch_143">
    <path d="M 274.487297 242.08 
L 276.236835 242.08 
L 276.236835 171.870381 
L 274.487297 171.870381 
z
" clip-path="url(#p6728b2e185)" style="fill: #b5942a; opacity: 0.55; stroke: #b5942a; stroke-width: 0.5; stroke-linejoin: miter"/>
   </g>
   <g id="patch_144">
    <path d="M 276.236835 242.08 
L 277.986373 242.08 
L 277.986373 156.261674 
L 276.236835 156.261674 
z
" clip-path="url(#p6728b2e185)" style="fill: #b5942a; opacity: 0.55; stroke: #b5942a; stroke-width: 0.5; stroke-linejoin: miter"/>
   </g>
   <g id="patch_145">
    <path d="M 277.986373 242.08 
L 279.73591 242.08 
L 279.73591 138.849688 
L 277.986373 138.849688 
z
" clip-path="url(#p6728b2e185)" style="fill: #b5942a; opacity: 0.55; stroke: #b5942a; stroke-width: 0.5; stroke-linejoin: miter"/>
   </g>
   <g id="patch_146">
    <path d="M 279.73591 242.08 
L 281.485448 242.08 
L 281.485448 115.850495 
L 279.73591 115.850495 
z
" clip-path="url(#p6728b2e185)" style="fill: #b5942a; opacity: 0.55; stroke: #b5942a; stroke-width: 0.5; stroke-linejoin: miter"/>
   </g>
   <g id="patch_147">
    <path d="M 281.485448 242.08 
L 283.234986 242.08 
L 283.234986 98.438509 
L 281.485448 98.438509 
z
" clip-path="url(#p6728b2e185)" style="fill: #b5942a; opacity: 0.55; stroke: #b5942a; stroke-width: 0.5; stroke-linejoin: miter"/>
   </g>
   <g id="patch_148">
    <path d="M 283.234986 242.08 
L 284.984524 242.08 
L 284.984524 75.941869 
L 283.234986 75.941869 
z
" clip-path="url(#p6728b2e185)" style="fill: #b5942a; opacity: 0.55; stroke: #b5942a; stroke-width: 0.5; stroke-linejoin: miter"/>
   </g>
   <g id="patch_149">
    <path d="M 284.984524 242.08 
L 286.734062 242.08 
L 286.734062 53.060923 
L 284.984524 53.060923 
z
" clip-path="url(#p6728b2e185)" style="fill: #b5942a; opacity: 0.55; stroke: #b5942a; stroke-width: 0.5; stroke-linejoin: miter"/>
   </g>
   <g id="patch_150">
    <path d="M 286.734062 242.08 
L 288.4836 242.08 
L 288.4836 40.319725 
L 286.734062 40.319725 
z
" clip-path="url(#p6728b2e185)" style="fill: #b5942a; opacity: 0.55; stroke: #b5942a; stroke-width: 0.5; stroke-linejoin: miter"/>
   </g>
   <g id="patch_151">
    <path d="M 288.4836 242.08 
L 290.233138 242.08 
L 290.233138 32.633619 
L 288.4836 32.633619 
z
" clip-path="url(#p6728b2e185)" style="fill: #b5942a; opacity: 0.55; stroke: #b5942a; stroke-width: 0.5; stroke-linejoin: miter"/>
   </g>
   <g id="patch_152">
    <path d="M 290.233138 242.08 
L 291.982676 242.08 
L 291.982676 18.887315 
L 290.233138 18.887315 
z
" clip-path="url(#p6728b2e185)" style="fill: #b5942a; opacity: 0.55; stroke: #b5942a; stroke-width: 0.5; stroke-linejoin: miter"/>
   </g>
   <g id="patch_153">
    <path d="M 291.982676 242.08 
L 293.732213 242.08 
L 293.732213 18.384762 
L 291.982676 18.384762 
z
" clip-path="url(#p6728b2e185)" style="fill: #b5942a; opacity: 0.55; stroke: #b5942a; stroke-width: 0.5; stroke-linejoin: miter"/>
   </g>
   <g id="patch_154">
    <path d="M 293.732213 242.08 
L 295.481751 242.08 
L 295.481751 19.892421 
L 293.732213 19.892421 
z
" clip-path="url(#p6728b2e185)" style="fill: #b5942a; opacity: 0.55; stroke: #b5942a; stroke-width: 0.5; stroke-linejoin: miter"/>
   </g>
   <g id="patch_155">
    <path d="M 295.481751 242.08 
L 297.231289 242.08 
L 297.231289 31.451142 
L 295.481751 31.451142 
z
" clip-path="url(#p6728b2e185)" style="fill: #b5942a; opacity: 0.55; stroke: #b5942a; stroke-width: 0.5; stroke-linejoin: miter"/>
   </g>
   <g id="patch_156">
    <path d="M 297.231289 242.08 
L 298.980827 242.08 
L 298.980827 40.674468 
L 297.231289 40.674468 
z
" clip-path="url(#p6728b2e185)" style="fill: #b5942a; opacity: 0.55; stroke: #b5942a; stroke-width: 0.5; stroke-linejoin: miter"/>
   </g>
   <g id="patch_157">
    <path d="M 298.980827 242.08 
L 300.730365 242.08 
L 300.730365 54.568583 
L 298.980827 54.568583 
z
" clip-path="url(#p6728b2e185)" style="fill: #b5942a; opacity: 0.55; stroke: #b5942a; stroke-width: 0.5; stroke-linejoin: miter"/>
   </g>
   <g id="patch_158">
    <path d="M 300.730365 242.08 
L 302.479903 242.08 
L 302.479903 76.178364 
L 300.730365 76.178364 
z
" clip-path="url(#p6728b2e185)" style="fill: #b5942a; opacity: 0.55; stroke: #b5942a; stroke-width: 0.5; stroke-linejoin: miter"/>
   </g>
   <g id="patch_159">
    <path d="M 302.479903 242.08 
L 304.229441 242.08 
L 304.229441 90.072479 
L 302.479903 90.072479 
z
" clip-path="url(#p6728b2e185)" style="fill: #b5942a; opacity: 0.55; stroke: #b5942a; stroke-width: 0.5; stroke-linejoin: miter"/>
   </g>
   <g id="patch_160">
    <path d="M 304.229441 242.08 
L 305.978979 242.08 
L 305.978979 113.071672 
L 304.229441 113.071672 
z
" clip-path="url(#p6728b2e185)" style="fill: #b5942a; opacity: 0.55; stroke: #b5942a; stroke-width: 0.5; stroke-linejoin: miter"/>
   </g>
   <g id="patch_161">
    <path d="M 305.978979 242.08 
L 307.728516 242.08 
L 307.728516 135.775246 
L 305.978979 135.775246 
z
" clip-path="url(#p6728b2e185)" style="fill: #b5942a; opacity: 0.55; stroke: #b5942a; stroke-width: 0.5; stroke-linejoin: miter"/>
   </g>
   <g id="patch_162">
    <path d="M 307.728516 242.08 
L 309.478054 242.08 
L 309.478054 153.808032 
L 307.728516 153.808032 
z
" clip-path="url(#p6728b2e185)" style="fill: #b5942a; opacity: 0.55; stroke: #b5942a; stroke-width: 0.5; stroke-linejoin: miter"/>
   </g>
   <g id="patch_163">
    <path d="M 309.478054 242.08 
L 311.227592 242.08 
L 311.227592 170.333159 
L 309.478054 170.333159 
z
" clip-path="url(#p6728b2e185)" style="fill: #b5942a; opacity: 0.55; stroke: #b5942a; stroke-width: 0.5; stroke-linejoin: miter"/>
   </g>
   <g id="patch_164">
    <path d="M 311.227592 242.08 
L 312.97713 242.08 
L 312.97713 184.434207 
L 311.227592 184.434207 
z
" clip-path="url(#p6728b2e185)" style="fill: #b5942a; opacity: 0.55; stroke: #b5942a; stroke-width: 0.5; stroke-linejoin: miter"/>
   </g>
   <g id="patch_165">
    <path d="M 312.97713 242.08 
L 314.726668 242.08 
L 314.726668 198.062264 
L 312.97713 198.062264 
z
" clip-path="url(#p6728b2e185)" style="fill: #b5942a; opacity: 0.55; stroke: #b5942a; stroke-width: 0.5; stroke-linejoin: miter"/>
   </g>
   <g id="patch_166">
    <path d="M 314.726668 242.08 
L 316.476206 242.08 
L 316.476206 211.335577 
L 314.726668 211.335577 
z
" clip-path="url(#p6728b2e185)" style="fill: #b5942a; opacity: 0.55; stroke: #b5942a; stroke-width: 0.5; stroke-linejoin: miter"/>
   </g>
   <g id="patch_167">
    <path d="M 316.476206 242.08 
L 318.225744 242.08 
L 318.225744 216.272422 
L 316.476206 216.272422 
z
" clip-path="url(#p6728b2e185)" style="fill: #b5942a; opacity: 0.55; stroke: #b5942a; stroke-width: 0.5; stroke-linejoin: miter"/>
   </g>
   <g id="patch_168">
    <path d="M 318.225744 242.08 
L 319.975282 242.08 
L 319.975282 226.175674 
L 318.225744 226.175674 
z
" clip-path="url(#p6728b2e185)" style="fill: #b5942a; opacity: 0.55; stroke: #b5942a; stroke-width: 0.5; stroke-linejoin: miter"/>
   </g>
   <g id="patch_169">
    <path d="M 319.975282 242.08 
L 321.724819 242.08 
L 321.724819 230.018726 
L 319.975282 230.018726 
z
" clip-path="url(#p6728b2e185)" style="fill: #b5942a; opacity: 0.55; stroke: #b5942a; stroke-width: 0.5; stroke-linejoin: miter"/>
   </g>
   <g id="patch_170">
    <path d="M 321.724819 242.08 
L 323.474357 242.08 
L 323.474357 234.068713 
L 321.724819 234.068713 
z
" clip-path="url(#p6728b2e185)" style="fill: #b5942a; opacity: 0.55; stroke: #b5942a; stroke-width: 0.5; stroke-linejoin: miter"/>
   </g>
   <g id="patch_171">
    <path d="M 323.474357 242.08 
L 325.223895 242.08 
L 325.223895 236.492792 
L 323.474357 236.492792 
z
" clip-path="url(#p6728b2e185)" style="fill: #b5942a; opacity: 0.55; stroke: #b5942a; stroke-width: 0.5; stroke-linejoin: miter"/>
   </g>
   <g id="patch_172">
    <path d="M 325.223895 242.08 
L 326.973433 242.08 
L 326.973433 238.59169 
L 325.223895 238.59169 
z
" clip-path="url(#p6728b2e185)" style="fill: #b5942a; opacity: 0.55; stroke: #b5942a; stroke-width: 0.5; stroke-linejoin: miter"/>
   </g>
   <g id="patch_173">
    <path d="M 326.973433 242.08 
L 328.722971 242.08 
L 328.722971 239.862854 
L 326.973433 239.862854 
z
" clip-path="url(#p6728b2e185)" style="fill: #b5942a; opacity: 0.55; stroke: #b5942a; stroke-width: 0.5; stroke-linejoin: miter"/>
   </g>
   <g id="patch_174">
    <path d="M 328.722971 242.08 
L 330.472509 242.08 
L 330.472509 240.483655 
L 328.722971 240.483655 
z
" clip-path="url(#p6728b2e185)" style="fill: #b5942a; opacity: 0.55; stroke: #b5942a; stroke-width: 0.5; stroke-linejoin: miter"/>
   </g>
   <g id="patch_175">
    <path d="M 330.472509 242.08 
L 332.222047 242.08 
L 332.222047 241.577447 
L 330.472509 241.577447 
z
" clip-path="url(#p6728b2e185)" style="fill: #b5942a; opacity: 0.55; stroke: #b5942a; stroke-width: 0.5; stroke-linejoin: miter"/>
   </g>
   <g id="patch_176">
    <path d="M 332.222047 242.08 
L 333.971585 242.08 
L 333.971585 241.754819 
L 332.222047 241.754819 
z
" clip-path="url(#p6728b2e185)" style="fill: #b5942a; opacity: 0.55; stroke: #b5942a; stroke-width: 0.5; stroke-linejoin: miter"/>
   </g>
   <g id="patch_177">
    <path d="M 333.971585 242.08 
L 335.721123 242.08 
L 335.721123 241.784381 
L 333.971585 241.784381 
z
" clip-path="url(#p6728b2e185)" style="fill: #b5942a; opacity: 0.55; stroke: #b5942a; stroke-width: 0.5; stroke-linejoin: miter"/>
   </g>
   <g id="patch_178">
    <path d="M 335.721123 242.08 
L 337.47066 242.08 
L 337.47066 241.93219 
L 335.721123 241.93219 
z
" clip-path="url(#p6728b2e185)" style="fill: #b5942a; opacity: 0.55; stroke: #b5942a; stroke-width: 0.5; stroke-linejoin: miter"/>
   </g>
   <g id="patch_179">
    <path d="M 337.47066 242.08 
L 339.220198 242.08 
L 339.220198 241.991314 
L 337.47066 241.991314 
z
" clip-path="url(#p6728b2e185)" style="fill: #b5942a; opacity: 0.55; stroke: #b5942a; stroke-width: 0.5; stroke-linejoin: miter"/>
   </g>
   <g id="patch_180">
    <path d="M 339.220198 242.08 
L 340.969736 242.08 
L 340.969736 242.08 
L 339.220198 242.08 
z
" clip-path="url(#p6728b2e185)" style="fill: #b5942a; opacity: 0.55; stroke: #b5942a; stroke-width: 0.5; stroke-linejoin: miter"/>
   </g>
   <g id="patch_181">
    <path d="M 340.969736 242.08 
L 342.719274 242.08 
L 342.719274 242.050438 
L 340.969736 242.050438 
z
" clip-path="url(#p6728b2e185)" style="fill: #b5942a; opacity: 0.55; stroke: #b5942a; stroke-width: 0.5; stroke-linejoin: miter"/>
   </g>
   <g id="patch_182">
    <path d="M 342.719274 242.08 
L 344.468812 242.08 
L 344.468812 242.050438 
L 342.719274 242.050438 
z
" clip-path="url(#p6728b2e185)" style="fill: #b5942a; opacity: 0.55; stroke: #b5942a; stroke-width: 0.5; stroke-linejoin: miter"/>
   </g>
   <g id="matplotlib.axis_1">
    <g id="xtick_1">
     <g id="line2d_1">
      <defs>
       <path id="m680506a326" d="M 0 0 
L 0 3.5 
" style="stroke: #000000; stroke-width: 0.8"/>
      </defs>
      <g>
       <use xlink:href="#m680506a326" x="35.208438" y="242.08" style="stroke: #000000; stroke-width: 0.8"/>
      </g>
     </g>
     <g id="text_1">
      <!-- −1.00 -->
      <g transform="translate(19.885781 256.678437) scale(0.1 -0.1)">
       <defs>
        <path id="DejaVuSans-2212" d="M 678 2272 
L 4684 2272 
L 4684 1741 
L 678 1741 
L 678 2272 
z
" transform="scale(0.015625)"/>
        <path id="DejaVuSans-31" d="M 794 531 
L 1825 531 
L 1825 4091 
L 703 3866 
L 703 4441 
L 1819 4666 
L 2450 4666 
L 2450 531 
L 3481 531 
L 3481 0 
L 794 0 
L 794 531 
z
" transform="scale(0.015625)"/>
        <path id="DejaVuSans-2e" d="M 684 794 
L 1344 794 
L 1344 0 
L 684 0 
L 684 794 
z
" transform="scale(0.015625)"/>
        <path id="DejaVuSans-30" d="M 2034 4250 
Q 1547 4250 1301 3770 
Q 1056 3291 1056 2328 
Q 1056 1369 1301 889 
Q 1547 409 2034 409 
Q 2525 409 2770 889 
Q 3016 1369 3016 2328 
Q 3016 3291 2770 3770 
Q 2525 4250 2034 4250 
z
M 2034 4750 
Q 2819 4750 3233 4129 
Q 3647 3509 3647 2328 
Q 3647 1150 3233 529 
Q 2819 -91 2034 -91 
Q 1250 -91 836 529 
Q 422 1150 422 2328 
Q 422 3509 836 4129 
Q 1250 4750 2034 4750 
z
" transform="scale(0.015625)"/>
       </defs>
       <use xlink:href="#DejaVuSans-2212"/>
       <use xlink:href="#DejaVuSans-31" transform="translate(83.789062 0)"/>
       <use xlink:href="#DejaVuSans-2e" transform="translate(147.412109 0)"/>
       <use xlink:href="#DejaVuSans-30" transform="translate(179.199219 0)"/>
       <use xlink:href="#DejaVuSans-30" transform="translate(242.822266 0)"/>
      </g>
     </g>
    </g>
    <g id="xtick_2">
     <g id="line2d_2">
      <g>
       <use xlink:href="#m680506a326" x="99.634687" y="242.08" style="stroke: #000000; stroke-width: 0.8"/>
      </g>
     </g>
     <g id="text_2">
      <!-- −0.75 -->
      <g transform="translate(84.312031 256.678437) scale(0.1 -0.1)">
       <defs>
        <path id="DejaVuSans-37" d="M 525 4666 
L 3525 4666 
L 3525 4397 
L 1831 0 
L 1172 0 
L 2766 4134 
L 525 4134 
L 525 4666 
z
" transform="scale(0.015625)"/>
        <path id="DejaVuSans-35" d="M 691 4666 
L 3169 4666 
L 3169 4134 
L 1269 4134 
L 1269 2991 
Q 1406 3038 1543 3061 
Q 1681 3084 1819 3084 
Q 2600 3084 3056 2656 
Q 3513 2228 3513 1497 
Q 3513 744 3044 326 
Q 2575 -91 1722 -91 
Q 1428 -91 1123 -41 
Q 819 9 494 109 
L 494 744 
Q 775 591 1075 516 
Q 1375 441 1709 441 
Q 2250 441 2565 725 
Q 2881 1009 2881 1497 
Q 2881 1984 2565 2268 
Q 2250 2553 1709 2553 
Q 1456 2553 1204 2497 
Q 953 2441 691 2322 
L 691 4666 
z
" transform="scale(0.015625)"/>
       </defs>
       <use xlink:href="#DejaVuSans-2212"/>
       <use xlink:href="#DejaVuSans-30" transform="translate(83.789062 0)"/>
       <use xlink:href="#DejaVuSans-2e" transform="translate(147.412109 0)"/>
       <use xlink:href="#DejaVuSans-37" transform="translate(179.199219 0)"/>
       <use xlink:href="#DejaVuSans-35" transform="translate(242.822266 0)"/>
      </g>
     </g>
    </g>
    <g id="xtick_3">
     <g id="line2d_3">
      <g>
       <use xlink:href="#m680506a326" x="164.060937" y="242.08" style="stroke: #000000; stroke-width: 0.8"/>
      </g>
     </g>
     <g id="text_3">
      <!-- −0.50 -->
      <g transform="translate(148.738281 256.678437) scale(0.1 -0.1)">
       <use xlink:href="#DejaVuSans-2212"/>
       <use xlink:href="#DejaVuSans-30" transform="translate(83.789062 0)"/>
       <use xlink:href="#DejaVuSans-2e" transform="translate(147.412109 0)"/>
       <use xlink:href="#DejaVuSans-35" transform="translate(179.199219 0)"/>
       <use xlink:href="#DejaVuSans-30" transform="translate(242.822266 0)"/>
      </g>
     </g>
    </g>
    <g id="xtick_4">
     <g id="line2d_4">
      <g>
       <use xlink:href="#m680506a326" x="228.487187" y="242.08" style="stroke: #000000; stroke-width: 0.8"/>
      </g>
     </g>
     <g id="text_4">
      <!-- −0.25 -->
      <g transform="translate(213.164531 256.678437) scale(0.1 -0.1)">
       <defs>
        <path id="DejaVuSans-32" d="M 1228 531 
L 3431 531 
L 3431 0 
L 469 0 
L 469 531 
Q 828 903 1448 1529 
Q 2069 2156 2228 2338 
Q 2531 2678 2651 2914 
Q 2772 3150 2772 3378 
Q 2772 3750 2511 3984 
Q 2250 4219 1831 4219 
Q 1534 4219 1204 4116 
Q 875 4013 500 3803 
L 500 4441 
Q 881 4594 1212 4672 
Q 1544 4750 1819 4750 
Q 2544 4750 2975 4387 
Q 3406 4025 3406 3419 
Q 3406 3131 3298 2873 
Q 3191 2616 2906 2266 
Q 2828 2175 2409 1742 
Q 1991 1309 1228 531 
z
" transform="scale(0.015625)"/>
       </defs>
       <use xlink:href="#DejaVuSans-2212"/>
       <use xlink:href="#DejaVuSans-30" transform="translate(83.789062 0)"/>
       <use xlink:href="#DejaVuSans-2e" transform="translate(147.412109 0)"/>
       <use xlink:href="#DejaVuSans-32" transform="translate(179.199219 0)"/>
       <use xlink:href="#DejaVuSans-35" transform="translate(242.822266 0)"/>
      </g>
     </g>
    </g>
    <g id="xtick_5">
     <g id="line2d_5">
      <g>
       <use xlink:href="#m680506a326" x="292.913437" y="242.08" style="stroke: #000000; stroke-width: 0.8"/>
      </g>
     </g>
     <g id="text_5">
      <!-- 0.00 -->
      <g transform="translate(281.780625 256.678437) scale(0.1 -0.1)">
       <use xlink:href="#DejaVuSans-30"/>
       <use xlink:href="#DejaVuSans-2e" transform="translate(63.623047 0)"/>
       <use xlink:href="#DejaVuSans-30" transform="translate(95.410156 0)"/>
       <use xlink:href="#DejaVuSans-30" transform="translate(159.033203 0)"/>
      </g>
     </g>
    </g>
    <g id="xtick_6">
     <g id="line2d_6">
      <g>
       <use xlink:href="#m680506a326" x="357.339687" y="242.08" style="stroke: #000000; stroke-width: 0.8"/>
      </g>
     </g>
     <g id="text_6">
      <!-- 0.25 -->
      <g transform="translate(346.206875 256.678437) scale(0.1 -0.1)">
       <use xlink:href="#DejaVuSans-30"/>
       <use xlink:href="#DejaVuSans-2e" transform="translate(63.623047 0)"/>
       <use xlink:href="#DejaVuSans-32" transform="translate(95.410156 0)"/>
       <use xlink:href="#DejaVuSans-35" transform="translate(159.033203 0)"/>
      </g>
     </g>
    </g>
    <g id="xtick_7">
     <g id="line2d_7">
      <g>
       <use xlink:href="#m680506a326" x="421.765937" y="242.08" style="stroke: #000000; stroke-width: 0.8"/>
      </g>
     </g>
     <g id="text_7">
      <!-- 0.50 -->
      <g transform="translate(410.633125 256.678437) scale(0.1 -0.1)">
       <use xlink:href="#DejaVuSans-30"/>
       <use xlink:href="#DejaVuSans-2e" transform="translate(63.623047 0)"/>
       <use xlink:href="#DejaVuSans-35" transform="translate(95.410156 0)"/>
       <use xlink:href="#DejaVuSans-30" transform="translate(159.033203 0)"/>
      </g>
     </g>
    </g>
    <g id="xtick_8">
     <g id="line2d_8">
      <g>
       <use xlink:href="#m680506a326" x="486.192187" y="242.08" style="stroke: #000000; stroke-width: 0.8"/>
      </g>
     </g>
     <g id="text_8">
      <!-- 0.75 -->
      <g transform="translate(475.059375 256.678437) scale(0.1 -0.1)">
       <use xlink:href="#DejaVuSans-30"/>
       <use xlink:href="#DejaVuSans-2e" transform="translate(63.623047 0)"/>
       <use xlink:href="#DejaVuSans-37" transform="translate(95.410156 0)"/>
       <use xlink:href="#DejaVuSans-35" transform="translate(159.033203 0)"/>
      </g>
     </g>
    </g>
    <g id="xtick_9">
     <g id="line2d_9">
      <g>
       <use xlink:href="#m680506a326" x="550.618437" y="242.08" style="stroke: #000000; stroke-width: 0.8"/>
      </g>
     </g>
     <g id="text_9">
      <!-- 1.00 -->
      <g transform="translate(539.485625 256.678437) scale(0.1 -0.1)">
       <use xlink:href="#DejaVuSans-31"/>
       <use xlink:href="#DejaVuSans-2e" transform="translate(63.623047 0)"/>
       <use xlink:href="#DejaVuSans-30" transform="translate(95.410156 0)"/>
       <use xlink:href="#DejaVuSans-30" transform="translate(159.033203 0)"/>
      </g>
     </g>
    </g>
    <g id="text_10">
     <!-- Dot product (cosine similarity) -->
     <g transform="translate(209.439766 271.116406) scale(0.11 -0.11)">
      <defs>
       <path id="DejaVuSans-44" d="M 1259 4147 
L 1259 519 
L 2022 519 
Q 2988 519 3436 956 
Q 3884 1394 3884 2338 
Q 3884 3275 3436 3711 
Q 2988 4147 2022 4147 
L 1259 4147 
z
M 628 4666 
L 1925 4666 
Q 3281 4666 3915 4102 
Q 4550 3538 4550 2338 
Q 4550 1131 3912 565 
Q 3275 0 1925 0 
L 628 0 
L 628 4666 
z
" transform="scale(0.015625)"/>
       <path id="DejaVuSans-6f" d="M 1959 3097 
Q 1497 3097 1228 2736 
Q 959 2375 959 1747 
Q 959 1119 1226 758 
Q 1494 397 1959 397 
Q 2419 397 2687 759 
Q 2956 1122 2956 1747 
Q 2956 2369 2687 2733 
Q 2419 3097 1959 3097 
z
M 1959 3584 
Q 2709 3584 3137 3096 
Q 3566 2609 3566 1747 
Q 3566 888 3137 398 
Q 2709 -91 1959 -91 
Q 1206 -91 779 398 
Q 353 888 353 1747 
Q 353 2609 779 3096 
Q 1206 3584 1959 3584 
z
" transform="scale(0.015625)"/>
       <path id="DejaVuSans-74" d="M 1172 4494 
L 1172 3500 
L 2356 3500 
L 2356 3053 
L 1172 3053 
L 1172 1153 
Q 1172 725 1289 603 
Q 1406 481 1766 481 
L 2356 481 
L 2356 0 
L 1766 0 
Q 1100 0 847 248 
Q 594 497 594 1153 
L 594 3053 
L 172 3053 
L 172 3500 
L 594 3500 
L 594 4494 
L 1172 4494 
z
" transform="scale(0.015625)"/>
       <path id="DejaVuSans-20" transform="scale(0.015625)"/>
       <path id="DejaVuSans-70" d="M 1159 525 
L 1159 -1331 
L 581 -1331 
L 581 3500 
L 1159 3500 
L 1159 2969 
Q 1341 3281 1617 3432 
Q 1894 3584 2278 3584 
Q 2916 3584 3314 3078 
Q 3713 2572 3713 1747 
Q 3713 922 3314 415 
Q 2916 -91 2278 -91 
Q 1894 -91 1617 61 
Q 1341 213 1159 525 
z
M 3116 1747 
Q 3116 2381 2855 2742 
Q 2594 3103 2138 3103 
Q 1681 3103 1420 2742 
Q 1159 2381 1159 1747 
Q 1159 1113 1420 752 
Q 1681 391 2138 391 
Q 2594 391 2855 752 
Q 3116 1113 3116 1747 
z
" transform="scale(0.015625)"/>
       <path id="DejaVuSans-72" d="M 2631 2963 
Q 2534 3019 2420 3045 
Q 2306 3072 2169 3072 
Q 1681 3072 1420 2755 
Q 1159 2438 1159 1844 
L 1159 0 
L 581 0 
L 581 3500 
L 1159 3500 
L 1159 2956 
Q 1341 3275 1631 3429 
Q 1922 3584 2338 3584 
Q 2397 3584 2469 3576 
Q 2541 3569 2628 3553 
L 2631 2963 
z
" transform="scale(0.015625)"/>
       <path id="DejaVuSans-64" d="M 2906 2969 
L 2906 4863 
L 3481 4863 
L 3481 0 
L 2906 0 
L 2906 525 
Q 2725 213 2448 61 
Q 2172 -91 1784 -91 
Q 1150 -91 751 415 
Q 353 922 353 1747 
Q 353 2572 751 3078 
Q 1150 3584 1784 3584 
Q 2172 3584 2448 3432 
Q 2725 3281 2906 2969 
z
M 947 1747 
Q 947 1113 1208 752 
Q 1469 391 1925 391 
Q 2381 391 2643 752 
Q 2906 1113 2906 1747 
Q 2906 2381 2643 2742 
Q 2381 3103 1925 3103 
Q 1469 3103 1208 2742 
Q 947 2381 947 1747 
z
" transform="scale(0.015625)"/>
       <path id="DejaVuSans-75" d="M 544 1381 
L 544 3500 
L 1119 3500 
L 1119 1403 
Q 1119 906 1312 657 
Q 1506 409 1894 409 
Q 2359 409 2629 706 
Q 2900 1003 2900 1516 
L 2900 3500 
L 3475 3500 
L 3475 0 
L 2900 0 
L 2900 538 
Q 2691 219 2414 64 
Q 2138 -91 1772 -91 
Q 1169 -91 856 284 
Q 544 659 544 1381 
z
M 1991 3584 
L 1991 3584 
z
" transform="scale(0.015625)"/>
       <path id="DejaVuSans-63" d="M 3122 3366 
L 3122 2828 
Q 2878 2963 2633 3030 
Q 2388 3097 2138 3097 
Q 1578 3097 1268 2742 
Q 959 2388 959 1747 
Q 959 1106 1268 751 
Q 1578 397 2138 397 
Q 2388 397 2633 464 
Q 2878 531 3122 666 
L 3122 134 
Q 2881 22 2623 -34 
Q 2366 -91 2075 -91 
Q 1284 -91 818 406 
Q 353 903 353 1747 
Q 353 2603 823 3093 
Q 1294 3584 2113 3584 
Q 2378 3584 2631 3529 
Q 2884 3475 3122 3366 
z
" transform="scale(0.015625)"/>
       <path id="DejaVuSans-28" d="M 1984 4856 
Q 1566 4138 1362 3434 
Q 1159 2731 1159 2009 
Q 1159 1288 1364 580 
Q 1569 -128 1984 -844 
L 1484 -844 
Q 1016 -109 783 600 
Q 550 1309 550 2009 
Q 550 2706 781 3412 
Q 1013 4119 1484 4856 
L 1984 4856 
z
" transform="scale(0.015625)"/>
       <path id="DejaVuSans-73" d="M 2834 3397 
L 2834 2853 
Q 2591 2978 2328 3040 
Q 2066 3103 1784 3103 
Q 1356 3103 1142 2972 
Q 928 2841 928 2578 
Q 928 2378 1081 2264 
Q 1234 2150 1697 2047 
L 1894 2003 
Q 2506 1872 2764 1633 
Q 3022 1394 3022 966 
Q 3022 478 2636 193 
Q 2250 -91 1575 -91 
Q 1294 -91 989 -36 
Q 684 19 347 128 
L 347 722 
Q 666 556 975 473 
Q 1284 391 1588 391 
Q 1994 391 2212 530 
Q 2431 669 2431 922 
Q 2431 1156 2273 1281 
Q 2116 1406 1581 1522 
L 1381 1569 
Q 847 1681 609 1914 
Q 372 2147 372 2553 
Q 372 3047 722 3315 
Q 1072 3584 1716 3584 
Q 2034 3584 2315 3537 
Q 2597 3491 2834 3397 
z
" transform="scale(0.015625)"/>
       <path id="DejaVuSans-69" d="M 603 3500 
L 1178 3500 
L 1178 0 
L 603 0 
L 603 3500 
z
M 603 4863 
L 1178 4863 
L 1178 4134 
L 603 4134 
L 603 4863 
z
" transform="scale(0.015625)"/>
       <path id="DejaVuSans-6e" d="M 3513 2113 
L 3513 0 
L 2938 0 
L 2938 2094 
Q 2938 2591 2744 2837 
Q 2550 3084 2163 3084 
Q 1697 3084 1428 2787 
Q 1159 2491 1159 1978 
L 1159 0 
L 581 0 
L 581 3500 
L 1159 3500 
L 1159 2956 
Q 1366 3272 1645 3428 
Q 1925 3584 2291 3584 
Q 2894 3584 3203 3211 
Q 3513 2838 3513 2113 
z
" transform="scale(0.015625)"/>
       <path id="DejaVuSans-65" d="M 3597 1894 
L 3597 1613 
L 953 1613 
Q 991 1019 1311 708 
Q 1631 397 2203 397 
Q 2534 397 2845 478 
Q 3156 559 3463 722 
L 3463 178 
Q 3153 47 2828 -22 
Q 2503 -91 2169 -91 
Q 1331 -91 842 396 
Q 353 884 353 1716 
Q 353 2575 817 3079 
Q 1281 3584 2069 3584 
Q 2775 3584 3186 3129 
Q 3597 2675 3597 1894 
z
M 3022 2063 
Q 3016 2534 2758 2815 
Q 2500 3097 2075 3097 
Q 1594 3097 1305 2825 
Q 1016 2553 972 2059 
L 3022 2063 
z
" transform="scale(0.015625)"/>
       <path id="DejaVuSans-6d" d="M 3328 2828 
Q 3544 3216 3844 3400 
Q 4144 3584 4550 3584 
Q 5097 3584 5394 3201 
Q 5691 2819 5691 2113 
L 5691 0 
L 5113 0 
L 5113 2094 
Q 5113 2597 4934 2840 
Q 4756 3084 4391 3084 
Q 3944 3084 3684 2787 
Q 3425 2491 3425 1978 
L 3425 0 
L 2847 0 
L 2847 2094 
Q 2847 2600 2669 2842 
Q 2491 3084 2119 3084 
Q 1678 3084 1418 2786 
Q 1159 2488 1159 1978 
L 1159 0 
L 581 0 
L 581 3500 
L 1159 3500 
L 1159 2956 
Q 1356 3278 1631 3431 
Q 1906 3584 2284 3584 
Q 2666 3584 2933 3390 
Q 3200 3197 3328 2828 
z
" transform="scale(0.015625)"/>
       <path id="DejaVuSans-6c" d="M 603 4863 
L 1178 4863 
L 1178 0 
L 603 0 
L 603 4863 
z
" transform="scale(0.015625)"/>
       <path id="DejaVuSans-61" d="M 2194 1759 
Q 1497 1759 1228 1600 
Q 959 1441 959 1056 
Q 959 750 1161 570 
Q 1363 391 1709 391 
Q 2188 391 2477 730 
Q 2766 1069 2766 1631 
L 2766 1759 
L 2194 1759 
z
M 3341 1997 
L 3341 0 
L 2766 0 
L 2766 531 
Q 2569 213 2275 61 
Q 1981 -91 1556 -91 
Q 1019 -91 701 211 
Q 384 513 384 1019 
Q 384 1609 779 1909 
Q 1175 2209 1959 2209 
L 2766 2209 
L 2766 2266 
Q 2766 2663 2505 2880 
Q 2244 3097 1772 3097 
Q 1472 3097 1187 3025 
Q 903 2953 641 2809 
L 641 3341 
Q 956 3463 1253 3523 
Q 1550 3584 1831 3584 
Q 2591 3584 2966 3190 
Q 3341 2797 3341 1997 
z
" transform="scale(0.015625)"/>
       <path id="DejaVuSans-79" d="M 2059 -325 
Q 1816 -950 1584 -1140 
Q 1353 -1331 966 -1331 
L 506 -1331 
L 506 -850 
L 844 -850 
Q 1081 -850 1212 -737 
Q 1344 -625 1503 -206 
L 1606 56 
L 191 3500 
L 800 3500 
L 1894 763 
L 2988 3500 
L 3597 3500 
L 2059 -325 
z
" transform="scale(0.015625)"/>
       <path id="DejaVuSans-29" d="M 513 4856 
L 1013 4856 
Q 1481 4119 1714 3412 
Q 1947 2706 1947 2009 
Q 1947 1309 1714 600 
Q 1481 -109 1013 -844 
L 513 -844 
Q 928 -128 1133 580 
Q 1338 1288 1338 2009 
Q 1338 2731 1133 3434 
Q 928 4138 513 4856 
z
" transform="scale(0.015625)"/>
      </defs>
      <use xlink:href="#DejaVuSans-44"/>
      <use xlink:href="#DejaVuSans-6f" transform="translate(77.001953 0)"/>
      <use xlink:href="#DejaVuSans-74" transform="translate(138.183594 0)"/>
      <use xlink:href="#DejaVuSans-20" transform="translate(177.392578 0)"/>
      <use xlink:href="#DejaVuSans-70" transform="translate(209.179688 0)"/>
      <use xlink:href="#DejaVuSans-72" transform="translate(272.65625 0)"/>
      <use xlink:href="#DejaVuSans-6f" transform="translate(311.519531 0)"/>
      <use xlink:href="#DejaVuSans-64" transform="translate(372.701172 0)"/>
      <use xlink:href="#DejaVuSans-75" transform="translate(436.177734 0)"/>
      <use xlink:href="#DejaVuSans-63" transform="translate(499.556641 0)"/>
      <use xlink:href="#DejaVuSans-74" transform="translate(554.537109 0)"/>
      <use xlink:href="#DejaVuSans-20" transform="translate(593.746094 0)"/>
      <use xlink:href="#DejaVuSans-28" transform="translate(625.533203 0)"/>
      <use xlink:href="#DejaVuSans-63" transform="translate(664.546875 0)"/>
      <use xlink:href="#DejaVuSans-6f" transform="translate(719.527344 0)"/>
      <use xlink:href="#DejaVuSans-73" transform="translate(780.708984 0)"/>
      <use xlink:href="#DejaVuSans-69" transform="translate(832.808594 0)"/>
      <use xlink:href="#DejaVuSans-6e" transform="translate(860.591797 0)"/>
      <use xlink:href="#DejaVuSans-65" transform="translate(923.970703 0)"/>
      <use xlink:href="#DejaVuSans-20" transform="translate(985.494141 0)"/>
      <use xlink:href="#DejaVuSans-73" transform="translate(1017.28125 0)"/>
      <use xlink:href="#DejaVuSans-69" transform="translate(1069.380859 0)"/>
      <use xlink:href="#DejaVuSans-6d" transform="translate(1097.164062 0)"/>
      <use xlink:href="#DejaVuSans-69" transform="translate(1194.576172 0)"/>
      <use xlink:href="#DejaVuSans-6c" transform="translate(1222.359375 0)"/>
      <use xlink:href="#DejaVuSans-61" transform="translate(1250.142578 0)"/>
      <use xlink:href="#DejaVuSans-72" transform="translate(1311.421875 0)"/>
      <use xlink:href="#DejaVuSans-69" transform="translate(1352.535156 0)"/>
      <use xlink:href="#DejaVuSans-74" transform="translate(1380.318359 0)"/>
      <use xlink:href="#DejaVuSans-79" transform="translate(1419.527344 0)"/>
      <use xlink:href="#DejaVuSans-29" transform="translate(1478.707031 0)"/>
     </g>
    </g>
   </g>
   <g id="matplotlib.axis_2">
    <g id="ytick_1">
     <g id="line2d_10">
      <defs>
       <path id="m621e627bfa" d="M 0 0 
L -3.5 0 
" style="stroke: #000000; stroke-width: 0.8"/>
      </defs>
      <g>
       <use xlink:href="#m621e627bfa" x="35.208438" y="242.08" style="stroke: #000000; stroke-width: 0.8"/>
      </g>
     </g>
     <g id="text_11">
      <!-- 0 -->
      <g transform="translate(21.845938 245.879219) scale(0.1 -0.1)">
       <use xlink:href="#DejaVuSans-30"/>
      </g>
     </g>
    </g>
    <g id="ytick_2">
     <g id="line2d_11">
      <g>
       <use xlink:href="#m621e627bfa" x="35.208438" y="192.006948" style="stroke: #000000; stroke-width: 0.8"/>
      </g>
     </g>
     <g id="text_12">
      <!-- 2 -->
      <g transform="translate(21.845938 195.806167) scale(0.1 -0.1)">
       <use xlink:href="#DejaVuSans-32"/>
      </g>
     </g>
    </g>
    <g id="ytick_3">
     <g id="line2d_12">
      <g>
       <use xlink:href="#m621e627bfa" x="35.208438" y="141.933897" style="stroke: #000000; stroke-width: 0.8"/>
      </g>
     </g>
     <g id="text_13">
      <!-- 4 -->
      <g transform="translate(21.845938 145.733115) scale(0.1 -0.1)">
       <defs>
        <path id="DejaVuSans-34" d="M 2419 4116 
L 825 1625 
L 2419 1625 
L 2419 4116 
z
M 2253 4666 
L 3047 4666 
L 3047 1625 
L 3713 1625 
L 3713 1100 
L 3047 1100 
L 3047 0 
L 2419 0 
L 2419 1100 
L 313 1100 
L 313 1709 
L 2253 4666 
z
" transform="scale(0.015625)"/>
       </defs>
       <use xlink:href="#DejaVuSans-34"/>
      </g>
     </g>
    </g>
    <g id="ytick_4">
     <g id="line2d_13">
      <g>
       <use xlink:href="#m621e627bfa" x="35.208438" y="91.860845" style="stroke: #000000; stroke-width: 0.8"/>
      </g>
     </g>
     <g id="text_14">
      <!-- 6 -->
      <g transform="translate(21.845938 95.660064) scale(0.1 -0.1)">
       <defs>
        <path id="DejaVuSans-36" d="M 2113 2584 
Q 1688 2584 1439 2293 
Q 1191 2003 1191 1497 
Q 1191 994 1439 701 
Q 1688 409 2113 409 
Q 2538 409 2786 701 
Q 3034 994 3034 1497 
Q 3034 2003 2786 2293 
Q 2538 2584 2113 2584 
z
M 3366 4563 
L 3366 3988 
Q 3128 4100 2886 4159 
Q 2644 4219 2406 4219 
Q 1781 4219 1451 3797 
Q 1122 3375 1075 2522 
Q 1259 2794 1537 2939 
Q 1816 3084 2150 3084 
Q 2853 3084 3261 2657 
Q 3669 2231 3669 1497 
Q 3669 778 3244 343 
Q 2819 -91 2113 -91 
Q 1303 -91 875 529 
Q 447 1150 447 2328 
Q 447 3434 972 4092 
Q 1497 4750 2381 4750 
Q 2619 4750 2861 4703 
Q 3103 4656 3366 4563 
z
" transform="scale(0.015625)"/>
       </defs>
       <use xlink:href="#DejaVuSans-36"/>
      </g>
     </g>
    </g>
    <g id="ytick_5">
     <g id="line2d_14">
      <g>
       <use xlink:href="#m621e627bfa" x="35.208438" y="41.787793" style="stroke: #000000; stroke-width: 0.8"/>
      </g>
     </g>
     <g id="text_15">
      <!-- 8 -->
      <g transform="translate(21.845938 45.587012) scale(0.1 -0.1)">
       <defs>
        <path id="DejaVuSans-38" d="M 2034 2216 
Q 1584 2216 1326 1975 
Q 1069 1734 1069 1313 
Q 1069 891 1326 650 
Q 1584 409 2034 409 
Q 2484 409 2743 651 
Q 3003 894 3003 1313 
Q 3003 1734 2745 1975 
Q 2488 2216 2034 2216 
z
M 1403 2484 
Q 997 2584 770 2862 
Q 544 3141 544 3541 
Q 544 4100 942 4425 
Q 1341 4750 2034 4750 
Q 2731 4750 3128 4425 
Q 3525 4100 3525 3541 
Q 3525 3141 3298 2862 
Q 3072 2584 2669 2484 
Q 3125 2378 3379 2068 
Q 3634 1759 3634 1313 
Q 3634 634 3220 271 
Q 2806 -91 2034 -91 
Q 1263 -91 848 271 
Q 434 634 434 1313 
Q 434 1759 690 2068 
Q 947 2378 1403 2484 
z
M 1172 3481 
Q 1172 3119 1398 2916 
Q 1625 2713 2034 2713 
Q 2441 2713 2670 2916 
Q 2900 3119 2900 3481 
Q 2900 3844 2670 4047 
Q 2441 4250 2034 4250 
Q 1625 4250 1398 4047 
Q 1172 3844 1172 3481 
z
" transform="scale(0.015625)"/>
       </defs>
       <use xlink:href="#DejaVuSans-38"/>
      </g>
     </g>
    </g>
    <g id="text_16">
     <!-- Density -->
     <g transform="translate(15.558281 145.549453) rotate(-90) scale(0.11 -0.11)">
      <use xlink:href="#DejaVuSans-44"/>
      <use xlink:href="#DejaVuSans-65" transform="translate(77.001953 0)"/>
      <use xlink:href="#DejaVuSans-6e" transform="translate(138.525391 0)"/>
      <use xlink:href="#DejaVuSans-73" transform="translate(201.904297 0)"/>
      <use xlink:href="#DejaVuSans-69" transform="translate(254.003906 0)"/>
      <use xlink:href="#DejaVuSans-74" transform="translate(281.787109 0)"/>
      <use xlink:href="#DejaVuSans-79" transform="translate(320.996094 0)"/>
     </g>
    </g>
   </g>
   <g id="line2d_15">
    <path d="M 292.913437 242.08 
L 292.913437 7.2 
" clip-path="url(#p6728b2e185)" style="fill: none; stroke-dasharray: 3.7,1.6; stroke-dashoffset: 0; stroke: #a3a3a3"/>
   </g>
   <g id="patch_183">
    <path d="M 35.208438 242.08 
L 35.208438 7.2 
" style="fill: none; stroke: #000000; stroke-width: 0.8; stroke-linejoin: miter; stroke-linecap: square"/>
   </g>
   <g id="patch_184">
    <path d="M 35.208438 242.08 
L 550.618437 242.08 
" style="fill: none; stroke: #000000; stroke-width: 0.8; stroke-linejoin: miter; stroke-linecap: square"/>
   </g>
   <g id="legend_1">
    <g id="patch_185">
     <path d="M 471.446562 59.234375 
L 543.618437 59.234375 
Q 545.618437 59.234375 545.618437 57.234375 
L 545.618437 14.2 
Q 545.618437 12.2 543.618437 12.2 
L 471.446562 12.2 
Q 469.446562 12.2 469.446562 14.2 
L 469.446562 57.234375 
Q 469.446562 59.234375 471.446562 59.234375 
z
" style="fill: #ffffff; opacity: 0.8; stroke: #cccccc; stroke-linejoin: miter"/>
    </g>
    <g id="patch_186">
     <path d="M 473.446562 23.798437 
L 493.446562 23.798437 
L 493.446562 16.798437 
L 473.446562 16.798437 
z
" style="fill: #c45a3b; opacity: 0.55; stroke: #c45a3b; stroke-width: 0.5; stroke-linejoin: miter"/>
    </g>
    <g id="text_17">
     <!-- d = 3 -->
     <g transform="translate(501.446562 23.798437) scale(0.1 -0.1)">
      <defs>
       <path id="DejaVuSans-3d" d="M 678 2906 
L 4684 2906 
L 4684 2381 
L 678 2381 
L 678 2906 
z
M 678 1631 
L 4684 1631 
L 4684 1100 
L 678 1100 
L 678 1631 
z
" transform="scale(0.015625)"/>
       <path id="DejaVuSans-33" d="M 2597 2516 
Q 3050 2419 3304 2112 
Q 3559 1806 3559 1356 
Q 3559 666 3084 287 
Q 2609 -91 1734 -91 
Q 1441 -91 1130 -33 
Q 819 25 488 141 
L 488 750 
Q 750 597 1062 519 
Q 1375 441 1716 441 
Q 2309 441 2620 675 
Q 2931 909 2931 1356 
Q 2931 1769 2642 2001 
Q 2353 2234 1838 2234 
L 1294 2234 
L 1294 2753 
L 1863 2753 
Q 2328 2753 2575 2939 
Q 2822 3125 2822 3475 
Q 2822 3834 2567 4026 
Q 2313 4219 1838 4219 
Q 1578 4219 1281 4162 
Q 984 4106 628 3988 
L 628 4550 
Q 988 4650 1302 4700 
Q 1616 4750 1894 4750 
Q 2613 4750 3031 4423 
Q 3450 4097 3450 3541 
Q 3450 3153 3228 2886 
Q 3006 2619 2597 2516 
z
" transform="scale(0.015625)"/>
      </defs>
      <use xlink:href="#DejaVuSans-64"/>
      <use xlink:href="#DejaVuSans-20" transform="translate(63.476562 0)"/>
      <use xlink:href="#DejaVuSans-3d" transform="translate(95.263672 0)"/>
      <use xlink:href="#DejaVuSans-20" transform="translate(179.052734 0)"/>
      <use xlink:href="#DejaVuSans-33" transform="translate(210.839844 0)"/>
     </g>
    </g>
    <g id="patch_187">
     <path d="M 473.446562 38.476562 
L 493.446562 38.476562 
L 493.446562 31.476562 
L 473.446562 31.476562 
z
" style="fill: #2a7f8e; opacity: 0.55; stroke: #2a7f8e; stroke-width: 0.5; stroke-linejoin: miter"/>
    </g>
    <g id="text_18">
     <!-- d = 50 -->
     <g transform="translate(501.446562 38.476562) scale(0.1 -0.1)">
      <use xlink:href="#DejaVuSans-64"/>
      <use xlink:href="#DejaVuSans-20" transform="translate(63.476562 0)"/>
      <use xlink:href="#DejaVuSans-3d" transform="translate(95.263672 0)"/>
      <use xlink:href="#DejaVuSans-20" transform="translate(179.052734 0)"/>
      <use xlink:href="#DejaVuSans-35" transform="translate(210.839844 0)"/>
      <use xlink:href="#DejaVuSans-30" transform="translate(274.462891 0)"/>
     </g>
    </g>
    <g id="patch_188">
     <path d="M 473.446562 53.154687 
L 493.446562 53.154687 
L 493.446562 46.154687 
L 473.446562 46.154687 
z
" style="fill: #b5942a; opacity: 0.55; stroke: #b5942a; stroke-width: 0.5; stroke-linejoin: miter"/>
    </g>
    <g id="text_19">
     <!-- d = 500 -->
     <g transform="translate(501.446562 53.154687) scale(0.1 -0.1)">
      <use xlink:href="#DejaVuSans-64"/>
      <use xlink:href="#DejaVuSans-20" transform="translate(63.476562 0)"/>
      <use xlink:href="#DejaVuSans-3d" transform="translate(95.263672 0)"/>
      <use xlink:href="#DejaVuSans-20" transform="translate(179.052734 0)"/>
      <use xlink:href="#DejaVuSans-35" transform="translate(210.839844 0)"/>
      <use xlink:href="#DejaVuSans-30" transform="translate(274.462891 0)"/>
      <use xlink:href="#DejaVuSans-30" transform="translate(338.085938 0)"/>
     </g>
    </g>
   </g>
  </g>
 </g>
 <defs>
  <clipPath id="p6728b2e185">
   <rect x="35.208438" y="7.2" width="515.41" height="234.88"/>
  </clipPath>
 </defs>
</svg>
