<?xml version="1.0" encoding="utf-8" standalone="no"?>
<!DOCTYPE svg PUBLIC "-//W3C//DTD SVG 1.1//EN"
  "http://www.w3.org/Graphics/SVG/1.1/DTD/svg11.dtd">
<svg xmlns:xlink="http://www.w3.org/1999/xlink" width="568.978437pt" height="280.604062pt" viewBox="0 0 568.978437 280.604062" xmlns="http://www.w3.org/2000/svg" version="1.1">
 <metadata>
  <rdf:RDF xmlns:dc="http://purl.org/dc/elements/1.1/" xmlns:cc="http://creativecommons.org/ns#" xmlns:rdf="http://www.w3.org/1999/02/22-rdf-syntax-ns#">
   <cc:Work>
    <dc:type rdf:resource="http://purl.org/dc/dcmitype/StillImage"/>
    <dc:date>2026-03-12T22:43:20.702437</dc:date>
    <dc:format>image/svg+xml</dc:format>
    <dc:creator>
     <cc:Agent>
      <dc:title>Matplotlib v3.10.8, https://matplotlib.org/</dc:title>
     </cc:Agent>
    </dc:creator>
   </cc:Work>
  </rdf:RDF>
 </metadata>
 <defs>
  <style type="text/css">*{stroke-linejoin: round; stroke-linecap: butt}</style>
 </defs>
 <g id="figure_1">
  <g id="patch_1">
   <path d="M 0 280.604062 
L 568.978437 280.604062 
L 568.978437 0 
L 0 0 
z
" style="fill: #ffffff"/>
  </g>
  <g id="axes_1">
   <g id="patch_2">
    <path d="M 35.208438 242.08 
L 561.778437 242.08 
L 561.778437 7.2 
L 35.208438 7.2 
z
" style="fill: #ffffff"/>
   </g>
   <g id="patch_3">
    <path d="M 41.403379 242.08 
L 49.6633 242.08 
L 49.6633 157.086001 
L 41.403379 157.086001 
z
" clip-path="url(#p1e99ec59a1)" style="fill: #2a7f8e; opacity: 0.8"/>
   </g>
   <g id="patch_4">
    <path d="M 51.728281 242.08 
L 59.988202 242.08 
L 59.988202 108.571739 
L 51.728281 108.571739 
z
" clip-path="url(#p1e99ec59a1)" style="fill: #2a7f8e; opacity: 0.8"/>
   </g>
   <g id="patch_5">
    <path d="M 62.053183 242.08 
L 70.313104 242.08 
L 70.313104 64.068986 
L 62.053183 64.068986 
z
" clip-path="url(#p1e99ec59a1)" style="fill: #2a7f8e; opacity: 0.8"/>
   </g>
   <g id="patch_6">
    <path d="M 72.378085 242.08 
L 80.638006 242.08 
L 80.638006 32.365714 
L 72.378085 32.365714 
z
" clip-path="url(#p1e99ec59a1)" style="fill: #2a7f8e; opacity: 0.8"/>
   </g>
   <g id="patch_7">
    <path d="M 82.702987 242.08 
L 90.962908 242.08 
L 90.962908 18.384762 
L 82.702987 18.384762 
z
" clip-path="url(#p1e99ec59a1)" style="fill: #2a7f8e; opacity: 0.8"/>
   </g>
   <g id="patch_8">
    <path d="M 93.027888 242.08 
L 101.28781 242.08 
L 101.28781 22.467714 
L 93.027888 22.467714 
z
" clip-path="url(#p1e99ec59a1)" style="fill: #2a7f8e; opacity: 0.8"/>
   </g>
   <g id="patch_9">
    <path d="M 103.35279 242.08 
L 111.612712 242.08 
L 111.612712 41.291624 
L 103.35279 41.291624 
z
" clip-path="url(#p1e99ec59a1)" style="fill: #2a7f8e; opacity: 0.8"/>
   </g>
   <g id="patch_10">
    <path d="M 113.677692 242.08 
L 121.937614 242.08 
L 121.937614 69.596914 
L 113.677692 69.596914 
z
" clip-path="url(#p1e99ec59a1)" style="fill: #2a7f8e; opacity: 0.8"/>
   </g>
   <g id="patch_11">
    <path d="M 124.002594 242.08 
L 132.262516 242.08 
L 132.262516 101.903269 
L 124.002594 101.903269 
z
" clip-path="url(#p1e99ec59a1)" style="fill: #2a7f8e; opacity: 0.8"/>
   </g>
   <g id="patch_12">
    <path d="M 134.327496 242.08 
L 142.587418 242.08 
L 142.587418 133.705681 
L 134.327496 133.705681 
z
" clip-path="url(#p1e99ec59a1)" style="fill: #2a7f8e; opacity: 0.8"/>
   </g>
   <g id="patch_13">
    <path d="M 144.652398 242.08 
L 152.91232 242.08 
L 152.91232 162.011239 
L 144.652398 162.011239 
z
" clip-path="url(#p1e99ec59a1)" style="fill: #2a7f8e; opacity: 0.8"/>
   </g>
   <g id="patch_14">
    <path d="M 154.9773 242.08 
L 163.237222 242.08 
L 163.237222 185.335339 
L 154.9773 185.335339 
z
" clip-path="url(#p1e99ec59a1)" style="fill: #2a7f8e; opacity: 0.8"/>
   </g>
   <g id="patch_15">
    <path d="M 165.302202 242.08 
L 173.562124 242.08 
L 173.562124 203.38101 
L 165.302202 203.38101 
z
" clip-path="url(#p1e99ec59a1)" style="fill: #2a7f8e; opacity: 0.8"/>
   </g>
   <g id="patch_16">
    <path d="M 175.627104 242.08 
L 183.887026 242.08 
L 183.887026 216.613056 
L 175.627104 216.613056 
z
" clip-path="url(#p1e99ec59a1)" style="fill: #2a7f8e; opacity: 0.8"/>
   </g>
   <g id="patch_17">
    <path d="M 185.952006 242.08 
L 194.211928 242.08 
L 194.211928 225.869805 
L 185.952006 225.869805 
z
" clip-path="url(#p1e99ec59a1)" style="fill: #2a7f8e; opacity: 0.8"/>
   </g>
   <g id="patch_18">
    <path d="M 196.276908 242.08 
L 204.53683 242.08 
L 204.53683 232.079154 
L 196.276908 232.079154 
z
" clip-path="url(#p1e99ec59a1)" style="fill: #2a7f8e; opacity: 0.8"/>
   </g>
   <g id="patch_19">
    <path d="M 206.60181 242.08 
L 214.861732 242.08 
L 214.861732 236.088726 
L 206.60181 236.088726 
z
" clip-path="url(#p1e99ec59a1)" style="fill: #2a7f8e; opacity: 0.8"/>
   </g>
   <g id="patch_20">
    <path d="M 216.926712 242.08 
L 225.186634 242.08 
L 225.186634 238.589046 
L 216.926712 238.589046 
z
" clip-path="url(#p1e99ec59a1)" style="fill: #2a7f8e; opacity: 0.8"/>
   </g>
   <g id="patch_21">
    <path d="M 227.251614 242.08 
L 235.511536 242.08 
L 235.511536 240.098722 
L 227.251614 240.098722 
z
" clip-path="url(#p1e99ec59a1)" style="fill: #2a7f8e; opacity: 0.8"/>
   </g>
   <g id="patch_22">
    <path d="M 237.576516 242.08 
L 245.836437 242.08 
L 245.836437 240.983285 
L 237.576516 240.983285 
z
" clip-path="url(#p1e99ec59a1)" style="fill: #2a7f8e; opacity: 0.8"/>
   </g>
   <g id="patch_23">
    <path d="M 247.901418 242.08 
L 256.161339 242.08 
L 256.161339 241.487203 
L 247.901418 241.487203 
z
" clip-path="url(#p1e99ec59a1)" style="fill: #2a7f8e; opacity: 0.8"/>
   </g>
   <g id="patch_24">
    <path d="M 258.22632 242.08 
L 266.486241 242.08 
L 266.486241 241.766779 
L 258.22632 241.766779 
z
" clip-path="url(#p1e99ec59a1)" style="fill: #2a7f8e; opacity: 0.8"/>
   </g>
   <g id="patch_25">
    <path d="M 268.551222 242.08 
L 276.811143 242.08 
L 276.811143 241.918059 
L 268.551222 241.918059 
z
" clip-path="url(#p1e99ec59a1)" style="fill: #2a7f8e; opacity: 0.8"/>
   </g>
   <g id="patch_26">
    <path d="M 278.876124 242.08 
L 287.136045 242.08 
L 287.136045 241.997999 
L 278.876124 241.997999 
z
" clip-path="url(#p1e99ec59a1)" style="fill: #2a7f8e; opacity: 0.8"/>
   </g>
   <g id="patch_27">
    <path d="M 289.201026 242.08 
L 297.460947 242.08 
L 297.460947 242.0393 
L 289.201026 242.0393 
z
" clip-path="url(#p1e99ec59a1)" style="fill: #2a7f8e; opacity: 0.8"/>
   </g>
   <g id="patch_28">
    <path d="M 299.525928 242.08 
L 307.785849 242.08 
L 307.785849 242.060184 
L 299.525928 242.060184 
z
" clip-path="url(#p1e99ec59a1)" style="fill: #2a7f8e; opacity: 0.8"/>
   </g>
   <g id="patch_29">
    <path d="M 309.85083 242.08 
L 318.110751 242.08 
L 318.110751 242.070529 
L 309.85083 242.070529 
z
" clip-path="url(#p1e99ec59a1)" style="fill: #2a7f8e; opacity: 0.8"/>
   </g>
   <g id="patch_30">
    <path d="M 320.175732 242.08 
L 328.435653 242.08 
L 328.435653 242.075553 
L 320.175732 242.075553 
z
" clip-path="url(#p1e99ec59a1)" style="fill: #2a7f8e; opacity: 0.8"/>
   </g>
   <g id="patch_31">
    <path d="M 330.500634 242.08 
L 338.760555 242.08 
L 338.760555 242.077948 
L 330.500634 242.077948 
z
" clip-path="url(#p1e99ec59a1)" style="fill: #2a7f8e; opacity: 0.8"/>
   </g>
   <g id="patch_32">
    <path d="M 340.825536 242.08 
L 349.085457 242.08 
L 349.085457 242.079069 
L 340.825536 242.079069 
z
" clip-path="url(#p1e99ec59a1)" style="fill: #2a7f8e; opacity: 0.8"/>
   </g>
   <g id="patch_33">
    <path d="M 351.150437 242.08 
L 359.410359 242.08 
L 359.410359 242.079584 
L 351.150437 242.079584 
z
" clip-path="url(#p1e99ec59a1)" style="fill: #2a7f8e; opacity: 0.8"/>
   </g>
   <g id="patch_34">
    <path d="M 361.475339 242.08 
L 369.735261 242.08 
L 369.735261 242.079817 
L 361.475339 242.079817 
z
" clip-path="url(#p1e99ec59a1)" style="fill: #2a7f8e; opacity: 0.8"/>
   </g>
   <g id="patch_35">
    <path d="M 371.800241 242.08 
L 380.060163 242.08 
L 380.060163 242.079921 
L 371.800241 242.079921 
z
" clip-path="url(#p1e99ec59a1)" style="fill: #2a7f8e; opacity: 0.8"/>
   </g>
   <g id="patch_36">
    <path d="M 382.125143 242.08 
L 390.385065 242.08 
L 390.385065 242.079966 
L 382.125143 242.079966 
z
" clip-path="url(#p1e99ec59a1)" style="fill: #2a7f8e; opacity: 0.8"/>
   </g>
   <g id="patch_37">
    <path d="M 392.450045 242.08 
L 400.709967 242.08 
L 400.709967 242.079986 
L 392.450045 242.079986 
z
" clip-path="url(#p1e99ec59a1)" style="fill: #2a7f8e; opacity: 0.8"/>
   </g>
   <g id="patch_38">
    <path d="M 402.774947 242.08 
L 411.034869 242.08 
L 411.034869 242.079994 
L 402.774947 242.079994 
z
" clip-path="url(#p1e99ec59a1)" style="fill: #2a7f8e; opacity: 0.8"/>
   </g>
   <g id="patch_39">
    <path d="M 413.099849 242.08 
L 421.359771 242.08 
L 421.359771 242.079998 
L 413.099849 242.079998 
z
" clip-path="url(#p1e99ec59a1)" style="fill: #2a7f8e; opacity: 0.8"/>
   </g>
   <g id="patch_40">
    <path d="M 423.424751 242.08 
L 431.684673 242.08 
L 431.684673 242.079999 
L 423.424751 242.079999 
z
" clip-path="url(#p1e99ec59a1)" style="fill: #2a7f8e; opacity: 0.8"/>
   </g>
   <g id="patch_41">
    <path d="M 433.749653 242.08 
L 442.009575 242.08 
L 442.009575 242.08 
L 433.749653 242.08 
z
" clip-path="url(#p1e99ec59a1)" style="fill: #2a7f8e; opacity: 0.8"/>
   </g>
   <g id="patch_42">
    <path d="M 444.074555 242.08 
L 452.334477 242.08 
L 452.334477 242.08 
L 444.074555 242.08 
z
" clip-path="url(#p1e99ec59a1)" style="fill: #2a7f8e; opacity: 0.8"/>
   </g>
   <g id="patch_43">
    <path d="M 454.399457 242.08 
L 462.659379 242.08 
L 462.659379 242.08 
L 454.399457 242.08 
z
" clip-path="url(#p1e99ec59a1)" style="fill: #2a7f8e; opacity: 0.8"/>
   </g>
   <g id="patch_44">
    <path d="M 464.724359 242.08 
L 472.984281 242.08 
L 472.984281 242.08 
L 464.724359 242.08 
z
" clip-path="url(#p1e99ec59a1)" style="fill: #2a7f8e; opacity: 0.8"/>
   </g>
   <g id="patch_45">
    <path d="M 475.049261 242.08 
L 483.309183 242.08 
L 483.309183 242.08 
L 475.049261 242.08 
z
" clip-path="url(#p1e99ec59a1)" style="fill: #2a7f8e; opacity: 0.8"/>
   </g>
   <g id="patch_46">
    <path d="M 485.374163 242.08 
L 493.634085 242.08 
L 493.634085 242.08 
L 485.374163 242.08 
z
" clip-path="url(#p1e99ec59a1)" style="fill: #2a7f8e; opacity: 0.8"/>
   </g>
   <g id="patch_47">
    <path d="M 495.699065 242.08 
L 503.958987 242.08 
L 503.958987 242.08 
L 495.699065 242.08 
z
" clip-path="url(#p1e99ec59a1)" style="fill: #2a7f8e; opacity: 0.8"/>
   </g>
   <g id="patch_48">
    <path d="M 506.023967 242.08 
L 514.283888 242.08 
L 514.283888 242.08 
L 506.023967 242.08 
z
" clip-path="url(#p1e99ec59a1)" style="fill: #2a7f8e; opacity: 0.8"/>
   </g>
   <g id="patch_49">
    <path d="M 516.348869 242.08 
L 524.60879 242.08 
L 524.60879 242.08 
L 516.348869 242.08 
z
" clip-path="url(#p1e99ec59a1)" style="fill: #2a7f8e; opacity: 0.8"/>
   </g>
   <g id="patch_50">
    <path d="M 526.673771 242.08 
L 534.933692 242.08 
L 534.933692 242.08 
L 526.673771 242.08 
z
" clip-path="url(#p1e99ec59a1)" style="fill: #2a7f8e; opacity: 0.8"/>
   </g>
   <g id="patch_51">
    <path d="M 536.998673 242.08 
L 545.258594 242.08 
L 545.258594 242.08 
L 536.998673 242.08 
z
" clip-path="url(#p1e99ec59a1)" style="fill: #2a7f8e; opacity: 0.8"/>
   </g>
   <g id="patch_52">
    <path d="M 547.323575 242.08 
L 555.583496 242.08 
L 555.583496 242.08 
L 547.323575 242.08 
z
" clip-path="url(#p1e99ec59a1)" style="fill: #2a7f8e; opacity: 0.8"/>
   </g>
   <g id="matplotlib.axis_1">
    <g id="xtick_1">
     <g id="line2d_1">
      <defs>
       <path id="m491dfce14d" d="M 0 0 
L 0 3.5 
" style="stroke: #000000; stroke-width: 0.8"/>
      </defs>
      <g>
       <use xlink:href="#m491dfce14d" x="35.208438" y="242.08" style="stroke: #000000; stroke-width: 0.8"/>
      </g>
     </g>
     <g id="text_1">
      <!-- 0 -->
      <g transform="translate(32.027188 256.678437) scale(0.1 -0.1)">
       <defs>
        <path id="DejaVuSans-30" d="M 2034 4250 
Q 1547 4250 1301 3770 
Q 1056 3291 1056 2328 
Q 1056 1369 1301 889 
Q 1547 409 2034 409 
Q 2525 409 2770 889 
Q 3016 1369 3016 2328 
Q 3016 3291 2770 3770 
Q 2525 4250 2034 4250 
z
M 2034 4750 
Q 2819 4750 3233 4129 
Q 3647 3509 3647 2328 
Q 3647 1150 3233 529 
Q 2819 -91 2034 -91 
Q 1250 -91 836 529 
Q 422 1150 422 2328 
Q 422 3509 836 4129 
Q 1250 4750 2034 4750 
z
" transform="scale(0.015625)"/>
       </defs>
       <use xlink:href="#DejaVuSans-30"/>
      </g>
     </g>
    </g>
    <g id="xtick_2">
     <g id="line2d_2">
      <g>
       <use xlink:href="#m491dfce14d" x="138.457457" y="242.08" style="stroke: #000000; stroke-width: 0.8"/>
      </g>
     </g>
     <g id="text_2">
      <!-- 10 -->
      <g transform="translate(132.094957 256.678437) scale(0.1 -0.1)">
       <defs>
        <path id="DejaVuSans-31" d="M 794 531 
L 1825 531 
L 1825 4091 
L 703 3866 
L 703 4441 
L 1819 4666 
L 2450 4666 
L 2450 531 
L 3481 531 
L 3481 0 
L 794 0 
L 794 531 
z
" transform="scale(0.015625)"/>
       </defs>
       <use xlink:href="#DejaVuSans-31"/>
       <use xlink:href="#DejaVuSans-30" transform="translate(63.623047 0)"/>
      </g>
     </g>
    </g>
    <g id="xtick_3">
     <g id="line2d_3">
      <g>
       <use xlink:href="#m491dfce14d" x="241.706477" y="242.08" style="stroke: #000000; stroke-width: 0.8"/>
      </g>
     </g>
     <g id="text_3">
      <!-- 20 -->
      <g transform="translate(235.343977 256.678437) scale(0.1 -0.1)">
       <defs>
        <path id="DejaVuSans-32" d="M 1228 531 
L 3431 531 
L 3431 0 
L 469 0 
L 469 531 
Q 828 903 1448 1529 
Q 2069 2156 2228 2338 
Q 2531 2678 2651 2914 
Q 2772 3150 2772 3378 
Q 2772 3750 2511 3984 
Q 2250 4219 1831 4219 
Q 1534 4219 1204 4116 
Q 875 4013 500 3803 
L 500 4441 
Q 881 4594 1212 4672 
Q 1544 4750 1819 4750 
Q 2544 4750 2975 4387 
Q 3406 4025 3406 3419 
Q 3406 3131 3298 2873 
Q 3191 2616 2906 2266 
Q 2828 2175 2409 1742 
Q 1991 1309 1228 531 
z
" transform="scale(0.015625)"/>
       </defs>
       <use xlink:href="#DejaVuSans-32"/>
       <use xlink:href="#DejaVuSans-30" transform="translate(63.623047 0)"/>
      </g>
     </g>
    </g>
    <g id="xtick_4">
     <g id="line2d_4">
      <g>
       <use xlink:href="#m491dfce14d" x="344.955496" y="242.08" style="stroke: #000000; stroke-width: 0.8"/>
      </g>
     </g>
     <g id="text_4">
      <!-- 30 -->
      <g transform="translate(338.592996 256.678437) scale(0.1 -0.1)">
       <defs>
        <path id="DejaVuSans-33" d="M 2597 2516 
Q 3050 2419 3304 2112 
Q 3559 1806 3559 1356 
Q 3559 666 3084 287 
Q 2609 -91 1734 -91 
Q 1441 -91 1130 -33 
Q 819 25 488 141 
L 488 750 
Q 750 597 1062 519 
Q 1375 441 1716 441 
Q 2309 441 2620 675 
Q 2931 909 2931 1356 
Q 2931 1769 2642 2001 
Q 2353 2234 1838 2234 
L 1294 2234 
L 1294 2753 
L 1863 2753 
Q 2328 2753 2575 2939 
Q 2822 3125 2822 3475 
Q 2822 3834 2567 4026 
Q 2313 4219 1838 4219 
Q 1578 4219 1281 4162 
Q 984 4106 628 3988 
L 628 4550 
Q 988 4650 1302 4700 
Q 1616 4750 1894 4750 
Q 2613 4750 3031 4423 
Q 3450 4097 3450 3541 
Q 3450 3153 3228 2886 
Q 3006 2619 2597 2516 
z
" transform="scale(0.015625)"/>
       </defs>
       <use xlink:href="#DejaVuSans-33"/>
       <use xlink:href="#DejaVuSans-30" transform="translate(63.623047 0)"/>
      </g>
     </g>
    </g>
    <g id="xtick_5">
     <g id="line2d_5">
      <g>
       <use xlink:href="#m491dfce14d" x="448.204516" y="242.08" style="stroke: #000000; stroke-width: 0.8"/>
      </g>
     </g>
     <g id="text_5">
      <!-- 40 -->
      <g transform="translate(441.842016 256.678437) scale(0.1 -0.1)">
       <defs>
        <path id="DejaVuSans-34" d="M 2419 4116 
L 825 1625 
L 2419 1625 
L 2419 4116 
z
M 2253 4666 
L 3047 4666 
L 3047 1625 
L 3713 1625 
L 3713 1100 
L 3047 1100 
L 3047 0 
L 2419 0 
L 2419 1100 
L 313 1100 
L 313 1709 
L 2253 4666 
z
" transform="scale(0.015625)"/>
       </defs>
       <use xlink:href="#DejaVuSans-34"/>
       <use xlink:href="#DejaVuSans-30" transform="translate(63.623047 0)"/>
      </g>
     </g>
    </g>
    <g id="xtick_6">
     <g id="line2d_6">
      <g>
       <use xlink:href="#m491dfce14d" x="551.453536" y="242.08" style="stroke: #000000; stroke-width: 0.8"/>
      </g>
     </g>
     <g id="text_6">
      <!-- 50 -->
      <g transform="translate(545.091036 256.678437) scale(0.1 -0.1)">
       <defs>
        <path id="DejaVuSans-35" d="M 691 4666 
L 3169 4666 
L 3169 4134 
L 1269 4134 
L 1269 2991 
Q 1406 3038 1543 3061 
Q 1681 3084 1819 3084 
Q 2600 3084 3056 2656 
Q 3513 2228 3513 1497 
Q 3513 744 3044 326 
Q 2575 -91 1722 -91 
Q 1428 -91 1123 -41 
Q 819 9 494 109 
L 494 744 
Q 775 591 1075 516 
Q 1375 441 1709 441 
Q 2250 441 2565 725 
Q 2881 1009 2881 1497 
Q 2881 1984 2565 2268 
Q 2250 2553 1709 2553 
Q 1456 2553 1204 2497 
Q 953 2441 691 2322 
L 691 4666 
z
" transform="scale(0.015625)"/>
       </defs>
       <use xlink:href="#DejaVuSans-35"/>
       <use xlink:href="#DejaVuSans-30" transform="translate(63.623047 0)"/>
      </g>
     </g>
    </g>
    <g id="text_7">
     <!-- Dimension (d) -->
     <g transform="translate(259.727891 271.116406) scale(0.11 -0.11)">
      <defs>
       <path id="DejaVuSans-44" d="M 1259 4147 
L 1259 519 
L 2022 519 
Q 2988 519 3436 956 
Q 3884 1394 3884 2338 
Q 3884 3275 3436 3711 
Q 2988 4147 2022 4147 
L 1259 4147 
z
M 628 4666 
L 1925 4666 
Q 3281 4666 3915 4102 
Q 4550 3538 4550 2338 
Q 4550 1131 3912 565 
Q 3275 0 1925 0 
L 628 0 
L 628 4666 
z
" transform="scale(0.015625)"/>
       <path id="DejaVuSans-69" d="M 603 3500 
L 1178 3500 
L 1178 0 
L 603 0 
L 603 3500 
z
M 603 4863 
L 1178 4863 
L 1178 4134 
L 603 4134 
L 603 4863 
z
" transform="scale(0.015625)"/>
       <path id="DejaVuSans-6d" d="M 3328 2828 
Q 3544 3216 3844 3400 
Q 4144 3584 4550 3584 
Q 5097 3584 5394 3201 
Q 5691 2819 5691 2113 
L 5691 0 
L 5113 0 
L 5113 2094 
Q 5113 2597 4934 2840 
Q 4756 3084 4391 3084 
Q 3944 3084 3684 2787 
Q 3425 2491 3425 1978 
L 3425 0 
L 2847 0 
L 2847 2094 
Q 2847 2600 2669 2842 
Q 2491 3084 2119 3084 
Q 1678 3084 1418 2786 
Q 1159 2488 1159 1978 
L 1159 0 
L 581 0 
L 581 3500 
L 1159 3500 
L 1159 2956 
Q 1356 3278 1631 3431 
Q 1906 3584 2284 3584 
Q 2666 3584 2933 3390 
Q 3200 3197 3328 2828 
z
" transform="scale(0.015625)"/>
       <path id="DejaVuSans-65" d="M 3597 1894 
L 3597 1613 
L 953 1613 
Q 991 1019 1311 708 
Q 1631 397 2203 397 
Q 2534 397 2845 478 
Q 3156 559 3463 722 
L 3463 178 
Q 3153 47 2828 -22 
Q 2503 -91 2169 -91 
Q 1331 -91 842 396 
Q 353 884 353 1716 
Q 353 2575 817 3079 
Q 1281 3584 2069 3584 
Q 2775 3584 3186 3129 
Q 3597 2675 3597 1894 
z
M 3022 2063 
Q 3016 2534 2758 2815 
Q 2500 3097 2075 3097 
Q 1594 3097 1305 2825 
Q 1016 2553 972 2059 
L 3022 2063 
z
" transform="scale(0.015625)"/>
       <path id="DejaVuSans-6e" d="M 3513 2113 
L 3513 0 
L 2938 0 
L 2938 2094 
Q 2938 2591 2744 2837 
Q 2550 3084 2163 3084 
Q 1697 3084 1428 2787 
Q 1159 2491 1159 1978 
L 1159 0 
L 581 0 
L 581 3500 
L 1159 3500 
L 1159 2956 
Q 1366 3272 1645 3428 
Q 1925 3584 2291 3584 
Q 2894 3584 3203 3211 
Q 3513 2838 3513 2113 
z
" transform="scale(0.015625)"/>
       <path id="DejaVuSans-73" d="M 2834 3397 
L 2834 2853 
Q 2591 2978 2328 3040 
Q 2066 3103 1784 3103 
Q 1356 3103 1142 2972 
Q 928 2841 928 2578 
Q 928 2378 1081 2264 
Q 1234 2150 1697 2047 
L 1894 2003 
Q 2506 1872 2764 1633 
Q 3022 1394 3022 966 
Q 3022 478 2636 193 
Q 2250 -91 1575 -91 
Q 1294 -91 989 -36 
Q 684 19 347 128 
L 347 722 
Q 666 556 975 473 
Q 1284 391 1588 391 
Q 1994 391 2212 530 
Q 2431 669 2431 922 
Q 2431 1156 2273 1281 
Q 2116 1406 1581 1522 
L 1381 1569 
Q 847 1681 609 1914 
Q 372 2147 372 2553 
Q 372 3047 722 3315 
Q 1072 3584 1716 3584 
Q 2034 3584 2315 3537 
Q 2597 3491 2834 3397 
z
" transform="scale(0.015625)"/>
       <path id="DejaVuSans-6f" d="M 1959 3097 
Q 1497 3097 1228 2736 
Q 959 2375 959 1747 
Q 959 1119 1226 758 
Q 1494 397 1959 397 
Q 2419 397 2687 759 
Q 2956 1122 2956 1747 
Q 2956 2369 2687 2733 
Q 2419 3097 1959 3097 
z
M 1959 3584 
Q 2709 3584 3137 3096 
Q 3566 2609 3566 1747 
Q 3566 888 3137 398 
Q 2709 -91 1959 -91 
Q 1206 -91 779 398 
Q 353 888 353 1747 
Q 353 2609 779 3096 
Q 1206 3584 1959 3584 
z
" transform="scale(0.015625)"/>
       <path id="DejaVuSans-20" transform="scale(0.015625)"/>
       <path id="DejaVuSans-28" d="M 1984 4856 
Q 1566 4138 1362 3434 
Q 1159 2731 1159 2009 
Q 1159 1288 1364 580 
Q 1569 -128 1984 -844 
L 1484 -844 
Q 1016 -109 783 600 
Q 550 1309 550 2009 
Q 550 2706 781 3412 
Q 1013 4119 1484 4856 
L 1984 4856 
z
" transform="scale(0.015625)"/>
       <path id="DejaVuSans-64" d="M 2906 2969 
L 2906 4863 
L 3481 4863 
L 3481 0 
L 2906 0 
L 2906 525 
Q 2725 213 2448 61 
Q 2172 -91 1784 -91 
Q 1150 -91 751 415 
Q 353 922 353 1747 
Q 353 2572 751 3078 
Q 1150 3584 1784 3584 
Q 2172 3584 2448 3432 
Q 2725 3281 2906 2969 
z
M 947 1747 
Q 947 1113 1208 752 
Q 1469 391 1925 391 
Q 2381 391 2643 752 
Q 2906 1113 2906 1747 
Q 2906 2381 2643 2742 
Q 2381 3103 1925 3103 
Q 1469 3103 1208 2742 
Q 947 2381 947 1747 
z
" transform="scale(0.015625)"/>
       <path id="DejaVuSans-29" d="M 513 4856 
L 1013 4856 
Q 1481 4119 1714 3412 
Q 1947 2706 1947 2009 
Q 1947 1309 1714 600 
Q 1481 -109 1013 -844 
L 513 -844 
Q 928 -128 1133 580 
Q 1338 1288 1338 2009 
Q 1338 2731 1133 3434 
Q 928 4138 513 4856 
z
" transform="scale(0.015625)"/>
      </defs>
      <use xlink:href="#DejaVuSans-44"/>
      <use xlink:href="#DejaVuSans-69" transform="translate(77.001953 0)"/>
      <use xlink:href="#DejaVuSans-6d" transform="translate(104.785156 0)"/>
      <use xlink:href="#DejaVuSans-65" transform="translate(202.197266 0)"/>
      <use xlink:href="#DejaVuSans-6e" transform="translate(263.720703 0)"/>
      <use xlink:href="#DejaVuSans-73" transform="translate(327.099609 0)"/>
      <use xlink:href="#DejaVuSans-69" transform="translate(379.199219 0)"/>
      <use xlink:href="#DejaVuSans-6f" transform="translate(406.982422 0)"/>
      <use xlink:href="#DejaVuSans-6e" transform="translate(468.164062 0)"/>
      <use xlink:href="#DejaVuSans-20" transform="translate(531.542969 0)"/>
      <use xlink:href="#DejaVuSans-28" transform="translate(563.330078 0)"/>
      <use xlink:href="#DejaVuSans-64" transform="translate(602.34375 0)"/>
      <use xlink:href="#DejaVuSans-29" transform="translate(665.820312 0)"/>
     </g>
    </g>
   </g>
   <g id="matplotlib.axis_2">
    <g id="ytick_1">
     <g id="line2d_7">
      <defs>
       <path id="ma5eee8771e" d="M 0 0 
L -3.5 0 
" style="stroke: #000000; stroke-width: 0.8"/>
      </defs>
      <g>
       <use xlink:href="#ma5eee8771e" x="35.208438" y="242.08" style="stroke: #000000; stroke-width: 0.8"/>
      </g>
     </g>
     <g id="text_8">
      <!-- 0 -->
      <g transform="translate(21.845938 245.879219) scale(0.1 -0.1)">
       <use xlink:href="#DejaVuSans-30"/>
      </g>
     </g>
    </g>
    <g id="ytick_2">
     <g id="line2d_8">
      <g>
       <use xlink:href="#ma5eee8771e" x="35.208438" y="199.583001" style="stroke: #000000; stroke-width: 0.8"/>
      </g>
     </g>
     <g id="text_9">
      <!-- 1 -->
      <g transform="translate(21.845938 203.382219) scale(0.1 -0.1)">
       <use xlink:href="#DejaVuSans-31"/>
      </g>
     </g>
    </g>
    <g id="ytick_3">
     <g id="line2d_9">
      <g>
       <use xlink:href="#ma5eee8771e" x="35.208438" y="157.086001" style="stroke: #000000; stroke-width: 0.8"/>
      </g>
     </g>
     <g id="text_10">
      <!-- 2 -->
      <g transform="translate(21.845938 160.88522) scale(0.1 -0.1)">
       <use xlink:href="#DejaVuSans-32"/>
      </g>
     </g>
    </g>
    <g id="ytick_4">
     <g id="line2d_10">
      <g>
       <use xlink:href="#ma5eee8771e" x="35.208438" y="114.589002" style="stroke: #000000; stroke-width: 0.8"/>
      </g>
     </g>
     <g id="text_11">
      <!-- 3 -->
      <g transform="translate(21.845938 118.388221) scale(0.1 -0.1)">
       <use xlink:href="#DejaVuSans-33"/>
      </g>
     </g>
    </g>
    <g id="ytick_5">
     <g id="line2d_11">
      <g>
       <use xlink:href="#ma5eee8771e" x="35.208438" y="72.092003" style="stroke: #000000; stroke-width: 0.8"/>
      </g>
     </g>
     <g id="text_12">
      <!-- 4 -->
      <g transform="translate(21.845938 75.891222) scale(0.1 -0.1)">
       <use xlink:href="#DejaVuSans-34"/>
      </g>
     </g>
    </g>
    <g id="ytick_6">
     <g id="line2d_12">
      <g>
       <use xlink:href="#ma5eee8771e" x="35.208438" y="29.595003" style="stroke: #000000; stroke-width: 0.8"/>
      </g>
     </g>
     <g id="text_13">
      <!-- 5 -->
      <g transform="translate(21.845938 33.394222) scale(0.1 -0.1)">
       <use xlink:href="#DejaVuSans-35"/>
      </g>
     </g>
    </g>
    <g id="text_14">
     <!-- Volume of unit ball -->
     <g transform="translate(15.558281 176.215391) rotate(-90) scale(0.11 -0.11)">
      <defs>
       <path id="DejaVuSans-56" d="M 1831 0 
L 50 4666 
L 709 4666 
L 2188 738 
L 3669 4666 
L 4325 4666 
L 2547 0 
L 1831 0 
z
" transform="scale(0.015625)"/>
       <path id="DejaVuSans-6c" d="M 603 4863 
L 1178 4863 
L 1178 0 
L 603 0 
L 603 4863 
z
" transform="scale(0.015625)"/>
       <path id="DejaVuSans-75" d="M 544 1381 
L 544 3500 
L 1119 3500 
L 1119 1403 
Q 1119 906 1312 657 
Q 1506 409 1894 409 
Q 2359 409 2629 706 
Q 2900 1003 2900 1516 
L 2900 3500 
L 3475 3500 
L 3475 0 
L 2900 0 
L 2900 538 
Q 2691 219 2414 64 
Q 2138 -91 1772 -91 
Q 1169 -91 856 284 
Q 544 659 544 1381 
z
M 1991 3584 
L 1991 3584 
z
" transform="scale(0.015625)"/>
       <path id="DejaVuSans-66" d="M 2375 4863 
L 2375 4384 
L 1825 4384 
Q 1516 4384 1395 4259 
Q 1275 4134 1275 3809 
L 1275 3500 
L 2222 3500 
L 2222 3053 
L 1275 3053 
L 1275 0 
L 697 0 
L 697 3053 
L 147 3053 
L 147 3500 
L 697 3500 
L 697 3744 
Q 697 4328 969 4595 
Q 1241 4863 1831 4863 
L 2375 4863 
z
" transform="scale(0.015625)"/>
       <path id="DejaVuSans-74" d="M 1172 4494 
L 1172 3500 
L 2356 3500 
L 2356 3053 
L 1172 3053 
L 1172 1153 
Q 1172 725 1289 603 
Q 1406 481 1766 481 
L 2356 481 
L 2356 0 
L 1766 0 
Q 1100 0 847 248 
Q 594 497 594 1153 
L 594 3053 
L 172 3053 
L 172 3500 
L 594 3500 
L 594 4494 
L 1172 4494 
z
" transform="scale(0.015625)"/>
       <path id="DejaVuSans-62" d="M 3116 1747 
Q 3116 2381 2855 2742 
Q 2594 3103 2138 3103 
Q 1681 3103 1420 2742 
Q 1159 2381 1159 1747 
Q 1159 1113 1420 752 
Q 1681 391 2138 391 
Q 2594 391 2855 752 
Q 3116 1113 3116 1747 
z
M 1159 2969 
Q 1341 3281 1617 3432 
Q 1894 3584 2278 3584 
Q 2916 3584 3314 3078 
Q 3713 2572 3713 1747 
Q 3713 922 3314 415 
Q 2916 -91 2278 -91 
Q 1894 -91 1617 61 
Q 1341 213 1159 525 
L 1159 0 
L 581 0 
L 581 4863 
L 1159 4863 
L 1159 2969 
z
" transform="scale(0.015625)"/>
       <path id="DejaVuSans-61" d="M 2194 1759 
Q 1497 1759 1228 1600 
Q 959 1441 959 1056 
Q 959 750 1161 570 
Q 1363 391 1709 391 
Q 2188 391 2477 730 
Q 2766 1069 2766 1631 
L 2766 1759 
L 2194 1759 
z
M 3341 1997 
L 3341 0 
L 2766 0 
L 2766 531 
Q 2569 213 2275 61 
Q 1981 -91 1556 -91 
Q 1019 -91 701 211 
Q 384 513 384 1019 
Q 384 1609 779 1909 
Q 1175 2209 1959 2209 
L 2766 2209 
L 2766 2266 
Q 2766 2663 2505 2880 
Q 2244 3097 1772 3097 
Q 1472 3097 1187 3025 
Q 903 2953 641 2809 
L 641 3341 
Q 956 3463 1253 3523 
Q 1550 3584 1831 3584 
Q 2591 3584 2966 3190 
Q 3341 2797 3341 1997 
z
" transform="scale(0.015625)"/>
      </defs>
      <use xlink:href="#DejaVuSans-56"/>
      <use xlink:href="#DejaVuSans-6f" transform="translate(60.658203 0)"/>
      <use xlink:href="#DejaVuSans-6c" transform="translate(121.839844 0)"/>
      <use xlink:href="#DejaVuSans-75" transform="translate(149.623047 0)"/>
      <use xlink:href="#DejaVuSans-6d" transform="translate(213.001953 0)"/>
      <use xlink:href="#DejaVuSans-65" transform="translate(310.414062 0)"/>
      <use xlink:href="#DejaVuSans-20" transform="translate(371.9375 0)"/>
      <use xlink:href="#DejaVuSans-6f" transform="translate(403.724609 0)"/>
      <use xlink:href="#DejaVuSans-66" transform="translate(464.90625 0)"/>
      <use xlink:href="#DejaVuSans-20" transform="translate(500.111328 0)"/>
      <use xlink:href="#DejaVuSans-75" transform="translate(531.898438 0)"/>
      <use xlink:href="#DejaVuSans-6e" transform="translate(595.277344 0)"/>
      <use xlink:href="#DejaVuSans-69" transform="translate(658.65625 0)"/>
      <use xlink:href="#DejaVuSans-74" transform="translate(686.439453 0)"/>
      <use xlink:href="#DejaVuSans-20" transform="translate(725.648438 0)"/>
      <use xlink:href="#DejaVuSans-62" transform="translate(757.435547 0)"/>
      <use xlink:href="#DejaVuSans-61" transform="translate(820.912109 0)"/>
      <use xlink:href="#DejaVuSans-6c" transform="translate(882.191406 0)"/>
      <use xlink:href="#DejaVuSans-6c" transform="translate(909.974609 0)"/>
     </g>
    </g>
   </g>
   <g id="patch_53">
    <path d="M 35.208438 242.08 
L 35.208438 7.2 
" style="fill: none; stroke: #000000; stroke-width: 0.8; stroke-linejoin: miter; stroke-linecap: square"/>
   </g>
   <g id="patch_54">
    <path d="M 35.208438 242.08 
L 561.778437 242.08 
" style="fill: none; stroke: #000000; stroke-width: 0.8; stroke-linejoin: miter; stroke-linecap: square"/>
   </g>
   <g id="patch_55">
    <path d="M 160.56551 41.736976 
Q 124.651038 30.362321 90.335346 19.494024 
" style="fill: none; stroke: #c45a3b; stroke-width: 1.5; stroke-linecap: round"/>
    <path d="M 93.544795 22.608417 
L 90.335346 19.494024 
L 94.752529 18.795101 
" style="fill: none; stroke: #c45a3b; stroke-width: 1.5; stroke-linecap: round"/>
   </g>
   <g id="text_15">
    <!-- d=5, V≈5.26 -->
    <g style="fill: #c45a3b" transform="translate(148.782359 51.939048) scale(0.1 -0.1)">
     <defs>
      <path id="DejaVuSans-Bold-64" d="M 2919 2988 
L 2919 4863 
L 4044 4863 
L 4044 0 
L 2919 0 
L 2919 506 
Q 2688 197 2409 53 
Q 2131 -91 1766 -91 
Q 1119 -91 703 423 
Q 288 938 288 1747 
Q 288 2556 703 3070 
Q 1119 3584 1766 3584 
Q 2128 3584 2408 3439 
Q 2688 3294 2919 2988 
z
M 2181 722 
Q 2541 722 2730 984 
Q 2919 1247 2919 1747 
Q 2919 2247 2730 2509 
Q 2541 2772 2181 2772 
Q 1825 2772 1636 2509 
Q 1447 2247 1447 1747 
Q 1447 1247 1636 984 
Q 1825 722 2181 722 
z
" transform="scale(0.015625)"/>
      <path id="DejaVuSans-Bold-3d" d="M 678 3084 
L 4684 3084 
L 4684 2350 
L 678 2350 
L 678 3084 
z
M 678 1663 
L 4684 1663 
L 4684 922 
L 678 922 
L 678 1663 
z
" transform="scale(0.015625)"/>
      <path id="DejaVuSans-Bold-35" d="M 678 4666 
L 3669 4666 
L 3669 3781 
L 1638 3781 
L 1638 3059 
Q 1775 3097 1914 3117 
Q 2053 3138 2203 3138 
Q 3056 3138 3531 2711 
Q 4006 2284 4006 1522 
Q 4006 766 3489 337 
Q 2972 -91 2053 -91 
Q 1656 -91 1267 -14 
Q 878 63 494 219 
L 494 1166 
Q 875 947 1217 837 
Q 1559 728 1863 728 
Q 2300 728 2551 942 
Q 2803 1156 2803 1522 
Q 2803 1891 2551 2103 
Q 2300 2316 1863 2316 
Q 1603 2316 1309 2248 
Q 1016 2181 678 2041 
L 678 4666 
z
" transform="scale(0.015625)"/>
      <path id="DejaVuSans-Bold-2c" d="M 653 1209 
L 1778 1209 
L 1778 256 
L 1006 -909 
L 341 -909 
L 653 256 
L 653 1209 
z
" transform="scale(0.015625)"/>
      <path id="DejaVuSans-Bold-20" transform="scale(0.015625)"/>
      <path id="DejaVuSans-Bold-56" d="M 31 4666 
L 1241 4666 
L 2478 1222 
L 3713 4666 
L 4922 4666 
L 3194 0 
L 1759 0 
L 31 4666 
z
" transform="scale(0.015625)"/>
      <path id="DejaVuSans-Bold-2248" d="M 4684 3309 
L 4684 2547 
Q 4353 2297 4073 2189 
Q 3794 2081 3494 2081 
Q 3159 2081 2713 2263 
Q 2669 2281 2644 2291 
Q 2622 2300 2575 2319 
Q 2091 2509 1797 2509 
Q 1522 2509 1253 2389 
Q 984 2269 678 2009 
L 678 2772 
Q 1006 3016 1286 3123 
Q 1566 3231 1869 3231 
Q 2213 3231 2672 3047 
Q 2703 3034 2719 3028 
Q 2744 3019 2788 3000 
Q 3272 2809 3566 2809 
Q 3834 2809 4098 2926 
Q 4363 3044 4684 3309 
z
M 4684 2003 
L 4684 1241 
Q 4353 991 4073 883 
Q 3794 775 3494 775 
Q 3159 775 2713 956 
Q 2669 975 2641 988 
Q 2622 994 2575 1013 
Q 2091 1203 1797 1203 
Q 1522 1203 1253 1084 
Q 984 966 678 703 
L 678 1466 
Q 1013 1716 1291 1823 
Q 1569 1931 1869 1931 
Q 2203 1931 2650 1750 
Q 2697 1731 2719 1722 
Q 2744 1713 2788 1697 
Q 3272 1503 3566 1503 
Q 3834 1503 4098 1620 
Q 4363 1738 4684 2003 
z
" transform="scale(0.015625)"/>
      <path id="DejaVuSans-Bold-2e" d="M 653 1209 
L 1778 1209 
L 1778 0 
L 653 0 
L 653 1209 
z
" transform="scale(0.015625)"/>
      <path id="DejaVuSans-Bold-32" d="M 1844 884 
L 3897 884 
L 3897 0 
L 506 0 
L 506 884 
L 2209 2388 
Q 2438 2594 2547 2791 
Q 2656 2988 2656 3200 
Q 2656 3528 2436 3728 
Q 2216 3928 1850 3928 
Q 1569 3928 1234 3808 
Q 900 3688 519 3450 
L 519 4475 
Q 925 4609 1322 4679 
Q 1719 4750 2100 4750 
Q 2938 4750 3402 4381 
Q 3866 4013 3866 3353 
Q 3866 2972 3669 2642 
Q 3472 2313 2841 1759 
L 1844 884 
z
" transform="scale(0.015625)"/>
      <path id="DejaVuSans-Bold-36" d="M 2316 2303 
Q 2000 2303 1842 2098 
Q 1684 1894 1684 1484 
Q 1684 1075 1842 870 
Q 2000 666 2316 666 
Q 2634 666 2792 870 
Q 2950 1075 2950 1484 
Q 2950 1894 2792 2098 
Q 2634 2303 2316 2303 
z
M 3803 4544 
L 3803 3681 
Q 3506 3822 3243 3889 
Q 2981 3956 2731 3956 
Q 2194 3956 1894 3657 
Q 1594 3359 1544 2772 
Q 1750 2925 1990 3001 
Q 2231 3078 2516 3078 
Q 3231 3078 3670 2659 
Q 4109 2241 4109 1563 
Q 4109 813 3618 361 
Q 3128 -91 2303 -91 
Q 1394 -91 895 523 
Q 397 1138 397 2266 
Q 397 3422 980 4083 
Q 1563 4744 2578 4744 
Q 2900 4744 3203 4694 
Q 3506 4644 3803 4544 
z
" transform="scale(0.015625)"/>
     </defs>
     <use xlink:href="#DejaVuSans-Bold-64"/>
     <use xlink:href="#DejaVuSans-Bold-3d" transform="translate(71.582031 0)"/>
     <use xlink:href="#DejaVuSans-Bold-35" transform="translate(155.371094 0)"/>
     <use xlink:href="#DejaVuSans-Bold-2c" transform="translate(224.951172 0)"/>
     <use xlink:href="#DejaVuSans-Bold-20" transform="translate(262.939453 0)"/>
     <use xlink:href="#DejaVuSans-Bold-56" transform="translate(297.753906 0)"/>
     <use xlink:href="#DejaVuSans-Bold-2248" transform="translate(375.146484 0)"/>
     <use xlink:href="#DejaVuSans-Bold-35" transform="translate(458.935547 0)"/>
     <use xlink:href="#DejaVuSans-Bold-2e" transform="translate(528.515625 0)"/>
     <use xlink:href="#DejaVuSans-Bold-32" transform="translate(566.503906 0)"/>
     <use xlink:href="#DejaVuSans-Bold-36" transform="translate(636.083984 0)"/>
    </g>
   </g>
  </g>
 </g>
 <defs>
  <clipPath id="p1e99ec59a1">
   <rect x="35.208438" y="7.2" width="526.57" height="234.88"/>
  </clipPath>
 </defs>
</svg>
